M48
; DRILL file {KiCad (5.1.6)-1} date 10/09/21 20:15:26
; FORMAT={-:-/ absolute / inch / decimal}
; #@! TF.CreationDate,2021-10-09T20:15:26-05:00
; #@! TF.GenerationSoftware,Kicad,Pcbnew,(5.1.6)-1
FMAT,2
INCH
T1C0.0315
%
G90
G05
T1
X0.25Y0.55
X0.25Y0.45
X0.9Y0.55
X0.9Y0.45
X0.45Y0.75
X0.55Y0.75
X0.65Y0.75
X0.75Y0.7
X0.35Y0.65
X0.25Y0.8
X0.25Y0.7
X0.15Y0.75
X0.15Y0.45
X0.45Y0.6
X0.45Y0.3
X0.55Y0.6
X0.55Y0.3
X0.65Y0.6
X0.65Y0.3
X0.75Y0.6
X0.75Y0.3
X0.15Y0.15
X0.45Y0.15
X1.0Y0.75
X1.0Y0.45
X0.85Y0.2
X1.05Y0.3
X1.05Y0.1
X0.15Y0.3
X0.25Y0.3
T0
M30
