%TF.GenerationSoftware,KiCad,Pcbnew,(5.1.6)-1*%
%TF.CreationDate,2021-10-09T20:15:21-05:00*%
%TF.ProjectId,sensor,73656e73-6f72-42e6-9b69-6361645f7063,rev?*%
%TF.SameCoordinates,Original*%
%TF.FileFunction,Copper,L2,Bot*%
%TF.FilePolarity,Positive*%
%FSLAX46Y46*%
G04 Gerber Fmt 4.6, Leading zero omitted, Abs format (unit mm)*
G04 Created by KiCad (PCBNEW (5.1.6)-1) date 2021-10-09 20:15:21*
%MOMM*%
%LPD*%
G01*
G04 APERTURE LIST*
%TA.AperFunction,ComponentPad*%
%ADD10C,2.200000*%
%TD*%
%TA.AperFunction,Conductor*%
%ADD11C,1.000000*%
%TD*%
%TA.AperFunction,Conductor*%
%ADD12C,0.300000*%
%TD*%
G04 APERTURE END LIST*
D10*
%TO.P,RV1,1*%
%TO.N,Net-(C1-Pad1)*%
X26670000Y7620000D03*
%TO.P,RV1,2*%
%TO.N,Net-(RV1-Pad2)*%
X21590000Y5080000D03*
%TO.P,RV1,3*%
%TO.N,Net-(C1-Pad2)*%
X26670000Y2540000D03*
%TD*%
%TO.P,R1,1*%
%TO.N,Net-(D1-Pad1)*%
X25400000Y11430000D03*
%TO.P,R1,2*%
%TO.N,Net-(C1-Pad2)*%
X25400000Y19050000D03*
%TD*%
%TO.P,C1,2*%
%TO.N,Net-(C1-Pad2)*%
X6350000Y20320000D03*
%TO.P,C1,1*%
%TO.N,Net-(C1-Pad1)*%
X6350000Y17780000D03*
%TD*%
%TO.P,D1,1*%
%TO.N,Net-(D1-Pad1)*%
X22860000Y11430000D03*
%TO.P,D1,2*%
%TO.N,Net-(C1-Pad1)*%
X22860000Y13970000D03*
%TD*%
%TO.P,D2,1*%
%TO.N,Net-(C1-Pad1)*%
X6350000Y13970000D03*
%TO.P,D2,2*%
%TO.N,Net-(D2-Pad2)*%
X6350000Y11430000D03*
%TD*%
%TO.P,D3,2*%
%TO.N,Net-(D3-Pad2)*%
X3810000Y7620000D03*
%TO.P,D3,1*%
%TO.N,Net-(D3-Pad1)*%
X6350000Y7620000D03*
%TD*%
%TO.P,R2,2*%
%TO.N,Net-(D2-Pad2)*%
X3810000Y11430000D03*
%TO.P,R2,1*%
%TO.N,Net-(C1-Pad2)*%
X3810000Y19050000D03*
%TD*%
%TO.P,R3,1*%
%TO.N,Net-(C1-Pad2)*%
X11430000Y3810000D03*
%TO.P,R3,2*%
%TO.N,Net-(D3-Pad2)*%
X3810000Y3810000D03*
%TD*%
%TO.P,V1,1*%
%TO.N,Net-(D2-Pad2)*%
X8890000Y16510000D03*
%TD*%
%TO.P,V2,1*%
%TO.N,Net-(D2-Pad2)*%
X19050000Y17780000D03*
%TD*%
%TO.P,J1,1*%
%TO.N,Net-(C1-Pad1)*%
X11430000Y19050000D03*
%TO.P,J1,2*%
%TO.N,Net-(D3-Pad1)*%
X13970000Y19050000D03*
%TO.P,J1,3*%
%TO.N,Net-(C1-Pad2)*%
X16510000Y19050000D03*
%TD*%
%TO.P,U1,1*%
%TO.N,N/C*%
X11430000Y7620000D03*
%TO.P,U1,2*%
X13970000Y7620000D03*
%TO.P,U1,3*%
X16510000Y7620000D03*
%TO.P,U1,4*%
%TO.N,Net-(C1-Pad2)*%
X19050000Y7620000D03*
%TO.P,U1,5*%
%TO.N,Net-(D2-Pad2)*%
X19050000Y15240000D03*
%TO.P,U1,6*%
%TO.N,Net-(RV1-Pad2)*%
X16510000Y15240000D03*
%TO.P,U1,7*%
%TO.N,Net-(D3-Pad1)*%
X13970000Y15240000D03*
%TO.P,U1,8*%
%TO.N,Net-(C1-Pad1)*%
X11430000Y15240000D03*
%TD*%
D11*
%TO.N,Net-(C1-Pad1)*%
X27200001Y8150001D02*
X26670000Y7620000D01*
X25524002Y13970000D02*
X27200001Y12294001D01*
X27200001Y12294001D02*
X27200001Y8150001D01*
X22860000Y13970000D02*
X25524002Y13970000D01*
X6350000Y13970000D02*
X6350000Y15240000D01*
X6350000Y15240000D02*
X6350000Y17780000D01*
X22860000Y15364002D02*
X22860000Y13970000D01*
X11430000Y19050000D02*
X11430000Y15240000D01*
X22860000Y19050000D02*
X22860000Y13970000D01*
X21059999Y20850001D02*
X22860000Y19050000D01*
X11430000Y19050000D02*
X11430000Y20605634D01*
X11674367Y20850001D02*
X21059999Y20850001D01*
X11430000Y20605634D02*
X11674367Y20850001D01*
X11259999Y18879999D02*
X11430000Y19050000D01*
X7449999Y18879999D02*
X11259999Y18879999D01*
X6350000Y17780000D02*
X7449999Y18879999D01*
%TO.N,Net-(D1-Pad1)*%
X22860000Y11430000D02*
X25400000Y11430000D01*
%TO.N,Net-(D3-Pad2)*%
X3810000Y3810000D02*
X3810000Y7620000D01*
%TO.N,Net-(RV1-Pad2)*%
X21590000Y7744002D02*
X19174002Y10160000D01*
X21590000Y5080000D02*
X21590000Y7744002D01*
X19174002Y10160000D02*
X16510000Y10160000D01*
X16510000Y10160000D02*
X16510000Y15240000D01*
%TO.N,Net-(D3-Pad1)*%
X13970000Y18925998D02*
X13970000Y19050000D01*
X13970000Y9420001D02*
X13970000Y15240000D01*
X9705635Y9420001D02*
X13970000Y9420001D01*
X6350000Y7620000D02*
X7905634Y7620000D01*
X7905634Y7620000D02*
X9705635Y9420001D01*
X13970000Y19050000D02*
X13970000Y15240000D01*
%TO.N,Net-(D2-Pad2)*%
X3810000Y11430000D02*
X6350000Y11430000D01*
X6350000Y11430000D02*
X8890000Y11430000D01*
X8890000Y11430000D02*
X8890000Y16510000D01*
X19050000Y17780000D02*
X19050000Y15240000D01*
%TD*%
D12*
%TO.N,Net-(C1-Pad2)*%
G36*
X10548069Y20970942D02*
G01*
X10493747Y20791866D01*
X10475405Y20605634D01*
X10480001Y20558970D01*
X10480001Y20279401D01*
X10441932Y20253964D01*
X10226036Y20038068D01*
X10087010Y19829999D01*
X7496656Y19829999D01*
X7449999Y19834594D01*
X7403342Y19829999D01*
X7403334Y19829999D01*
X7279719Y19817824D01*
X7263766Y19816253D01*
X7158102Y19784200D01*
X7084691Y19761931D01*
X6919654Y19673717D01*
X6774998Y19555000D01*
X6745251Y19518753D01*
X6547566Y19321068D01*
X6502662Y19330000D01*
X6197338Y19330000D01*
X5897882Y19270435D01*
X5615800Y19153592D01*
X5361932Y18983964D01*
X5146036Y18768068D01*
X4976408Y18514200D01*
X4859565Y18232118D01*
X4800000Y17932662D01*
X4800000Y17627338D01*
X4859565Y17327882D01*
X4976408Y17045800D01*
X5146036Y16791932D01*
X5361932Y16576036D01*
X5400001Y16550600D01*
X5400000Y15199400D01*
X5361932Y15173964D01*
X5146036Y14958068D01*
X4976408Y14704200D01*
X4859565Y14422118D01*
X4800000Y14122662D01*
X4800000Y13817338D01*
X4859565Y13517882D01*
X4976408Y13235800D01*
X5146036Y12981932D01*
X5361932Y12766036D01*
X5460763Y12700000D01*
X5361932Y12633964D01*
X5146036Y12418068D01*
X5120600Y12380000D01*
X5039400Y12380000D01*
X5013964Y12418068D01*
X4798068Y12633964D01*
X4544200Y12803592D01*
X4262118Y12920435D01*
X3962662Y12980000D01*
X3657338Y12980000D01*
X3357882Y12920435D01*
X3075800Y12803592D01*
X2821932Y12633964D01*
X2606036Y12418068D01*
X2436408Y12164200D01*
X2319565Y11882118D01*
X2260000Y11582662D01*
X2260000Y11277338D01*
X2319565Y10977882D01*
X2436408Y10695800D01*
X2606036Y10441932D01*
X2821932Y10226036D01*
X3075800Y10056408D01*
X3357882Y9939565D01*
X3657338Y9880000D01*
X3962662Y9880000D01*
X4262118Y9939565D01*
X4544200Y10056408D01*
X4798068Y10226036D01*
X5013964Y10441932D01*
X5039400Y10480000D01*
X5120600Y10480000D01*
X5146036Y10441932D01*
X5361932Y10226036D01*
X5615800Y10056408D01*
X5897882Y9939565D01*
X6197338Y9880000D01*
X6502662Y9880000D01*
X6802118Y9939565D01*
X7084200Y10056408D01*
X7338068Y10226036D01*
X7553964Y10441932D01*
X7579400Y10480000D01*
X8843335Y10480000D01*
X8890000Y10475404D01*
X8936664Y10480000D01*
X8936665Y10480000D01*
X9076232Y10493746D01*
X9255308Y10548068D01*
X9420345Y10636282D01*
X9565001Y10754999D01*
X9683718Y10899655D01*
X9771932Y11064692D01*
X9826254Y11243768D01*
X9844596Y11430000D01*
X9840000Y11476665D01*
X9840000Y15280600D01*
X9878068Y15306036D01*
X9880000Y15307968D01*
X9880000Y15087338D01*
X9939565Y14787882D01*
X10056408Y14505800D01*
X10226036Y14251932D01*
X10441932Y14036036D01*
X10695800Y13866408D01*
X10977882Y13749565D01*
X11277338Y13690000D01*
X11582662Y13690000D01*
X11882118Y13749565D01*
X12164200Y13866408D01*
X12418068Y14036036D01*
X12633964Y14251932D01*
X12700000Y14350763D01*
X12766036Y14251932D01*
X12981932Y14036036D01*
X13020001Y14010599D01*
X13020000Y10370001D01*
X9752292Y10370001D01*
X9705635Y10374596D01*
X9658978Y10370001D01*
X9658970Y10370001D01*
X9535355Y10357826D01*
X9519402Y10356255D01*
X9465080Y10339776D01*
X9340327Y10301933D01*
X9175290Y10213719D01*
X9175288Y10213718D01*
X9175289Y10213718D01*
X9066880Y10124749D01*
X9066877Y10124746D01*
X9030634Y10095002D01*
X9000889Y10058758D01*
X7552082Y8609950D01*
X7338068Y8823964D01*
X7084200Y8993592D01*
X6802118Y9110435D01*
X6502662Y9170000D01*
X6197338Y9170000D01*
X5897882Y9110435D01*
X5615800Y8993592D01*
X5361932Y8823964D01*
X5146036Y8608068D01*
X5080000Y8509237D01*
X5013964Y8608068D01*
X4798068Y8823964D01*
X4544200Y8993592D01*
X4262118Y9110435D01*
X3962662Y9170000D01*
X3657338Y9170000D01*
X3357882Y9110435D01*
X3075800Y8993592D01*
X2821932Y8823964D01*
X2606036Y8608068D01*
X2436408Y8354200D01*
X2319565Y8072118D01*
X2260000Y7772662D01*
X2260000Y7467338D01*
X2319565Y7167882D01*
X2436408Y6885800D01*
X2606036Y6631932D01*
X2821932Y6416036D01*
X2860001Y6390600D01*
X2860000Y5039400D01*
X2821932Y5013964D01*
X2606036Y4798068D01*
X2436408Y4544200D01*
X2319565Y4262118D01*
X2260000Y3962662D01*
X2260000Y3657338D01*
X2319565Y3357882D01*
X2436408Y3075800D01*
X2606036Y2821932D01*
X2821932Y2606036D01*
X3075800Y2436408D01*
X3357882Y2319565D01*
X3657338Y2260000D01*
X3962662Y2260000D01*
X4262118Y2319565D01*
X4544200Y2436408D01*
X4798068Y2606036D01*
X5013964Y2821932D01*
X5183592Y3075800D01*
X5300435Y3357882D01*
X5360000Y3657338D01*
X5360000Y3962662D01*
X5300435Y4262118D01*
X5183592Y4544200D01*
X5013964Y4798068D01*
X4798068Y5013964D01*
X4760000Y5039400D01*
X4760000Y6390600D01*
X4798068Y6416036D01*
X5013964Y6631932D01*
X5080000Y6730763D01*
X5146036Y6631932D01*
X5361932Y6416036D01*
X5615800Y6246408D01*
X5897882Y6129565D01*
X6197338Y6070000D01*
X6502662Y6070000D01*
X6802118Y6129565D01*
X7084200Y6246408D01*
X7338068Y6416036D01*
X7553964Y6631932D01*
X7579400Y6670000D01*
X7858980Y6670000D01*
X7905634Y6665405D01*
X7952288Y6670000D01*
X7952299Y6670000D01*
X8091866Y6683746D01*
X8270942Y6738068D01*
X8435979Y6826282D01*
X8580635Y6944999D01*
X8610384Y6981248D01*
X10099138Y8470001D01*
X10133783Y8470001D01*
X10056408Y8354200D01*
X9939565Y8072118D01*
X9880000Y7772662D01*
X9880000Y7467338D01*
X9939565Y7167882D01*
X10056408Y6885800D01*
X10226036Y6631932D01*
X10441932Y6416036D01*
X10695800Y6246408D01*
X10977882Y6129565D01*
X11277338Y6070000D01*
X11582662Y6070000D01*
X11882118Y6129565D01*
X12164200Y6246408D01*
X12418068Y6416036D01*
X12633964Y6631932D01*
X12700000Y6730763D01*
X12766036Y6631932D01*
X12981932Y6416036D01*
X13235800Y6246408D01*
X13517882Y6129565D01*
X13817338Y6070000D01*
X14122662Y6070000D01*
X14422118Y6129565D01*
X14704200Y6246408D01*
X14958068Y6416036D01*
X15173964Y6631932D01*
X15240000Y6730763D01*
X15306036Y6631932D01*
X15521932Y6416036D01*
X15775800Y6246408D01*
X16057882Y6129565D01*
X16357338Y6070000D01*
X16662662Y6070000D01*
X16962118Y6129565D01*
X17244200Y6246408D01*
X17498068Y6416036D01*
X17713964Y6631932D01*
X17883592Y6885800D01*
X18000435Y7167882D01*
X18060000Y7467338D01*
X18060000Y7772662D01*
X18000435Y8072118D01*
X17883592Y8354200D01*
X17713964Y8608068D01*
X17498068Y8823964D01*
X17244200Y8993592D01*
X16962118Y9110435D01*
X16662662Y9170000D01*
X16357338Y9170000D01*
X16057882Y9110435D01*
X15775800Y8993592D01*
X15521932Y8823964D01*
X15306036Y8608068D01*
X15240000Y8509237D01*
X15173964Y8608068D01*
X14958068Y8823964D01*
X14788990Y8936937D01*
X14851932Y9054693D01*
X14906254Y9233769D01*
X14924596Y9420001D01*
X14920000Y9466666D01*
X14920000Y14010600D01*
X14958068Y14036036D01*
X15173964Y14251932D01*
X15240000Y14350763D01*
X15306036Y14251932D01*
X15521932Y14036036D01*
X15560001Y14010599D01*
X15560000Y10206665D01*
X15555404Y10160000D01*
X15573746Y9973768D01*
X15628068Y9794692D01*
X15716282Y9629655D01*
X15834999Y9484999D01*
X15979655Y9366282D01*
X16144692Y9278068D01*
X16323768Y9223746D01*
X16510000Y9205404D01*
X16556664Y9210000D01*
X18780500Y9210000D01*
X20640001Y7350498D01*
X20640000Y6309400D01*
X20601932Y6283964D01*
X20386036Y6068068D01*
X20216408Y5814200D01*
X20099565Y5532118D01*
X20040000Y5232662D01*
X20040000Y4927338D01*
X20099565Y4627882D01*
X20216408Y4345800D01*
X20386036Y4091932D01*
X20601932Y3876036D01*
X20855800Y3706408D01*
X21137882Y3589565D01*
X21437338Y3530000D01*
X21742662Y3530000D01*
X22042118Y3589565D01*
X22324200Y3706408D01*
X22578068Y3876036D01*
X22793964Y4091932D01*
X22963592Y4345800D01*
X23080435Y4627882D01*
X23140000Y4927338D01*
X23140000Y5232662D01*
X23080435Y5532118D01*
X22963592Y5814200D01*
X22793964Y6068068D01*
X22578068Y6283964D01*
X22540000Y6309400D01*
X22540000Y7697348D01*
X22544595Y7744003D01*
X22540000Y7790657D01*
X22540000Y7790667D01*
X22526254Y7930234D01*
X22471932Y8109310D01*
X22383718Y8274347D01*
X22265001Y8419003D01*
X22228757Y8448748D01*
X19878752Y10798752D01*
X19849003Y10835001D01*
X19704347Y10953718D01*
X19539310Y11041932D01*
X19360234Y11096254D01*
X19220667Y11110000D01*
X19220656Y11110000D01*
X19174002Y11114595D01*
X19127348Y11110000D01*
X17460000Y11110000D01*
X17460000Y14010600D01*
X17498068Y14036036D01*
X17713964Y14251932D01*
X17780000Y14350763D01*
X17846036Y14251932D01*
X18061932Y14036036D01*
X18315800Y13866408D01*
X18597882Y13749565D01*
X18897338Y13690000D01*
X19202662Y13690000D01*
X19502118Y13749565D01*
X19784200Y13866408D01*
X20038068Y14036036D01*
X20253964Y14251932D01*
X20423592Y14505800D01*
X20540435Y14787882D01*
X20600000Y15087338D01*
X20600000Y15392662D01*
X20540435Y15692118D01*
X20423592Y15974200D01*
X20253964Y16228068D01*
X20038068Y16443964D01*
X20000000Y16469400D01*
X20000000Y16550600D01*
X20038068Y16576036D01*
X20253964Y16791932D01*
X20423592Y17045800D01*
X20540435Y17327882D01*
X20600000Y17627338D01*
X20600000Y17932662D01*
X20540435Y18232118D01*
X20423592Y18514200D01*
X20253964Y18768068D01*
X20038068Y18983964D01*
X19784200Y19153592D01*
X19502118Y19270435D01*
X19202662Y19330000D01*
X18897338Y19330000D01*
X18597882Y19270435D01*
X18315800Y19153592D01*
X18061932Y18983964D01*
X17846036Y18768068D01*
X17676408Y18514200D01*
X17559565Y18232118D01*
X17500000Y17932662D01*
X17500000Y17627338D01*
X17559565Y17327882D01*
X17676408Y17045800D01*
X17846036Y16791932D01*
X18061932Y16576036D01*
X18100000Y16550600D01*
X18100001Y16469400D01*
X18061932Y16443964D01*
X17846036Y16228068D01*
X17780000Y16129237D01*
X17713964Y16228068D01*
X17498068Y16443964D01*
X17244200Y16613592D01*
X16962118Y16730435D01*
X16662662Y16790000D01*
X16357338Y16790000D01*
X16057882Y16730435D01*
X15775800Y16613592D01*
X15521932Y16443964D01*
X15306036Y16228068D01*
X15240000Y16129237D01*
X15173964Y16228068D01*
X14958068Y16443964D01*
X14920000Y16469400D01*
X14920000Y17820600D01*
X14958068Y17846036D01*
X15173964Y18061932D01*
X15343592Y18315800D01*
X15460435Y18597882D01*
X15520000Y18897338D01*
X15520000Y19202662D01*
X15460435Y19502118D01*
X15343592Y19784200D01*
X15266217Y19900001D01*
X20666497Y19900001D01*
X21910000Y18656497D01*
X21910001Y15410673D01*
X21910000Y15410666D01*
X21910000Y15199400D01*
X21871932Y15173964D01*
X21656036Y14958068D01*
X21486408Y14704200D01*
X21369565Y14422118D01*
X21310000Y14122662D01*
X21310000Y13817338D01*
X21369565Y13517882D01*
X21486408Y13235800D01*
X21656036Y12981932D01*
X21871932Y12766036D01*
X21970763Y12700000D01*
X21871932Y12633964D01*
X21656036Y12418068D01*
X21486408Y12164200D01*
X21369565Y11882118D01*
X21310000Y11582662D01*
X21310000Y11277338D01*
X21369565Y10977882D01*
X21486408Y10695800D01*
X21656036Y10441932D01*
X21871932Y10226036D01*
X22125800Y10056408D01*
X22407882Y9939565D01*
X22707338Y9880000D01*
X23012662Y9880000D01*
X23312118Y9939565D01*
X23594200Y10056408D01*
X23848068Y10226036D01*
X24063964Y10441932D01*
X24089400Y10480000D01*
X24170600Y10480000D01*
X24196036Y10441932D01*
X24411932Y10226036D01*
X24665800Y10056408D01*
X24947882Y9939565D01*
X25247338Y9880000D01*
X25552662Y9880000D01*
X25852118Y9939565D01*
X26134200Y10056408D01*
X26250002Y10133784D01*
X26250002Y9116824D01*
X26217882Y9110435D01*
X25935800Y8993592D01*
X25681932Y8823964D01*
X25466036Y8608068D01*
X25296408Y8354200D01*
X25179565Y8072118D01*
X25120000Y7772662D01*
X25120000Y7467338D01*
X25179565Y7167882D01*
X25296408Y6885800D01*
X25466036Y6631932D01*
X25681932Y6416036D01*
X25935800Y6246408D01*
X26217882Y6129565D01*
X26517338Y6070000D01*
X26822662Y6070000D01*
X27122118Y6129565D01*
X27404200Y6246408D01*
X27658068Y6416036D01*
X27873964Y6631932D01*
X28043592Y6885800D01*
X28160435Y7167882D01*
X28220000Y7467338D01*
X28220000Y7772662D01*
X28160435Y8072118D01*
X28149521Y8098466D01*
X28150001Y8103336D01*
X28150001Y8103344D01*
X28154596Y8150001D01*
X28150001Y8196658D01*
X28150001Y12247344D01*
X28154596Y12294001D01*
X28150001Y12340658D01*
X28150001Y12340666D01*
X28136255Y12480233D01*
X28081933Y12659309D01*
X27993719Y12824346D01*
X27875002Y12969002D01*
X27838753Y12998751D01*
X26228752Y14608752D01*
X26199003Y14645001D01*
X26054347Y14763718D01*
X25889310Y14851932D01*
X25710234Y14906254D01*
X25570667Y14920000D01*
X25570656Y14920000D01*
X25524002Y14924595D01*
X25477348Y14920000D01*
X24089400Y14920000D01*
X24063964Y14958068D01*
X23848068Y15173964D01*
X23810000Y15199400D01*
X23810000Y19003343D01*
X23814595Y19050000D01*
X23810000Y19096657D01*
X23810000Y19096665D01*
X23796254Y19236232D01*
X23741932Y19415308D01*
X23653718Y19580345D01*
X23628520Y19611049D01*
X23564748Y19688755D01*
X23564745Y19688758D01*
X23535001Y19725001D01*
X23498757Y19754746D01*
X22138502Y21115000D01*
X28735000Y21115000D01*
X28735001Y1293341D01*
X28735000Y1293331D01*
X28735001Y475000D01*
X475000Y475000D01*
X475000Y21115000D01*
X10625070Y21115000D01*
X10548069Y20970942D01*
G37*
X10548069Y20970942D02*
X10493747Y20791866D01*
X10475405Y20605634D01*
X10480001Y20558970D01*
X10480001Y20279401D01*
X10441932Y20253964D01*
X10226036Y20038068D01*
X10087010Y19829999D01*
X7496656Y19829999D01*
X7449999Y19834594D01*
X7403342Y19829999D01*
X7403334Y19829999D01*
X7279719Y19817824D01*
X7263766Y19816253D01*
X7158102Y19784200D01*
X7084691Y19761931D01*
X6919654Y19673717D01*
X6774998Y19555000D01*
X6745251Y19518753D01*
X6547566Y19321068D01*
X6502662Y19330000D01*
X6197338Y19330000D01*
X5897882Y19270435D01*
X5615800Y19153592D01*
X5361932Y18983964D01*
X5146036Y18768068D01*
X4976408Y18514200D01*
X4859565Y18232118D01*
X4800000Y17932662D01*
X4800000Y17627338D01*
X4859565Y17327882D01*
X4976408Y17045800D01*
X5146036Y16791932D01*
X5361932Y16576036D01*
X5400001Y16550600D01*
X5400000Y15199400D01*
X5361932Y15173964D01*
X5146036Y14958068D01*
X4976408Y14704200D01*
X4859565Y14422118D01*
X4800000Y14122662D01*
X4800000Y13817338D01*
X4859565Y13517882D01*
X4976408Y13235800D01*
X5146036Y12981932D01*
X5361932Y12766036D01*
X5460763Y12700000D01*
X5361932Y12633964D01*
X5146036Y12418068D01*
X5120600Y12380000D01*
X5039400Y12380000D01*
X5013964Y12418068D01*
X4798068Y12633964D01*
X4544200Y12803592D01*
X4262118Y12920435D01*
X3962662Y12980000D01*
X3657338Y12980000D01*
X3357882Y12920435D01*
X3075800Y12803592D01*
X2821932Y12633964D01*
X2606036Y12418068D01*
X2436408Y12164200D01*
X2319565Y11882118D01*
X2260000Y11582662D01*
X2260000Y11277338D01*
X2319565Y10977882D01*
X2436408Y10695800D01*
X2606036Y10441932D01*
X2821932Y10226036D01*
X3075800Y10056408D01*
X3357882Y9939565D01*
X3657338Y9880000D01*
X3962662Y9880000D01*
X4262118Y9939565D01*
X4544200Y10056408D01*
X4798068Y10226036D01*
X5013964Y10441932D01*
X5039400Y10480000D01*
X5120600Y10480000D01*
X5146036Y10441932D01*
X5361932Y10226036D01*
X5615800Y10056408D01*
X5897882Y9939565D01*
X6197338Y9880000D01*
X6502662Y9880000D01*
X6802118Y9939565D01*
X7084200Y10056408D01*
X7338068Y10226036D01*
X7553964Y10441932D01*
X7579400Y10480000D01*
X8843335Y10480000D01*
X8890000Y10475404D01*
X8936664Y10480000D01*
X8936665Y10480000D01*
X9076232Y10493746D01*
X9255308Y10548068D01*
X9420345Y10636282D01*
X9565001Y10754999D01*
X9683718Y10899655D01*
X9771932Y11064692D01*
X9826254Y11243768D01*
X9844596Y11430000D01*
X9840000Y11476665D01*
X9840000Y15280600D01*
X9878068Y15306036D01*
X9880000Y15307968D01*
X9880000Y15087338D01*
X9939565Y14787882D01*
X10056408Y14505800D01*
X10226036Y14251932D01*
X10441932Y14036036D01*
X10695800Y13866408D01*
X10977882Y13749565D01*
X11277338Y13690000D01*
X11582662Y13690000D01*
X11882118Y13749565D01*
X12164200Y13866408D01*
X12418068Y14036036D01*
X12633964Y14251932D01*
X12700000Y14350763D01*
X12766036Y14251932D01*
X12981932Y14036036D01*
X13020001Y14010599D01*
X13020000Y10370001D01*
X9752292Y10370001D01*
X9705635Y10374596D01*
X9658978Y10370001D01*
X9658970Y10370001D01*
X9535355Y10357826D01*
X9519402Y10356255D01*
X9465080Y10339776D01*
X9340327Y10301933D01*
X9175290Y10213719D01*
X9175288Y10213718D01*
X9175289Y10213718D01*
X9066880Y10124749D01*
X9066877Y10124746D01*
X9030634Y10095002D01*
X9000889Y10058758D01*
X7552082Y8609950D01*
X7338068Y8823964D01*
X7084200Y8993592D01*
X6802118Y9110435D01*
X6502662Y9170000D01*
X6197338Y9170000D01*
X5897882Y9110435D01*
X5615800Y8993592D01*
X5361932Y8823964D01*
X5146036Y8608068D01*
X5080000Y8509237D01*
X5013964Y8608068D01*
X4798068Y8823964D01*
X4544200Y8993592D01*
X4262118Y9110435D01*
X3962662Y9170000D01*
X3657338Y9170000D01*
X3357882Y9110435D01*
X3075800Y8993592D01*
X2821932Y8823964D01*
X2606036Y8608068D01*
X2436408Y8354200D01*
X2319565Y8072118D01*
X2260000Y7772662D01*
X2260000Y7467338D01*
X2319565Y7167882D01*
X2436408Y6885800D01*
X2606036Y6631932D01*
X2821932Y6416036D01*
X2860001Y6390600D01*
X2860000Y5039400D01*
X2821932Y5013964D01*
X2606036Y4798068D01*
X2436408Y4544200D01*
X2319565Y4262118D01*
X2260000Y3962662D01*
X2260000Y3657338D01*
X2319565Y3357882D01*
X2436408Y3075800D01*
X2606036Y2821932D01*
X2821932Y2606036D01*
X3075800Y2436408D01*
X3357882Y2319565D01*
X3657338Y2260000D01*
X3962662Y2260000D01*
X4262118Y2319565D01*
X4544200Y2436408D01*
X4798068Y2606036D01*
X5013964Y2821932D01*
X5183592Y3075800D01*
X5300435Y3357882D01*
X5360000Y3657338D01*
X5360000Y3962662D01*
X5300435Y4262118D01*
X5183592Y4544200D01*
X5013964Y4798068D01*
X4798068Y5013964D01*
X4760000Y5039400D01*
X4760000Y6390600D01*
X4798068Y6416036D01*
X5013964Y6631932D01*
X5080000Y6730763D01*
X5146036Y6631932D01*
X5361932Y6416036D01*
X5615800Y6246408D01*
X5897882Y6129565D01*
X6197338Y6070000D01*
X6502662Y6070000D01*
X6802118Y6129565D01*
X7084200Y6246408D01*
X7338068Y6416036D01*
X7553964Y6631932D01*
X7579400Y6670000D01*
X7858980Y6670000D01*
X7905634Y6665405D01*
X7952288Y6670000D01*
X7952299Y6670000D01*
X8091866Y6683746D01*
X8270942Y6738068D01*
X8435979Y6826282D01*
X8580635Y6944999D01*
X8610384Y6981248D01*
X10099138Y8470001D01*
X10133783Y8470001D01*
X10056408Y8354200D01*
X9939565Y8072118D01*
X9880000Y7772662D01*
X9880000Y7467338D01*
X9939565Y7167882D01*
X10056408Y6885800D01*
X10226036Y6631932D01*
X10441932Y6416036D01*
X10695800Y6246408D01*
X10977882Y6129565D01*
X11277338Y6070000D01*
X11582662Y6070000D01*
X11882118Y6129565D01*
X12164200Y6246408D01*
X12418068Y6416036D01*
X12633964Y6631932D01*
X12700000Y6730763D01*
X12766036Y6631932D01*
X12981932Y6416036D01*
X13235800Y6246408D01*
X13517882Y6129565D01*
X13817338Y6070000D01*
X14122662Y6070000D01*
X14422118Y6129565D01*
X14704200Y6246408D01*
X14958068Y6416036D01*
X15173964Y6631932D01*
X15240000Y6730763D01*
X15306036Y6631932D01*
X15521932Y6416036D01*
X15775800Y6246408D01*
X16057882Y6129565D01*
X16357338Y6070000D01*
X16662662Y6070000D01*
X16962118Y6129565D01*
X17244200Y6246408D01*
X17498068Y6416036D01*
X17713964Y6631932D01*
X17883592Y6885800D01*
X18000435Y7167882D01*
X18060000Y7467338D01*
X18060000Y7772662D01*
X18000435Y8072118D01*
X17883592Y8354200D01*
X17713964Y8608068D01*
X17498068Y8823964D01*
X17244200Y8993592D01*
X16962118Y9110435D01*
X16662662Y9170000D01*
X16357338Y9170000D01*
X16057882Y9110435D01*
X15775800Y8993592D01*
X15521932Y8823964D01*
X15306036Y8608068D01*
X15240000Y8509237D01*
X15173964Y8608068D01*
X14958068Y8823964D01*
X14788990Y8936937D01*
X14851932Y9054693D01*
X14906254Y9233769D01*
X14924596Y9420001D01*
X14920000Y9466666D01*
X14920000Y14010600D01*
X14958068Y14036036D01*
X15173964Y14251932D01*
X15240000Y14350763D01*
X15306036Y14251932D01*
X15521932Y14036036D01*
X15560001Y14010599D01*
X15560000Y10206665D01*
X15555404Y10160000D01*
X15573746Y9973768D01*
X15628068Y9794692D01*
X15716282Y9629655D01*
X15834999Y9484999D01*
X15979655Y9366282D01*
X16144692Y9278068D01*
X16323768Y9223746D01*
X16510000Y9205404D01*
X16556664Y9210000D01*
X18780500Y9210000D01*
X20640001Y7350498D01*
X20640000Y6309400D01*
X20601932Y6283964D01*
X20386036Y6068068D01*
X20216408Y5814200D01*
X20099565Y5532118D01*
X20040000Y5232662D01*
X20040000Y4927338D01*
X20099565Y4627882D01*
X20216408Y4345800D01*
X20386036Y4091932D01*
X20601932Y3876036D01*
X20855800Y3706408D01*
X21137882Y3589565D01*
X21437338Y3530000D01*
X21742662Y3530000D01*
X22042118Y3589565D01*
X22324200Y3706408D01*
X22578068Y3876036D01*
X22793964Y4091932D01*
X22963592Y4345800D01*
X23080435Y4627882D01*
X23140000Y4927338D01*
X23140000Y5232662D01*
X23080435Y5532118D01*
X22963592Y5814200D01*
X22793964Y6068068D01*
X22578068Y6283964D01*
X22540000Y6309400D01*
X22540000Y7697348D01*
X22544595Y7744003D01*
X22540000Y7790657D01*
X22540000Y7790667D01*
X22526254Y7930234D01*
X22471932Y8109310D01*
X22383718Y8274347D01*
X22265001Y8419003D01*
X22228757Y8448748D01*
X19878752Y10798752D01*
X19849003Y10835001D01*
X19704347Y10953718D01*
X19539310Y11041932D01*
X19360234Y11096254D01*
X19220667Y11110000D01*
X19220656Y11110000D01*
X19174002Y11114595D01*
X19127348Y11110000D01*
X17460000Y11110000D01*
X17460000Y14010600D01*
X17498068Y14036036D01*
X17713964Y14251932D01*
X17780000Y14350763D01*
X17846036Y14251932D01*
X18061932Y14036036D01*
X18315800Y13866408D01*
X18597882Y13749565D01*
X18897338Y13690000D01*
X19202662Y13690000D01*
X19502118Y13749565D01*
X19784200Y13866408D01*
X20038068Y14036036D01*
X20253964Y14251932D01*
X20423592Y14505800D01*
X20540435Y14787882D01*
X20600000Y15087338D01*
X20600000Y15392662D01*
X20540435Y15692118D01*
X20423592Y15974200D01*
X20253964Y16228068D01*
X20038068Y16443964D01*
X20000000Y16469400D01*
X20000000Y16550600D01*
X20038068Y16576036D01*
X20253964Y16791932D01*
X20423592Y17045800D01*
X20540435Y17327882D01*
X20600000Y17627338D01*
X20600000Y17932662D01*
X20540435Y18232118D01*
X20423592Y18514200D01*
X20253964Y18768068D01*
X20038068Y18983964D01*
X19784200Y19153592D01*
X19502118Y19270435D01*
X19202662Y19330000D01*
X18897338Y19330000D01*
X18597882Y19270435D01*
X18315800Y19153592D01*
X18061932Y18983964D01*
X17846036Y18768068D01*
X17676408Y18514200D01*
X17559565Y18232118D01*
X17500000Y17932662D01*
X17500000Y17627338D01*
X17559565Y17327882D01*
X17676408Y17045800D01*
X17846036Y16791932D01*
X18061932Y16576036D01*
X18100000Y16550600D01*
X18100001Y16469400D01*
X18061932Y16443964D01*
X17846036Y16228068D01*
X17780000Y16129237D01*
X17713964Y16228068D01*
X17498068Y16443964D01*
X17244200Y16613592D01*
X16962118Y16730435D01*
X16662662Y16790000D01*
X16357338Y16790000D01*
X16057882Y16730435D01*
X15775800Y16613592D01*
X15521932Y16443964D01*
X15306036Y16228068D01*
X15240000Y16129237D01*
X15173964Y16228068D01*
X14958068Y16443964D01*
X14920000Y16469400D01*
X14920000Y17820600D01*
X14958068Y17846036D01*
X15173964Y18061932D01*
X15343592Y18315800D01*
X15460435Y18597882D01*
X15520000Y18897338D01*
X15520000Y19202662D01*
X15460435Y19502118D01*
X15343592Y19784200D01*
X15266217Y19900001D01*
X20666497Y19900001D01*
X21910000Y18656497D01*
X21910001Y15410673D01*
X21910000Y15410666D01*
X21910000Y15199400D01*
X21871932Y15173964D01*
X21656036Y14958068D01*
X21486408Y14704200D01*
X21369565Y14422118D01*
X21310000Y14122662D01*
X21310000Y13817338D01*
X21369565Y13517882D01*
X21486408Y13235800D01*
X21656036Y12981932D01*
X21871932Y12766036D01*
X21970763Y12700000D01*
X21871932Y12633964D01*
X21656036Y12418068D01*
X21486408Y12164200D01*
X21369565Y11882118D01*
X21310000Y11582662D01*
X21310000Y11277338D01*
X21369565Y10977882D01*
X21486408Y10695800D01*
X21656036Y10441932D01*
X21871932Y10226036D01*
X22125800Y10056408D01*
X22407882Y9939565D01*
X22707338Y9880000D01*
X23012662Y9880000D01*
X23312118Y9939565D01*
X23594200Y10056408D01*
X23848068Y10226036D01*
X24063964Y10441932D01*
X24089400Y10480000D01*
X24170600Y10480000D01*
X24196036Y10441932D01*
X24411932Y10226036D01*
X24665800Y10056408D01*
X24947882Y9939565D01*
X25247338Y9880000D01*
X25552662Y9880000D01*
X25852118Y9939565D01*
X26134200Y10056408D01*
X26250002Y10133784D01*
X26250002Y9116824D01*
X26217882Y9110435D01*
X25935800Y8993592D01*
X25681932Y8823964D01*
X25466036Y8608068D01*
X25296408Y8354200D01*
X25179565Y8072118D01*
X25120000Y7772662D01*
X25120000Y7467338D01*
X25179565Y7167882D01*
X25296408Y6885800D01*
X25466036Y6631932D01*
X25681932Y6416036D01*
X25935800Y6246408D01*
X26217882Y6129565D01*
X26517338Y6070000D01*
X26822662Y6070000D01*
X27122118Y6129565D01*
X27404200Y6246408D01*
X27658068Y6416036D01*
X27873964Y6631932D01*
X28043592Y6885800D01*
X28160435Y7167882D01*
X28220000Y7467338D01*
X28220000Y7772662D01*
X28160435Y8072118D01*
X28149521Y8098466D01*
X28150001Y8103336D01*
X28150001Y8103344D01*
X28154596Y8150001D01*
X28150001Y8196658D01*
X28150001Y12247344D01*
X28154596Y12294001D01*
X28150001Y12340658D01*
X28150001Y12340666D01*
X28136255Y12480233D01*
X28081933Y12659309D01*
X27993719Y12824346D01*
X27875002Y12969002D01*
X27838753Y12998751D01*
X26228752Y14608752D01*
X26199003Y14645001D01*
X26054347Y14763718D01*
X25889310Y14851932D01*
X25710234Y14906254D01*
X25570667Y14920000D01*
X25570656Y14920000D01*
X25524002Y14924595D01*
X25477348Y14920000D01*
X24089400Y14920000D01*
X24063964Y14958068D01*
X23848068Y15173964D01*
X23810000Y15199400D01*
X23810000Y19003343D01*
X23814595Y19050000D01*
X23810000Y19096657D01*
X23810000Y19096665D01*
X23796254Y19236232D01*
X23741932Y19415308D01*
X23653718Y19580345D01*
X23628520Y19611049D01*
X23564748Y19688755D01*
X23564745Y19688758D01*
X23535001Y19725001D01*
X23498757Y19754746D01*
X22138502Y21115000D01*
X28735000Y21115000D01*
X28735001Y1293341D01*
X28735000Y1293331D01*
X28735001Y475000D01*
X475000Y475000D01*
X475000Y21115000D01*
X10625070Y21115000D01*
X10548069Y20970942D01*
%TD*%
M02*
