M48
; DRILL file {KiCad (5.1.6)-1} date 10/03/21 09:04:08
; FORMAT={-:-/ absolute / inch / decimal}
; #@! TF.CreationDate,2021-10-03T09:04:08-05:00
; #@! TF.GenerationSoftware,Kicad,Pcbnew,(5.1.6)-1
FMAT,2
INCH
T1C0.0315
T2C0.0394
%
G90
G05
T1
X2.05Y1.95
X1.7Y1.4
X2.25Y0.45
X2.25Y0.15
X1.05Y0.15
X1.15Y0.15
X1.25Y0.15
X1.35Y0.15
X1.45Y0.15
X1.55Y0.15
X1.65Y0.15
X1.75Y0.15
X0.25Y1.85
X0.25Y0.85
X0.35Y1.85
X0.35Y0.85
X0.45Y1.85
X0.45Y0.85
X0.55Y1.85
X0.55Y0.85
X0.65Y1.85
X0.65Y0.85
X0.75Y1.85
X0.75Y0.85
X0.85Y1.85
X0.85Y0.85
X0.95Y1.85
X0.95Y0.85
X1.05Y1.85
X1.05Y0.85
X1.15Y1.85
X1.15Y0.85
X1.25Y1.85
X1.25Y0.85
X1.35Y1.85
X1.35Y0.85
X1.45Y1.85
X1.45Y0.85
X1.55Y1.85
X1.55Y0.85
X1.65Y1.85
X1.65Y0.85
X1.75Y1.85
X1.75Y0.85
X1.85Y1.85
X1.85Y0.85
X1.95Y1.85
X1.95Y0.85
X2.05Y1.85
X2.05Y0.85
X1.95Y0.45
X2.35Y3.45
X2.45Y1.0
X0.15Y3.05
X1.05Y0.25
X0.15Y2.25
X1.95Y1.55
X1.95Y1.2
X2.55Y1.55
X2.55Y1.2
X1.95Y0.55
X2.05Y3.45
X1.25Y3.55
X1.35Y3.55
X1.45Y3.55
X1.55Y3.55
X1.05Y2.55
X1.05Y3.25
X1.15Y3.25
X1.65Y3.35
X1.05Y3.05
X2.25Y3.25
X2.55Y1.0
X0.55Y1.65
X2.15Y0.65
X2.15Y0.55
X2.15Y0.45
X2.15Y0.35
X2.15Y0.25
X2.15Y0.15
X0.65Y0.35
X1.25Y2.75
X0.45Y2.25
X0.45Y2.15
X0.35Y3.55
X0.45Y3.55
X0.55Y3.55
X0.65Y3.55
X1.25Y2.3
X0.25Y1.75
X1.35Y0.55
X2.25Y2.05
X2.35Y2.05
X1.05Y2.95
X1.05Y2.45
X1.15Y2.95
X1.15Y2.45
X1.25Y2.95
X1.25Y2.45
X1.35Y2.95
X1.35Y2.45
X1.45Y2.95
X1.45Y2.45
X1.55Y2.95
X1.55Y2.45
X1.65Y2.95
X1.65Y2.45
X1.75Y2.95
X1.75Y2.45
X0.15Y3.25
X0.25Y3.25
X2.45Y3.25
X2.45Y3.15
X2.45Y3.05
X0.75Y0.35
X2.25Y0.85
X1.25Y0.45
X1.95Y0.25
X0.75Y2.75
X0.55Y0.35
X1.2Y1.65
X0.15Y2.95
X0.15Y2.45
X0.25Y2.95
X0.25Y2.45
X0.35Y2.95
X0.35Y2.45
X0.45Y2.95
X0.45Y2.45
X0.55Y2.95
X0.55Y2.45
X0.65Y2.95
X0.65Y2.45
X0.75Y2.95
X0.75Y2.45
X0.85Y2.95
X0.85Y2.45
X0.15Y2.05
X2.15Y3.55
X2.25Y3.55
X2.35Y3.55
X0.25Y1.05
X2.05Y3.35
X0.15Y2.55
X1.85Y3.55
X1.95Y3.55
X2.05Y3.55
X0.15Y2.15
X0.95Y3.05
T2
G00X2.1Y2.4106
M15
G01X2.1Y2.4894
M16
G05
G00X2.2575Y2.635
M15
G01X2.1787Y2.635
M16
G05
G00X2.3362Y2.4106
M15
G01X2.3362Y2.4894
M16
G05
T0
M30
