%TF.GenerationSoftware,KiCad,Pcbnew,(5.1.6)-1*%
%TF.CreationDate,2021-10-03T09:04:03-05:00*%
%TF.ProjectId,_vMachine,5f764d61-6368-4696-9e65-2e6b69636164,rev?*%
%TF.SameCoordinates,Original*%
%TF.FileFunction,Copper,L2,Bot*%
%TF.FilePolarity,Positive*%
%FSLAX46Y46*%
G04 Gerber Fmt 4.6, Leading zero omitted, Abs format (unit mm)*
G04 Created by KiCad (PCBNEW (5.1.6)-1) date 2021-10-03 09:04:03*
%MOMM*%
%LPD*%
G01*
G04 APERTURE LIST*
%TA.AperFunction,ComponentPad*%
%ADD10C,2.200000*%
%TD*%
%TA.AperFunction,ComponentPad*%
%ADD11C,2.000000*%
%TD*%
%TA.AperFunction,ComponentPad*%
%ADD12R,3.500000X3.500000*%
%TD*%
%TA.AperFunction,Conductor*%
%ADD13C,2.000000*%
%TD*%
%TA.AperFunction,Conductor*%
%ADD14C,0.300000*%
%TD*%
G04 APERTURE END LIST*
D10*
%TO.P,C1,1*%
%TO.N,Net-(C1-Pad1)*%
X11430000Y54610000D03*
%TO.P,C1,2*%
%TO.N,Net-(C1-Pad2)*%
X11430000Y57150000D03*
%TD*%
%TO.P,C2,1*%
%TO.N,Net-(C2-Pad1)*%
X3810000Y82550000D03*
%TO.P,C2,2*%
%TO.N,Net-(C1-Pad2)*%
X6350000Y82550000D03*
%TD*%
%TO.P,C3,2*%
%TO.N,Net-(C1-Pad2)*%
X29210000Y82550000D03*
%TO.P,C3,1*%
%TO.N,Net-(C2-Pad1)*%
X26670000Y82550000D03*
%TD*%
%TO.P,C4,1*%
%TO.N,Net-(C4-Pad1)*%
X59690000Y52070000D03*
%TO.P,C4,2*%
%TO.N,Net-(C4-Pad2)*%
X57150000Y52070000D03*
%TD*%
%TO.P,J2,1*%
%TO.N,Net-(J2-Pad1)*%
X3810000Y52070000D03*
%TD*%
%TO.P,J3,1*%
%TO.N,Net-(C1-Pad1)*%
X3810000Y54610000D03*
%TD*%
%TO.P,J4,1*%
%TO.N,Net-(C1-Pad2)*%
X3810000Y57150000D03*
%TD*%
%TO.P,J5,1*%
%TO.N,Net-(J5-Pad1)*%
X19050000Y8890000D03*
%TD*%
%TO.P,J6,1*%
%TO.N,Net-(C1-Pad1)*%
X16510000Y8890000D03*
%TD*%
%TO.P,J7,1*%
%TO.N,Net-(C1-Pad2)*%
X13970000Y8890000D03*
%TD*%
%TO.P,J8,1*%
%TO.N,Net-(J8-Pad1)*%
X64770000Y25400000D03*
%TD*%
%TO.P,J9,1*%
%TO.N,Net-(C1-Pad1)*%
X62230000Y25400000D03*
%TD*%
%TO.P,J10,4*%
%TO.N,Net-(J10-Pad4)*%
X16510000Y90170000D03*
%TO.P,J10,3*%
%TO.N,Net-(J10-Pad3)*%
X13970000Y90170000D03*
%TO.P,J10,2*%
%TO.N,Net-(J10-Pad2)*%
X11430000Y90170000D03*
%TO.P,J10,1*%
%TO.N,Net-(J10-Pad1)*%
X8890000Y90170000D03*
%TD*%
%TO.P,J11,1*%
%TO.N,Net-(J11-Pad1)*%
X31750000Y90170000D03*
%TO.P,J11,2*%
%TO.N,Net-(J11-Pad2)*%
X34290000Y90170000D03*
%TO.P,J11,3*%
%TO.N,Net-(J11-Pad3)*%
X36830000Y90170000D03*
%TO.P,J11,4*%
%TO.N,Net-(J11-Pad4)*%
X39370000Y90170000D03*
%TD*%
%TO.P,J12,1*%
%TO.N,Net-(C1-Pad1)*%
X26670000Y3810000D03*
%TO.P,J12,2*%
%TO.N,Net-(J12-Pad2)*%
X29210000Y3810000D03*
%TO.P,J12,3*%
%TO.N,Net-(J12-Pad3)*%
X31750000Y3810000D03*
%TO.P,J12,4*%
%TO.N,Net-(J12-Pad4)*%
X34290000Y3810000D03*
%TO.P,J12,5*%
%TO.N,Net-(J12-Pad5)*%
X36830000Y3810000D03*
%TO.P,J12,6*%
%TO.N,Net-(J12-Pad6)*%
X39370000Y3810000D03*
%TO.P,J12,7*%
%TO.N,Net-(J12-Pad7)*%
X41910000Y3810000D03*
%TO.P,J12,8*%
%TO.N,Net-(C1-Pad2)*%
X44450000Y3810000D03*
%TD*%
%TO.P,J13,1*%
%TO.N,Net-(J13-Pad1)*%
X46990000Y90170000D03*
%TO.P,J13,2*%
%TO.N,Net-(J13-Pad2)*%
X49530000Y90170000D03*
%TO.P,J13,3*%
%TO.N,Net-(C4-Pad1)*%
X52070000Y90170000D03*
%TD*%
%TO.P,J14,3*%
%TO.N,Net-(C4-Pad1)*%
X59690000Y90170000D03*
%TO.P,J14,2*%
%TO.N,Net-(J14-Pad2)*%
X57150000Y90170000D03*
%TO.P,J14,1*%
%TO.N,Net-(C1-Pad2)*%
X54610000Y90170000D03*
%TD*%
%TO.P,M1,1*%
%TO.N,Net-(C1-Pad2)*%
X49530000Y39370000D03*
%TO.P,M1,2*%
X64770000Y39370000D03*
%TO.P,M1,3*%
%TO.N,Net-(J8-Pad1)*%
X64770000Y30480000D03*
%TO.P,M1,4*%
%TO.N,Net-(C2-Pad1)*%
X49530000Y30480000D03*
%TD*%
%TO.P,M2,1*%
%TO.N,Net-(M2-Pad1)*%
X21590000Y62230000D03*
%TO.P,M2,2*%
%TO.N,Net-(M2-Pad2)*%
X19050000Y62230000D03*
%TO.P,M2,3*%
%TO.N,Net-(M2-Pad3)*%
X16510000Y62230000D03*
%TO.P,M2,4*%
X13970000Y62230000D03*
%TO.P,M2,5*%
%TO.N,Net-(C1-Pad2)*%
X11430000Y62230000D03*
%TO.P,M2,6*%
%TO.N,Net-(C4-Pad1)*%
X8890000Y62230000D03*
%TO.P,M2,7*%
X6350000Y62230000D03*
%TO.P,M2,8*%
%TO.N,Net-(M2-Pad8)*%
X3810000Y62230000D03*
%TO.P,M2,16*%
%TO.N,Net-(C1-Pad2)*%
X21590000Y74930000D03*
%TO.P,M2,15*%
%TO.N,Net-(C4-Pad1)*%
X19050000Y74930000D03*
%TO.P,M2,14*%
%TO.N,Net-(J10-Pad4)*%
X16510000Y74930000D03*
%TO.P,M2,13*%
%TO.N,Net-(J10-Pad3)*%
X13970000Y74930000D03*
%TO.P,M2,12*%
%TO.N,Net-(J10-Pad2)*%
X11430000Y74930000D03*
%TO.P,M2,11*%
%TO.N,Net-(J10-Pad1)*%
X8890000Y74930000D03*
%TO.P,M2,10*%
%TO.N,Net-(C1-Pad2)*%
X6350000Y74930000D03*
%TO.P,M2,9*%
%TO.N,Net-(C2-Pad1)*%
X3810000Y74930000D03*
%TD*%
%TO.P,M3,9*%
%TO.N,Net-(C2-Pad1)*%
X26670000Y74930000D03*
%TO.P,M3,10*%
%TO.N,Net-(C1-Pad2)*%
X29210000Y74930000D03*
%TO.P,M3,11*%
%TO.N,Net-(J11-Pad1)*%
X31750000Y74930000D03*
%TO.P,M3,12*%
%TO.N,Net-(J11-Pad2)*%
X34290000Y74930000D03*
%TO.P,M3,13*%
%TO.N,Net-(J11-Pad3)*%
X36830000Y74930000D03*
%TO.P,M3,14*%
%TO.N,Net-(J11-Pad4)*%
X39370000Y74930000D03*
%TO.P,M3,15*%
%TO.N,Net-(C4-Pad1)*%
X41910000Y74930000D03*
%TO.P,M3,16*%
%TO.N,Net-(C1-Pad2)*%
X44450000Y74930000D03*
%TO.P,M3,8*%
%TO.N,Net-(M2-Pad8)*%
X26670000Y62230000D03*
%TO.P,M3,7*%
%TO.N,Net-(C4-Pad1)*%
X29210000Y62230000D03*
%TO.P,M3,6*%
X31750000Y62230000D03*
%TO.P,M3,5*%
%TO.N,Net-(C1-Pad2)*%
X34290000Y62230000D03*
%TO.P,M3,4*%
%TO.N,Net-(M3-Pad3)*%
X36830000Y62230000D03*
%TO.P,M3,3*%
X39370000Y62230000D03*
%TO.P,M3,2*%
%TO.N,Net-(M3-Pad2)*%
X41910000Y62230000D03*
%TO.P,M3,1*%
%TO.N,Net-(M3-Pad1)*%
X44450000Y62230000D03*
%TD*%
%TO.P,M4,1*%
%TO.N,Net-(C1-Pad2)*%
X54610000Y16510000D03*
%TO.P,M4,2*%
%TO.N,Net-(J12-Pad4)*%
X54610000Y13970000D03*
%TO.P,M4,3*%
%TO.N,Net-(J12-Pad3)*%
X54610000Y11430000D03*
%TO.P,M4,4*%
%TO.N,Net-(J12-Pad7)*%
X54610000Y8890000D03*
%TO.P,M4,5*%
%TO.N,Net-(M4-Pad5)*%
X54610000Y6350000D03*
%TO.P,M4,6*%
%TO.N,Net-(C4-Pad1)*%
X54610000Y3810000D03*
%TD*%
%TO.P,R1,1*%
%TO.N,Net-(J12-Pad4)*%
X57150000Y11430000D03*
%TO.P,R1,2*%
%TO.N,Net-(C4-Pad1)*%
X57150000Y3810000D03*
%TD*%
%TO.P,SW1,1*%
%TO.N,Net-(J1-Pad1)*%
X62230000Y77470000D03*
%TO.P,SW1,2*%
X62230000Y80010000D03*
%TO.P,SW1,3*%
%TO.N,Net-(C2-Pad1)*%
X62230000Y82550000D03*
%TD*%
D11*
%TO.P,U1,1*%
%TO.N,Net-(C1-Pad1)*%
X6350000Y46990000D03*
%TO.P,U1,2*%
%TO.N,Net-(U1-Pad2)*%
X8890000Y46990000D03*
%TO.P,U1,3*%
%TO.N,Net-(U1-Pad3)*%
X11430000Y46990000D03*
%TO.P,U1,4*%
%TO.N,Net-(U1-Pad4)*%
X13970000Y46990000D03*
%TO.P,U1,5*%
%TO.N,Net-(M2-Pad2)*%
X16510000Y46990000D03*
%TO.P,U1,6*%
%TO.N,Net-(C1-Pad2)*%
X19050000Y46990000D03*
%TO.P,U1,7*%
%TO.N,Net-(U1-Pad7)*%
X21590000Y46990000D03*
%TO.P,U1,8*%
%TO.N,Net-(M2-Pad1)*%
X24130000Y46990000D03*
%TO.P,U1,9*%
%TO.N,Net-(M2-Pad8)*%
X26670000Y46990000D03*
%TO.P,U1,10*%
%TO.N,Net-(M3-Pad2)*%
X29210000Y46990000D03*
%TO.P,U1,11*%
%TO.N,Net-(M3-Pad1)*%
X31750000Y46990000D03*
%TO.P,U1,12*%
%TO.N,Net-(J2-Pad1)*%
X34290000Y46990000D03*
%TO.P,U1,13*%
%TO.N,Net-(C1-Pad2)*%
X36830000Y46990000D03*
%TO.P,U1,14*%
X39370000Y46990000D03*
%TO.P,U1,15*%
X41910000Y46990000D03*
%TO.P,U1,16*%
%TO.N,Net-(J13-Pad2)*%
X44450000Y46990000D03*
%TO.P,U1,17*%
%TO.N,Net-(J14-Pad2)*%
X46990000Y46990000D03*
%TO.P,U1,18*%
%TO.N,Net-(C4-Pad2)*%
X49530000Y46990000D03*
%TO.P,U1,19*%
%TO.N,Net-(C4-Pad1)*%
X52070000Y46990000D03*
%TO.P,U1,20*%
%TO.N,Net-(C1-Pad2)*%
X52070000Y21590000D03*
%TO.P,U1,21*%
%TO.N,Net-(J12-Pad7)*%
X49530000Y21590000D03*
%TO.P,U1,22*%
%TO.N,Net-(J12-Pad6)*%
X46990000Y21590000D03*
%TO.P,U1,23*%
%TO.N,Net-(U1-Pad23)*%
X44450000Y21590000D03*
%TO.P,U1,24*%
%TO.N,Net-(U1-Pad24)*%
X41910000Y21590000D03*
%TO.P,U1,25*%
%TO.N,Net-(J12-Pad5)*%
X39370000Y21590000D03*
%TO.P,U1,26*%
%TO.N,Net-(C1-Pad2)*%
X36830000Y21590000D03*
%TO.P,U1,27*%
%TO.N,Net-(J12-Pad4)*%
X34290000Y21590000D03*
%TO.P,U1,28*%
%TO.N,Net-(J12-Pad3)*%
X31750000Y21590000D03*
%TO.P,U1,29*%
%TO.N,Net-(J12-Pad2)*%
X29210000Y21590000D03*
%TO.P,U1,30*%
%TO.N,Net-(C1-Pad2)*%
X26670000Y21590000D03*
%TO.P,U1,31*%
X24130000Y21590000D03*
%TO.P,U1,32*%
%TO.N,Net-(M4-Pad5)*%
X21590000Y21590000D03*
%TO.P,U1,33*%
%TO.N,Net-(U1-Pad33)*%
X19050000Y21590000D03*
%TO.P,U1,34*%
%TO.N,Net-(U1-Pad34)*%
X16510000Y21590000D03*
%TO.P,U1,35*%
%TO.N,Net-(J5-Pad1)*%
X13970000Y21590000D03*
%TO.P,U1,36*%
%TO.N,Net-(U1-Pad36)*%
X11430000Y21590000D03*
%TO.P,U1,37*%
%TO.N,Net-(U1-Pad37)*%
X8890000Y21590000D03*
%TO.P,U1,38*%
%TO.N,Net-(U1-Pad38)*%
X6350000Y21590000D03*
%TD*%
D10*
%TO.P,V1,1*%
%TO.N,Net-(C4-Pad1)*%
X19050000Y69850000D03*
%TD*%
%TO.P,V2,1*%
%TO.N,Net-(C2-Pad1)*%
X3810000Y77470000D03*
%TD*%
%TO.P,V3,1*%
%TO.N,Net-(M2-Pad8)*%
X3810000Y64770000D03*
%TD*%
%TO.P,V4,1*%
%TO.N,Net-(C2-Pad1)*%
X24130000Y77470000D03*
%TD*%
%TO.P,V5,1*%
%TO.N,Net-(C4-Pad1)*%
X31750000Y69850000D03*
%TD*%
%TO.P,V8,1*%
%TO.N,Net-(M2-Pad8)*%
X26670000Y64770000D03*
%TD*%
%TO.P,V7,1*%
%TO.N,Net-(M4-Pad5)*%
X26670000Y6350000D03*
%TD*%
%TO.P,V9,1*%
%TO.N,Net-(M4-Pad5)*%
X49530000Y6350000D03*
%TD*%
%TO.P,V10,1*%
%TO.N,Net-(J12-Pad3)*%
X31750000Y11430000D03*
%TD*%
%TO.P,V11,1*%
%TO.N,Net-(J12-Pad3)*%
X49530000Y11430000D03*
%TD*%
%TO.P,V12,1*%
%TO.N,Net-(J12-Pad4)*%
X34290000Y13970000D03*
%TD*%
%TO.P,V13,1*%
%TO.N,Net-(J12-Pad4)*%
X49530000Y13970000D03*
%TD*%
%TO.P,V17,1*%
%TO.N,Net-(C1-Pad1)*%
X6350000Y44450000D03*
%TD*%
%TO.P,V18,1*%
%TO.N,Net-(C1-Pad1)*%
X6350000Y26670000D03*
%TD*%
D12*
%TO.P,J1,1*%
%TO.N,Net-(J1-Pad1)*%
X53340000Y62230000D03*
%TO.P,J1,2*%
%TO.N,Net-(C1-Pad2)*%
%TA.AperFunction,ComponentPad*%
G36*
G01*
X60840000Y63230000D02*
X60840000Y61230000D01*
G75*
G02*
X60090000Y60480000I-750000J0D01*
G01*
X58590000Y60480000D01*
G75*
G02*
X57840000Y61230000I0J750000D01*
G01*
X57840000Y63230000D01*
G75*
G02*
X58590000Y63980000I750000J0D01*
G01*
X60090000Y63980000D01*
G75*
G02*
X60840000Y63230000I0J-750000D01*
G01*
G37*
%TD.AperFunction*%
%TO.P,J1,3*%
%TO.N,N/C*%
%TA.AperFunction,ComponentPad*%
G36*
G01*
X58090000Y67805000D02*
X58090000Y66055000D01*
G75*
G02*
X57215000Y65180000I-875000J0D01*
G01*
X55465000Y65180000D01*
G75*
G02*
X54590000Y66055000I0J875000D01*
G01*
X54590000Y67805000D01*
G75*
G02*
X55465000Y68680000I875000J0D01*
G01*
X57215000Y68680000D01*
G75*
G02*
X58090000Y67805000I0J-875000D01*
G01*
G37*
%TD.AperFunction*%
%TD*%
D10*
%TO.P,V19,1*%
%TO.N,Net-(C2-Pad1)*%
X26670000Y77470000D03*
%TD*%
%TO.P,V20,1*%
%TO.N,Net-(C2-Pad1)*%
X57150000Y82550000D03*
%TD*%
%TO.P,V6,1*%
%TO.N,Net-(C4-Pad1)*%
X52070000Y87630000D03*
%TD*%
%TO.P,V14,1*%
%TO.N,Net-(C4-Pad1)*%
X59690000Y87630000D03*
%TD*%
%TO.P,V15,1*%
%TO.N,Net-(C4-Pad1)*%
X31750000Y58420000D03*
%TD*%
%TO.P,V16,1*%
%TO.N,Net-(C4-Pad1)*%
X43180000Y35560000D03*
%TD*%
%TO.P,V21,1*%
%TO.N,Net-(C4-Pad1)*%
X52070000Y49530000D03*
%TD*%
%TO.P,V22,1*%
%TO.N,Net-(C4-Pad1)*%
X57150000Y21590000D03*
%TD*%
%TO.P,V23,1*%
%TO.N,Net-(C4-Pad1)*%
X41910000Y85090000D03*
%TD*%
%TO.P,V24,1*%
%TO.N,Net-(C4-Pad1)*%
X52070000Y85090000D03*
%TD*%
%TO.P,V25,1*%
%TO.N,Net-(J2-Pad1)*%
X13970000Y41910000D03*
%TD*%
%TO.P,V26,1*%
%TO.N,Net-(J2-Pad1)*%
X30480000Y41910000D03*
%TD*%
D13*
%TO.N,Net-(C1-Pad1)*%
X16510000Y8890000D02*
X16510000Y6350000D01*
X16510000Y6350000D02*
X21590000Y6350000D01*
X24130000Y3810000D02*
X26670000Y3810000D01*
X21590000Y6350000D02*
X24130000Y3810000D01*
X6350000Y54610000D02*
X3810000Y54610000D01*
X6350000Y54610000D02*
X6350000Y46990000D01*
X11430000Y54610000D02*
X6350000Y54610000D01*
X6350000Y46990000D02*
X6350000Y44450000D01*
X60960000Y26670000D02*
X62230000Y25400000D01*
X6350000Y26670000D02*
X60960000Y26670000D01*
X3810000Y24130000D02*
X3810000Y20320000D01*
X6350000Y26670000D02*
X3810000Y24130000D01*
X11430000Y12700000D02*
X15240000Y12700000D01*
X16510000Y11430000D02*
X16510000Y8890000D01*
X3810000Y20320000D02*
X11430000Y12700000D01*
X15240000Y12700000D02*
X16510000Y11430000D01*
%TO.N,Net-(C2-Pad1)*%
X26670000Y77470000D02*
X24130000Y77470000D01*
X62230000Y82550000D02*
X57150000Y82550000D01*
X62230000Y82550000D02*
X64770000Y82550000D01*
X64770000Y45720000D02*
X49530000Y30480000D01*
X64770000Y82550000D02*
X64770000Y45720000D01*
X3810000Y74930000D02*
X3810000Y82550000D01*
X26670000Y74930000D02*
X26670000Y82550000D01*
%TO.N,Net-(C4-Pad1)*%
X29210000Y62230000D02*
X31750000Y62230000D01*
X6350000Y62230000D02*
X8890000Y62230000D01*
X31750000Y62230000D02*
X31750000Y69850000D01*
X31750000Y69850000D02*
X41910000Y69850000D01*
X41910000Y69850000D02*
X41910000Y74930000D01*
X19050000Y69850000D02*
X19050000Y74930000D01*
X19050000Y69850000D02*
X8890000Y69850000D01*
X8890000Y69850000D02*
X8890000Y62230000D01*
X54610000Y3810000D02*
X57150000Y3810000D01*
X52070000Y46990000D02*
X52070000Y49530000D01*
X52070000Y49530000D02*
X59690000Y49530000D01*
X59690000Y49530000D02*
X59690000Y52070000D01*
X31750000Y62230000D02*
X31750000Y58420000D01*
X57150000Y3810000D02*
X59690000Y6350000D01*
X59690000Y6350000D02*
X59690000Y19050000D01*
X59690000Y19050000D02*
X57150000Y21590000D01*
X41910000Y74930000D02*
X41910000Y81280000D01*
X41910000Y81280000D02*
X41910000Y85090000D01*
X52070000Y85090000D02*
X52070000Y90170000D01*
X59690000Y90170000D02*
X59690000Y87630000D01*
X52070000Y46990000D02*
X52070000Y44450000D01*
X52070000Y44450000D02*
X50800000Y43180000D01*
X50800000Y43180000D02*
X45720000Y43180000D01*
X45720000Y43180000D02*
X43180000Y40640000D01*
X43180000Y40640000D02*
X43180000Y35560000D01*
%TO.N,Net-(C4-Pad2)*%
X49530000Y46990000D02*
X49530000Y52070000D01*
X49530000Y52070000D02*
X57150000Y52070000D01*
%TO.N,Net-(J1-Pad1)*%
X62230000Y80010000D02*
X62230000Y77470000D01*
X62230000Y77470000D02*
X55880000Y77470000D01*
X55880000Y77470000D02*
X52070000Y73660000D01*
X52070000Y63500000D02*
X53340000Y62230000D01*
X52070000Y73660000D02*
X52070000Y63500000D01*
%TO.N,Net-(J2-Pad1)*%
X34290000Y46990000D02*
X34290000Y45720000D01*
X34290000Y45720000D02*
X30480000Y41910000D01*
X5485998Y41910000D02*
X3810000Y43585998D01*
X3810000Y43585998D02*
X3810000Y52070000D01*
X5485998Y41910000D02*
X13970000Y41910000D01*
%TO.N,Net-(J5-Pad1)*%
X19050000Y12001283D02*
X19050000Y8890000D01*
X13970000Y17081283D02*
X19050000Y12001283D01*
X13970000Y21590000D02*
X13970000Y17081283D01*
%TO.N,Net-(J8-Pad1)*%
X64770000Y25400000D02*
X64770000Y30480000D01*
%TO.N,Net-(J10-Pad4)*%
X16510000Y90170000D02*
X16510000Y74930000D01*
%TO.N,Net-(J10-Pad3)*%
X13970000Y90170000D02*
X13970000Y74930000D01*
%TO.N,Net-(J10-Pad2)*%
X11430000Y90170000D02*
X11430000Y74930000D01*
%TO.N,Net-(J10-Pad1)*%
X8890000Y90170000D02*
X8890000Y74930000D01*
%TO.N,Net-(J11-Pad1)*%
X31750000Y90170000D02*
X31750000Y74930000D01*
%TO.N,Net-(J11-Pad2)*%
X34290000Y90170000D02*
X34290000Y74930000D01*
%TO.N,Net-(J11-Pad3)*%
X36830000Y90170000D02*
X36830000Y74930000D01*
%TO.N,Net-(J11-Pad4)*%
X39370000Y90170000D02*
X39370000Y74930000D01*
%TO.N,Net-(J12-Pad2)*%
X29210000Y21590000D02*
X29210000Y3810000D01*
%TO.N,Net-(J12-Pad3)*%
X31750000Y21590000D02*
X31750000Y3810000D01*
X54610000Y11430000D02*
X49530000Y11430000D01*
%TO.N,Net-(J12-Pad4)*%
X34290000Y21590000D02*
X34290000Y3810000D01*
X54610000Y13970000D02*
X49530000Y13970000D01*
X54610000Y13970000D02*
X57150000Y13970000D01*
X57150000Y13970000D02*
X57150000Y11430000D01*
%TO.N,Net-(J12-Pad5)*%
X39370000Y20175787D02*
X36974213Y17780000D01*
X39370000Y21590000D02*
X39370000Y20175787D01*
X36830000Y15240000D02*
X36830000Y3810000D01*
X36974213Y15384213D02*
X36830000Y15240000D01*
X36974213Y17780000D02*
X36974213Y15384213D01*
%TO.N,Net-(J12-Pad6)*%
X46990000Y20175787D02*
X45864213Y19050000D01*
X46990000Y21590000D02*
X46990000Y20175787D01*
X45864213Y19050000D02*
X41910000Y19050000D01*
X39370000Y16510000D02*
X39370000Y3810000D01*
X41910000Y19050000D02*
X39370000Y16510000D01*
%TO.N,Net-(J12-Pad7)*%
X41910000Y15240000D02*
X43180000Y16510000D01*
X43180000Y16510000D02*
X46990000Y16510000D01*
X49530000Y19050000D02*
X49530000Y21590000D01*
X46990000Y16510000D02*
X49530000Y19050000D01*
X54610000Y8890000D02*
X41910000Y8890000D01*
X41910000Y3810000D02*
X41910000Y8890000D01*
X41910000Y8890000D02*
X41910000Y15240000D01*
%TO.N,Net-(J13-Pad2)*%
X46750001Y55640001D02*
X46750001Y82310001D01*
X44450000Y53340000D02*
X46750001Y55640001D01*
X44450000Y46990000D02*
X44450000Y53340000D01*
X46750001Y82310001D02*
X49530000Y85090000D01*
X49530000Y85090000D02*
X49530000Y90170000D01*
%TO.N,Net-(J14-Pad2)*%
X46990000Y46990000D02*
X46990000Y52768718D01*
X54610000Y86360000D02*
X57150000Y88900000D01*
X57150000Y88900000D02*
X57150000Y90170000D01*
X54610000Y84225998D02*
X54610000Y86360000D01*
X54610000Y84225998D02*
X52934002Y82550000D01*
X48950011Y54728729D02*
X46990000Y52768718D01*
X50165000Y82550000D02*
X48950011Y81335011D01*
X48950011Y81335011D02*
X48950011Y54728729D01*
X52934002Y82550000D02*
X50165000Y82550000D01*
%TO.N,Net-(M2-Pad1)*%
X24130000Y46990000D02*
X24130000Y52070000D01*
X24130000Y52070000D02*
X21590000Y54610000D01*
X21590000Y54610000D02*
X21590000Y62230000D01*
%TO.N,Net-(M2-Pad2)*%
X19050000Y62230000D02*
X19050000Y54610000D01*
X19050000Y54610000D02*
X16510000Y52070000D01*
X16510000Y52070000D02*
X16510000Y46990000D01*
%TO.N,Net-(M2-Pad3)*%
X13970000Y62230000D02*
X16510000Y62230000D01*
%TO.N,Net-(M2-Pad8)*%
X26670000Y46990000D02*
X26670000Y64770000D01*
X3810000Y64770000D02*
X3810000Y62230000D01*
%TO.N,Net-(M3-Pad3)*%
X36830000Y62230000D02*
X39370000Y62230000D01*
%TO.N,Net-(M3-Pad2)*%
X29210000Y49530000D02*
X29210000Y46990000D01*
X39370000Y59690000D02*
X29210000Y49530000D01*
X41910000Y62230000D02*
X41910000Y59690000D01*
X41910000Y59690000D02*
X39370000Y59690000D01*
%TO.N,Net-(M3-Pad1)*%
X31750000Y48404213D02*
X40495787Y57150000D01*
X31750000Y46990000D02*
X31750000Y48404213D01*
X40495787Y57150000D02*
X44450000Y57150000D01*
X44450000Y57150000D02*
X44450000Y62230000D01*
%TO.N,Net-(M4-Pad5)*%
X21590000Y20175787D02*
X22715787Y19050000D01*
X21590000Y21590000D02*
X21590000Y20175787D01*
X22715787Y19050000D02*
X26670000Y19050000D01*
X26670000Y19050000D02*
X26670000Y8890000D01*
X26670000Y8890000D02*
X26670000Y6350000D01*
X54610000Y6350000D02*
X49530000Y6350000D01*
%TD*%
D14*
%TO.N,Net-(C1-Pad2)*%
G36*
X68430000Y150000D02*
G01*
X150000Y150000D01*
X150000Y24130000D01*
X2352986Y24130000D01*
X2360000Y24058785D01*
X2360001Y20391224D01*
X2352986Y20320000D01*
X2360001Y20248775D01*
X2380564Y20040000D01*
X2380982Y20035751D01*
X2463894Y19762426D01*
X2598536Y19510527D01*
X2734332Y19345059D01*
X2734336Y19345055D01*
X2779736Y19289735D01*
X2835056Y19244335D01*
X10354335Y11725056D01*
X10399735Y11669735D01*
X10455055Y11624335D01*
X10455058Y11624332D01*
X10505833Y11582662D01*
X10620526Y11488536D01*
X10872424Y11353894D01*
X11145750Y11270981D01*
X11358775Y11250000D01*
X11358784Y11250000D01*
X11429999Y11242986D01*
X11501214Y11250000D01*
X14639391Y11250000D01*
X15060000Y10829390D01*
X15060001Y9439738D01*
X15019565Y9342118D01*
X14960000Y9042662D01*
X14960000Y8737338D01*
X15019565Y8437882D01*
X15060000Y8340263D01*
X15060001Y6421235D01*
X15052985Y6350000D01*
X15080981Y6065750D01*
X15163894Y5792424D01*
X15298536Y5540526D01*
X15479735Y5319735D01*
X15700526Y5138536D01*
X15952424Y5003894D01*
X16225750Y4920981D01*
X16438775Y4900000D01*
X16510000Y4892985D01*
X16581225Y4900000D01*
X20989391Y4900000D01*
X23054334Y2835056D01*
X23099735Y2779735D01*
X23155055Y2734335D01*
X23155058Y2734332D01*
X23274092Y2636644D01*
X23320526Y2598536D01*
X23572424Y2463894D01*
X23845750Y2380981D01*
X24058775Y2360000D01*
X24058784Y2360000D01*
X24129999Y2352986D01*
X24201214Y2360000D01*
X26120264Y2360000D01*
X26217882Y2319565D01*
X26517338Y2260000D01*
X26822662Y2260000D01*
X27122118Y2319565D01*
X27404200Y2436408D01*
X27658068Y2606036D01*
X27873964Y2821932D01*
X27940000Y2920763D01*
X28006036Y2821932D01*
X28221932Y2606036D01*
X28475800Y2436408D01*
X28757882Y2319565D01*
X29057338Y2260000D01*
X29362662Y2260000D01*
X29662118Y2319565D01*
X29944200Y2436408D01*
X30198068Y2606036D01*
X30413964Y2821932D01*
X30480000Y2920763D01*
X30546036Y2821932D01*
X30761932Y2606036D01*
X31015800Y2436408D01*
X31297882Y2319565D01*
X31597338Y2260000D01*
X31902662Y2260000D01*
X32202118Y2319565D01*
X32484200Y2436408D01*
X32738068Y2606036D01*
X32953964Y2821932D01*
X33020000Y2920763D01*
X33086036Y2821932D01*
X33301932Y2606036D01*
X33555800Y2436408D01*
X33837882Y2319565D01*
X34137338Y2260000D01*
X34442662Y2260000D01*
X34742118Y2319565D01*
X35024200Y2436408D01*
X35278068Y2606036D01*
X35493964Y2821932D01*
X35560000Y2920763D01*
X35626036Y2821932D01*
X35841932Y2606036D01*
X36095800Y2436408D01*
X36377882Y2319565D01*
X36677338Y2260000D01*
X36982662Y2260000D01*
X37282118Y2319565D01*
X37564200Y2436408D01*
X37818068Y2606036D01*
X38033964Y2821932D01*
X38100000Y2920763D01*
X38166036Y2821932D01*
X38381932Y2606036D01*
X38635800Y2436408D01*
X38917882Y2319565D01*
X39217338Y2260000D01*
X39522662Y2260000D01*
X39822118Y2319565D01*
X40104200Y2436408D01*
X40358068Y2606036D01*
X40573964Y2821932D01*
X40640000Y2920763D01*
X40706036Y2821932D01*
X40921932Y2606036D01*
X41175800Y2436408D01*
X41457882Y2319565D01*
X41757338Y2260000D01*
X42062662Y2260000D01*
X42362118Y2319565D01*
X42644200Y2436408D01*
X42898068Y2606036D01*
X43113964Y2821932D01*
X43283592Y3075800D01*
X43400435Y3357882D01*
X43460000Y3657338D01*
X43460000Y3962662D01*
X43400435Y4262118D01*
X43360000Y4359736D01*
X43360000Y7440000D01*
X48427968Y7440000D01*
X48326036Y7338068D01*
X48156408Y7084200D01*
X48039565Y6802118D01*
X47980000Y6502662D01*
X47980000Y6197338D01*
X48039565Y5897882D01*
X48156408Y5615800D01*
X48326036Y5361932D01*
X48541932Y5146036D01*
X48795800Y4976408D01*
X49077882Y4859565D01*
X49377338Y4800000D01*
X49682662Y4800000D01*
X49982118Y4859565D01*
X50079736Y4900000D01*
X53507968Y4900000D01*
X53406036Y4798068D01*
X53236408Y4544200D01*
X53119565Y4262118D01*
X53060000Y3962662D01*
X53060000Y3657338D01*
X53119565Y3357882D01*
X53236408Y3075800D01*
X53406036Y2821932D01*
X53621932Y2606036D01*
X53875800Y2436408D01*
X54157882Y2319565D01*
X54457338Y2260000D01*
X54762662Y2260000D01*
X55062118Y2319565D01*
X55159736Y2360000D01*
X56600264Y2360000D01*
X56697882Y2319565D01*
X56997338Y2260000D01*
X57302662Y2260000D01*
X57602118Y2319565D01*
X57884200Y2436408D01*
X58138068Y2606036D01*
X58353964Y2821932D01*
X58523592Y3075800D01*
X58564027Y3173418D01*
X60664949Y5274339D01*
X60720264Y5319735D01*
X60765661Y5375051D01*
X60765668Y5375058D01*
X60901463Y5540525D01*
X60901465Y5540527D01*
X61036106Y5792424D01*
X61119019Y6065750D01*
X61140000Y6278775D01*
X61140000Y6278784D01*
X61147014Y6349999D01*
X61140000Y6421214D01*
X61140000Y18978786D01*
X61147014Y19050001D01*
X61140000Y19121216D01*
X61140000Y19121225D01*
X61119019Y19334250D01*
X61036106Y19607576D01*
X60901464Y19859474D01*
X60863356Y19905908D01*
X60765668Y20024942D01*
X60765665Y20024945D01*
X60720265Y20080265D01*
X60664944Y20125666D01*
X58564027Y22226582D01*
X58523592Y22324200D01*
X58353964Y22578068D01*
X58138068Y22793964D01*
X57884200Y22963592D01*
X57602118Y23080435D01*
X57302662Y23140000D01*
X56997338Y23140000D01*
X56697882Y23080435D01*
X56415800Y22963592D01*
X56161932Y22793964D01*
X55946036Y22578068D01*
X55776408Y22324200D01*
X55659565Y22042118D01*
X55600000Y21742662D01*
X55600000Y21437338D01*
X55659565Y21137882D01*
X55776408Y20855800D01*
X55946036Y20601932D01*
X56161932Y20386036D01*
X56415800Y20216408D01*
X56513418Y20175973D01*
X58240001Y18449389D01*
X58240001Y14927477D01*
X58180265Y15000265D01*
X57959474Y15181464D01*
X57707576Y15316106D01*
X57434250Y15399019D01*
X57221225Y15420000D01*
X57150000Y15427015D01*
X57078775Y15420000D01*
X55159736Y15420000D01*
X55062118Y15460435D01*
X54762662Y15520000D01*
X54457338Y15520000D01*
X54157882Y15460435D01*
X54060264Y15420000D01*
X50079736Y15420000D01*
X49982118Y15460435D01*
X49682662Y15520000D01*
X49377338Y15520000D01*
X49077882Y15460435D01*
X48795800Y15343592D01*
X48541932Y15173964D01*
X48326036Y14958068D01*
X48156408Y14704200D01*
X48039565Y14422118D01*
X47980000Y14122662D01*
X47980000Y13817338D01*
X48039565Y13517882D01*
X48156408Y13235800D01*
X48326036Y12981932D01*
X48541932Y12766036D01*
X48640763Y12700000D01*
X48541932Y12633964D01*
X48326036Y12418068D01*
X48156408Y12164200D01*
X48039565Y11882118D01*
X47980000Y11582662D01*
X47980000Y11277338D01*
X48039565Y10977882D01*
X48156408Y10695800D01*
X48326036Y10441932D01*
X48427968Y10340000D01*
X43360000Y10340000D01*
X43360000Y14639391D01*
X43780610Y15060000D01*
X46918785Y15060000D01*
X46990000Y15052986D01*
X47061215Y15060000D01*
X47061225Y15060000D01*
X47274250Y15080981D01*
X47547576Y15163894D01*
X47799474Y15298536D01*
X48020265Y15479735D01*
X48065670Y15535061D01*
X50504949Y17974339D01*
X50560264Y18019735D01*
X50605661Y18075051D01*
X50605668Y18075058D01*
X50741463Y18240525D01*
X50741465Y18240527D01*
X50876106Y18492424D01*
X50959019Y18765750D01*
X50980000Y18978775D01*
X50980000Y18978784D01*
X50987014Y19049999D01*
X50980000Y19121214D01*
X50980000Y21732813D01*
X50966034Y21803023D01*
X50959019Y21874250D01*
X50938242Y21942741D01*
X50924277Y22012949D01*
X50896883Y22079085D01*
X50876106Y22147576D01*
X50842368Y22210696D01*
X50814973Y22276833D01*
X50775202Y22336355D01*
X50741464Y22399474D01*
X50696062Y22454796D01*
X50656289Y22514321D01*
X50605665Y22564945D01*
X50560265Y22620265D01*
X50504945Y22665665D01*
X50454321Y22716289D01*
X50394796Y22756062D01*
X50339474Y22801464D01*
X50276355Y22835202D01*
X50216833Y22874973D01*
X50150696Y22902368D01*
X50087576Y22936106D01*
X50019085Y22956883D01*
X49952949Y22984277D01*
X49882741Y22998242D01*
X49814250Y23019019D01*
X49743023Y23026034D01*
X49672813Y23040000D01*
X49601225Y23040000D01*
X49530000Y23047015D01*
X49458775Y23040000D01*
X49387187Y23040000D01*
X49316976Y23026034D01*
X49245751Y23019019D01*
X49177262Y22998243D01*
X49107051Y22984277D01*
X49040912Y22956881D01*
X48972425Y22936106D01*
X48909309Y22902370D01*
X48843167Y22874973D01*
X48783641Y22835199D01*
X48720527Y22801464D01*
X48665209Y22756066D01*
X48605679Y22716289D01*
X48555051Y22665661D01*
X48499736Y22620265D01*
X48454340Y22564950D01*
X48403711Y22514321D01*
X48363934Y22454790D01*
X48318537Y22399474D01*
X48284803Y22336363D01*
X48260000Y22299242D01*
X48235202Y22336355D01*
X48201464Y22399474D01*
X48156063Y22454795D01*
X48116289Y22514321D01*
X48065661Y22564949D01*
X48020264Y22620265D01*
X47964949Y22665661D01*
X47914321Y22716289D01*
X47854791Y22756066D01*
X47799473Y22801464D01*
X47736359Y22835199D01*
X47676833Y22874973D01*
X47610691Y22902370D01*
X47547575Y22936106D01*
X47479088Y22956881D01*
X47412949Y22984277D01*
X47342738Y22998243D01*
X47274249Y23019019D01*
X47203024Y23026034D01*
X47132813Y23040000D01*
X47061225Y23040000D01*
X46990000Y23047015D01*
X46918775Y23040000D01*
X46847187Y23040000D01*
X46776977Y23026034D01*
X46705750Y23019019D01*
X46637259Y22998242D01*
X46567051Y22984277D01*
X46500915Y22956883D01*
X46432424Y22936106D01*
X46369304Y22902368D01*
X46303167Y22874973D01*
X46243645Y22835202D01*
X46180526Y22801464D01*
X46125205Y22756063D01*
X46065679Y22716289D01*
X46015051Y22665661D01*
X45959735Y22620264D01*
X45914339Y22564949D01*
X45863711Y22514321D01*
X45823934Y22454791D01*
X45778536Y22399473D01*
X45744801Y22336359D01*
X45720000Y22299242D01*
X45576289Y22514321D01*
X45374321Y22716289D01*
X45136833Y22874973D01*
X44872949Y22984277D01*
X44592813Y23040000D01*
X44307187Y23040000D01*
X44027051Y22984277D01*
X43763167Y22874973D01*
X43525679Y22716289D01*
X43323711Y22514321D01*
X43180000Y22299242D01*
X43036289Y22514321D01*
X42834321Y22716289D01*
X42596833Y22874973D01*
X42332949Y22984277D01*
X42052813Y23040000D01*
X41767187Y23040000D01*
X41487051Y22984277D01*
X41223167Y22874973D01*
X40985679Y22716289D01*
X40783711Y22514321D01*
X40640000Y22299242D01*
X40615202Y22336355D01*
X40581464Y22399474D01*
X40536063Y22454795D01*
X40496289Y22514321D01*
X40445661Y22564949D01*
X40400264Y22620265D01*
X40344949Y22665661D01*
X40294321Y22716289D01*
X40234791Y22756066D01*
X40179473Y22801464D01*
X40116359Y22835199D01*
X40056833Y22874973D01*
X39990691Y22902370D01*
X39927575Y22936106D01*
X39859088Y22956881D01*
X39792949Y22984277D01*
X39722738Y22998243D01*
X39654249Y23019019D01*
X39583024Y23026034D01*
X39512813Y23040000D01*
X39441225Y23040000D01*
X39370000Y23047015D01*
X39298775Y23040000D01*
X39227187Y23040000D01*
X39156977Y23026034D01*
X39085750Y23019019D01*
X39017259Y22998242D01*
X38947051Y22984277D01*
X38880915Y22956883D01*
X38812424Y22936106D01*
X38749304Y22902368D01*
X38683167Y22874973D01*
X38623645Y22835202D01*
X38560526Y22801464D01*
X38505205Y22756063D01*
X38445679Y22716289D01*
X38395051Y22665661D01*
X38339735Y22620264D01*
X38294339Y22564949D01*
X38243711Y22514321D01*
X38203934Y22454791D01*
X38158536Y22399473D01*
X38124801Y22336359D01*
X38085027Y22276833D01*
X38057630Y22210691D01*
X38023894Y22147575D01*
X38003119Y22079088D01*
X37975723Y22012949D01*
X37961757Y21942738D01*
X37940981Y21874249D01*
X37933966Y21803024D01*
X37920000Y21732813D01*
X37920000Y20776397D01*
X35999270Y18855666D01*
X35943948Y18810264D01*
X35762749Y18589473D01*
X35740000Y18546913D01*
X35740000Y21732813D01*
X35726034Y21803023D01*
X35719019Y21874250D01*
X35698242Y21942741D01*
X35684277Y22012949D01*
X35656883Y22079085D01*
X35636106Y22147576D01*
X35602368Y22210696D01*
X35574973Y22276833D01*
X35535202Y22336355D01*
X35501464Y22399474D01*
X35456063Y22454795D01*
X35416289Y22514321D01*
X35365661Y22564949D01*
X35320264Y22620265D01*
X35264949Y22665661D01*
X35214321Y22716289D01*
X35154791Y22756066D01*
X35099473Y22801464D01*
X35036359Y22835199D01*
X34976833Y22874973D01*
X34910691Y22902370D01*
X34847575Y22936106D01*
X34779088Y22956881D01*
X34712949Y22984277D01*
X34642738Y22998243D01*
X34574249Y23019019D01*
X34503024Y23026034D01*
X34432813Y23040000D01*
X34361225Y23040000D01*
X34290000Y23047015D01*
X34218775Y23040000D01*
X34147187Y23040000D01*
X34076977Y23026034D01*
X34005750Y23019019D01*
X33937259Y22998242D01*
X33867051Y22984277D01*
X33800915Y22956883D01*
X33732424Y22936106D01*
X33669304Y22902368D01*
X33603167Y22874973D01*
X33543645Y22835202D01*
X33480526Y22801464D01*
X33425205Y22756063D01*
X33365679Y22716289D01*
X33315051Y22665661D01*
X33259735Y22620264D01*
X33214339Y22564949D01*
X33163711Y22514321D01*
X33123934Y22454791D01*
X33078536Y22399473D01*
X33044801Y22336359D01*
X33020000Y22299242D01*
X32995202Y22336355D01*
X32961464Y22399474D01*
X32916063Y22454795D01*
X32876289Y22514321D01*
X32825661Y22564949D01*
X32780264Y22620265D01*
X32724949Y22665661D01*
X32674321Y22716289D01*
X32614791Y22756066D01*
X32559473Y22801464D01*
X32496359Y22835199D01*
X32436833Y22874973D01*
X32370691Y22902370D01*
X32307575Y22936106D01*
X32239088Y22956881D01*
X32172949Y22984277D01*
X32102738Y22998243D01*
X32034249Y23019019D01*
X31963024Y23026034D01*
X31892813Y23040000D01*
X31821225Y23040000D01*
X31750000Y23047015D01*
X31678775Y23040000D01*
X31607187Y23040000D01*
X31536977Y23026034D01*
X31465750Y23019019D01*
X31397259Y22998242D01*
X31327051Y22984277D01*
X31260915Y22956883D01*
X31192424Y22936106D01*
X31129304Y22902368D01*
X31063167Y22874973D01*
X31003645Y22835202D01*
X30940526Y22801464D01*
X30885205Y22756063D01*
X30825679Y22716289D01*
X30775051Y22665661D01*
X30719735Y22620264D01*
X30674339Y22564949D01*
X30623711Y22514321D01*
X30583934Y22454791D01*
X30538536Y22399473D01*
X30504801Y22336359D01*
X30480000Y22299242D01*
X30455202Y22336355D01*
X30421464Y22399474D01*
X30376063Y22454795D01*
X30336289Y22514321D01*
X30285661Y22564949D01*
X30240264Y22620265D01*
X30184949Y22665661D01*
X30134321Y22716289D01*
X30074791Y22756066D01*
X30019473Y22801464D01*
X29956359Y22835199D01*
X29896833Y22874973D01*
X29830691Y22902370D01*
X29767575Y22936106D01*
X29699088Y22956881D01*
X29632949Y22984277D01*
X29562738Y22998243D01*
X29494249Y23019019D01*
X29423024Y23026034D01*
X29352813Y23040000D01*
X29281225Y23040000D01*
X29210000Y23047015D01*
X29138775Y23040000D01*
X29067187Y23040000D01*
X28996977Y23026034D01*
X28925750Y23019019D01*
X28857259Y22998242D01*
X28787051Y22984277D01*
X28720915Y22956883D01*
X28652424Y22936106D01*
X28589304Y22902368D01*
X28523167Y22874973D01*
X28463645Y22835202D01*
X28400526Y22801464D01*
X28345205Y22756063D01*
X28285679Y22716289D01*
X28235051Y22665661D01*
X28179735Y22620264D01*
X28134339Y22564949D01*
X28083711Y22514321D01*
X28043934Y22454791D01*
X27998536Y22399473D01*
X27964801Y22336359D01*
X27925027Y22276833D01*
X27897630Y22210691D01*
X27863894Y22147575D01*
X27843119Y22079088D01*
X27815723Y22012949D01*
X27801757Y21942738D01*
X27780981Y21874249D01*
X27773966Y21803024D01*
X27760000Y21732813D01*
X27760000Y20007478D01*
X27700265Y20080265D01*
X27479474Y20261464D01*
X27227576Y20396106D01*
X26954250Y20479019D01*
X26741225Y20500000D01*
X26670000Y20507015D01*
X26598775Y20500000D01*
X23316397Y20500000D01*
X23040000Y20776396D01*
X23040000Y21732813D01*
X23026034Y21803023D01*
X23019019Y21874250D01*
X22998242Y21942741D01*
X22984277Y22012949D01*
X22956883Y22079085D01*
X22936106Y22147576D01*
X22902368Y22210696D01*
X22874973Y22276833D01*
X22835202Y22336355D01*
X22801464Y22399474D01*
X22756063Y22454795D01*
X22716289Y22514321D01*
X22665661Y22564949D01*
X22620264Y22620265D01*
X22564949Y22665661D01*
X22514321Y22716289D01*
X22454791Y22756066D01*
X22399473Y22801464D01*
X22336359Y22835199D01*
X22276833Y22874973D01*
X22210691Y22902370D01*
X22147575Y22936106D01*
X22079088Y22956881D01*
X22012949Y22984277D01*
X21942738Y22998243D01*
X21874249Y23019019D01*
X21803024Y23026034D01*
X21732813Y23040000D01*
X21661225Y23040000D01*
X21590000Y23047015D01*
X21518775Y23040000D01*
X21447187Y23040000D01*
X21376977Y23026034D01*
X21305750Y23019019D01*
X21237259Y22998242D01*
X21167051Y22984277D01*
X21100915Y22956883D01*
X21032424Y22936106D01*
X20969304Y22902368D01*
X20903167Y22874973D01*
X20843645Y22835202D01*
X20780526Y22801464D01*
X20725205Y22756063D01*
X20665679Y22716289D01*
X20615051Y22665661D01*
X20559735Y22620264D01*
X20514339Y22564949D01*
X20463711Y22514321D01*
X20423934Y22454791D01*
X20378536Y22399473D01*
X20344801Y22336359D01*
X20320000Y22299242D01*
X20176289Y22514321D01*
X19974321Y22716289D01*
X19736833Y22874973D01*
X19472949Y22984277D01*
X19192813Y23040000D01*
X18907187Y23040000D01*
X18627051Y22984277D01*
X18363167Y22874973D01*
X18125679Y22716289D01*
X17923711Y22514321D01*
X17780000Y22299242D01*
X17636289Y22514321D01*
X17434321Y22716289D01*
X17196833Y22874973D01*
X16932949Y22984277D01*
X16652813Y23040000D01*
X16367187Y23040000D01*
X16087051Y22984277D01*
X15823167Y22874973D01*
X15585679Y22716289D01*
X15383711Y22514321D01*
X15240000Y22299242D01*
X15215202Y22336355D01*
X15181464Y22399474D01*
X15136063Y22454795D01*
X15096289Y22514321D01*
X15045661Y22564949D01*
X15000264Y22620265D01*
X14944949Y22665661D01*
X14894321Y22716289D01*
X14834791Y22756066D01*
X14779473Y22801464D01*
X14716359Y22835199D01*
X14656833Y22874973D01*
X14590691Y22902370D01*
X14527575Y22936106D01*
X14459088Y22956881D01*
X14392949Y22984277D01*
X14322738Y22998243D01*
X14254249Y23019019D01*
X14183024Y23026034D01*
X14112813Y23040000D01*
X14041225Y23040000D01*
X13970000Y23047015D01*
X13898775Y23040000D01*
X13827187Y23040000D01*
X13756977Y23026034D01*
X13685750Y23019019D01*
X13617259Y22998242D01*
X13547051Y22984277D01*
X13480915Y22956883D01*
X13412424Y22936106D01*
X13349304Y22902368D01*
X13283167Y22874973D01*
X13223645Y22835202D01*
X13160526Y22801464D01*
X13105205Y22756063D01*
X13045679Y22716289D01*
X12995051Y22665661D01*
X12939735Y22620264D01*
X12894339Y22564949D01*
X12843711Y22514321D01*
X12803934Y22454791D01*
X12758536Y22399473D01*
X12724801Y22336359D01*
X12700000Y22299242D01*
X12556289Y22514321D01*
X12354321Y22716289D01*
X12116833Y22874973D01*
X11852949Y22984277D01*
X11572813Y23040000D01*
X11287187Y23040000D01*
X11007051Y22984277D01*
X10743167Y22874973D01*
X10505679Y22716289D01*
X10303711Y22514321D01*
X10160000Y22299242D01*
X10016289Y22514321D01*
X9814321Y22716289D01*
X9576833Y22874973D01*
X9312949Y22984277D01*
X9032813Y23040000D01*
X8747187Y23040000D01*
X8467051Y22984277D01*
X8203167Y22874973D01*
X7965679Y22716289D01*
X7763711Y22514321D01*
X7620000Y22299242D01*
X7476289Y22514321D01*
X7274321Y22716289D01*
X7036833Y22874973D01*
X6772949Y22984277D01*
X6492813Y23040000D01*
X6207187Y23040000D01*
X5927051Y22984277D01*
X5663167Y22874973D01*
X5425679Y22716289D01*
X5260000Y22550610D01*
X5260000Y23529391D01*
X6950610Y25220000D01*
X60359391Y25220000D01*
X60815974Y24763417D01*
X60856408Y24665800D01*
X61026036Y24411932D01*
X61241932Y24196036D01*
X61495800Y24026408D01*
X61777882Y23909565D01*
X62077338Y23850000D01*
X62382662Y23850000D01*
X62682118Y23909565D01*
X62964200Y24026408D01*
X63218068Y24196036D01*
X63433964Y24411932D01*
X63500000Y24510763D01*
X63566036Y24411932D01*
X63781932Y24196036D01*
X64035800Y24026408D01*
X64317882Y23909565D01*
X64617338Y23850000D01*
X64922662Y23850000D01*
X65222118Y23909565D01*
X65504200Y24026408D01*
X65758068Y24196036D01*
X65973964Y24411932D01*
X66143592Y24665800D01*
X66260435Y24947882D01*
X66320000Y25247338D01*
X66320000Y25552662D01*
X66260435Y25852118D01*
X66220000Y25949736D01*
X66220000Y29930264D01*
X66260435Y30027882D01*
X66320000Y30327338D01*
X66320000Y30632662D01*
X66260435Y30932118D01*
X66143592Y31214200D01*
X65973964Y31468068D01*
X65758068Y31683964D01*
X65504200Y31853592D01*
X65222118Y31970435D01*
X64922662Y32030000D01*
X64617338Y32030000D01*
X64317882Y31970435D01*
X64035800Y31853592D01*
X63781932Y31683964D01*
X63566036Y31468068D01*
X63396408Y31214200D01*
X63279565Y30932118D01*
X63220000Y30632662D01*
X63220000Y30327338D01*
X63279565Y30027882D01*
X63320001Y29930262D01*
X63320000Y26502032D01*
X63218068Y26603964D01*
X62964200Y26773592D01*
X62866583Y26814026D01*
X62035670Y27644939D01*
X61990265Y27700265D01*
X61769474Y27881464D01*
X61517576Y28016106D01*
X61244250Y28099019D01*
X61031225Y28120000D01*
X61031215Y28120000D01*
X60960000Y28127014D01*
X60888785Y28120000D01*
X6899736Y28120000D01*
X6802118Y28160435D01*
X6502662Y28220000D01*
X6197338Y28220000D01*
X5897882Y28160435D01*
X5615800Y28043592D01*
X5361932Y27873964D01*
X5146036Y27658068D01*
X4976408Y27404200D01*
X4935974Y27306583D01*
X2835057Y25205666D01*
X2779735Y25160264D01*
X2598536Y24939473D01*
X2463894Y24687575D01*
X2380981Y24414249D01*
X2360000Y24201224D01*
X2360000Y24201215D01*
X2352986Y24130000D01*
X150000Y24130000D01*
X150000Y30632662D01*
X47980000Y30632662D01*
X47980000Y30327338D01*
X48039565Y30027882D01*
X48156408Y29745800D01*
X48326036Y29491932D01*
X48541932Y29276036D01*
X48795800Y29106408D01*
X49077882Y28989565D01*
X49377338Y28930000D01*
X49682662Y28930000D01*
X49982118Y28989565D01*
X50264200Y29106408D01*
X50518068Y29276036D01*
X50733964Y29491932D01*
X50903592Y29745800D01*
X50944027Y29843418D01*
X65744939Y44644330D01*
X65800265Y44689735D01*
X65981464Y44910526D01*
X66116106Y45162424D01*
X66199019Y45435750D01*
X66220000Y45648775D01*
X66220000Y45648783D01*
X66227014Y45720000D01*
X66220000Y45791217D01*
X66220000Y82478775D01*
X66227015Y82550000D01*
X66199019Y82834250D01*
X66116106Y83107576D01*
X65981464Y83359474D01*
X65800265Y83580265D01*
X65579474Y83761464D01*
X65327576Y83896106D01*
X65054250Y83979019D01*
X64841225Y84000000D01*
X64770000Y84007015D01*
X64698775Y84000000D01*
X62779736Y84000000D01*
X62682118Y84040435D01*
X62382662Y84100000D01*
X62077338Y84100000D01*
X61777882Y84040435D01*
X61680264Y84000000D01*
X57699736Y84000000D01*
X57602118Y84040435D01*
X57302662Y84100000D01*
X56997338Y84100000D01*
X56697882Y84040435D01*
X56415800Y83923592D01*
X56161932Y83753964D01*
X55946036Y83538068D01*
X55776408Y83284200D01*
X55659565Y83002118D01*
X55600000Y82702662D01*
X55600000Y82397338D01*
X55659565Y82097882D01*
X55776408Y81815800D01*
X55946036Y81561932D01*
X56161932Y81346036D01*
X56415800Y81176408D01*
X56697882Y81059565D01*
X56997338Y81000000D01*
X57302662Y81000000D01*
X57602118Y81059565D01*
X57699736Y81100000D01*
X61127968Y81100000D01*
X61026036Y80998068D01*
X60856408Y80744200D01*
X60739565Y80462118D01*
X60680000Y80162662D01*
X60680000Y79857338D01*
X60739565Y79557882D01*
X60780000Y79460263D01*
X60780000Y78920000D01*
X55951217Y78920000D01*
X55880000Y78927014D01*
X55808783Y78920000D01*
X55808775Y78920000D01*
X55595750Y78899019D01*
X55322424Y78816106D01*
X55070526Y78681464D01*
X54849735Y78500265D01*
X54804330Y78444939D01*
X51095057Y74735666D01*
X51039735Y74690264D01*
X50858536Y74469473D01*
X50723894Y74217575D01*
X50640981Y73944249D01*
X50620000Y73731224D01*
X50620000Y73731215D01*
X50612986Y73660000D01*
X50620000Y73588785D01*
X50620001Y63571225D01*
X50612986Y63500000D01*
X50620001Y63428775D01*
X50640564Y63220000D01*
X50640982Y63215751D01*
X50723894Y62942426D01*
X50858536Y62690527D01*
X50994332Y62525059D01*
X50994336Y62525055D01*
X51039736Y62469735D01*
X51095056Y62424335D01*
X51137823Y62381568D01*
X51137823Y60480000D01*
X51146511Y60391785D01*
X51172243Y60306959D01*
X51214029Y60228784D01*
X51270263Y60160263D01*
X51338784Y60104029D01*
X51416959Y60062243D01*
X51501785Y60036511D01*
X51590000Y60027823D01*
X55090000Y60027823D01*
X55178215Y60036511D01*
X55263041Y60062243D01*
X55341216Y60104029D01*
X55409737Y60160263D01*
X55465971Y60228784D01*
X55507757Y60306959D01*
X55533489Y60391785D01*
X55542177Y60480000D01*
X55542177Y63980000D01*
X55533489Y64068215D01*
X55507757Y64153041D01*
X55465971Y64231216D01*
X55409737Y64299737D01*
X55341216Y64355971D01*
X55263041Y64397757D01*
X55178215Y64423489D01*
X55090000Y64432177D01*
X53520000Y64432177D01*
X53520000Y67805000D01*
X54137823Y67805000D01*
X54137823Y66055000D01*
X54163324Y65796081D01*
X54238848Y65547111D01*
X54361493Y65317660D01*
X54526544Y65116544D01*
X54727660Y64951493D01*
X54957111Y64828848D01*
X55206081Y64753324D01*
X55465000Y64727823D01*
X57215000Y64727823D01*
X57473919Y64753324D01*
X57722889Y64828848D01*
X57952340Y64951493D01*
X58153456Y65116544D01*
X58318507Y65317660D01*
X58441152Y65547111D01*
X58516676Y65796081D01*
X58542177Y66055000D01*
X58542177Y67805000D01*
X58516676Y68063919D01*
X58441152Y68312889D01*
X58318507Y68542340D01*
X58153456Y68743456D01*
X57952340Y68908507D01*
X57722889Y69031152D01*
X57473919Y69106676D01*
X57215000Y69132177D01*
X55465000Y69132177D01*
X55206081Y69106676D01*
X54957111Y69031152D01*
X54727660Y68908507D01*
X54526544Y68743456D01*
X54361493Y68542340D01*
X54238848Y68312889D01*
X54163324Y68063919D01*
X54137823Y67805000D01*
X53520000Y67805000D01*
X53520000Y73059391D01*
X56480609Y76020000D01*
X61680264Y76020000D01*
X61777882Y75979565D01*
X62077338Y75920000D01*
X62382662Y75920000D01*
X62682118Y75979565D01*
X62964200Y76096408D01*
X63218068Y76266036D01*
X63320000Y76367968D01*
X63320001Y46320610D01*
X48893418Y31894027D01*
X48795800Y31853592D01*
X48541932Y31683964D01*
X48326036Y31468068D01*
X48156408Y31214200D01*
X48039565Y30932118D01*
X47980000Y30632662D01*
X150000Y30632662D01*
X150000Y54762662D01*
X2260000Y54762662D01*
X2260000Y54457338D01*
X2319565Y54157882D01*
X2436408Y53875800D01*
X2606036Y53621932D01*
X2821932Y53406036D01*
X2920763Y53340000D01*
X2821932Y53273964D01*
X2606036Y53058068D01*
X2436408Y52804200D01*
X2319565Y52522118D01*
X2260000Y52222662D01*
X2260000Y51917338D01*
X2319565Y51617882D01*
X2360001Y51520262D01*
X2360000Y43657213D01*
X2352986Y43585998D01*
X2360000Y43514783D01*
X2360000Y43514774D01*
X2380981Y43301749D01*
X2463894Y43028423D01*
X2533570Y42898068D01*
X2598536Y42776525D01*
X2725004Y42622424D01*
X2779735Y42555734D01*
X2835057Y42510332D01*
X4410332Y40935056D01*
X4455733Y40879735D01*
X4511053Y40834335D01*
X4511056Y40834332D01*
X4661062Y40711225D01*
X4676524Y40698536D01*
X4928422Y40563894D01*
X5201748Y40480981D01*
X5414773Y40460000D01*
X5414782Y40460000D01*
X5485997Y40452986D01*
X5557212Y40460000D01*
X13420264Y40460000D01*
X13517882Y40419565D01*
X13817338Y40360000D01*
X14122662Y40360000D01*
X14422118Y40419565D01*
X14704200Y40536408D01*
X14958068Y40706036D01*
X15173964Y40921932D01*
X15343592Y41175800D01*
X15460435Y41457882D01*
X15520000Y41757338D01*
X15520000Y42062662D01*
X15460435Y42362118D01*
X15343592Y42644200D01*
X15173964Y42898068D01*
X14958068Y43113964D01*
X14704200Y43283592D01*
X14422118Y43400435D01*
X14122662Y43460000D01*
X13817338Y43460000D01*
X13517882Y43400435D01*
X13420264Y43360000D01*
X7452032Y43360000D01*
X7553964Y43461932D01*
X7723592Y43715800D01*
X7840435Y43997882D01*
X7900000Y44297338D01*
X7900000Y44602662D01*
X7840435Y44902118D01*
X7800000Y44999736D01*
X7800000Y46029390D01*
X7965679Y45863711D01*
X8203167Y45705027D01*
X8467051Y45595723D01*
X8747187Y45540000D01*
X9032813Y45540000D01*
X9312949Y45595723D01*
X9576833Y45705027D01*
X9814321Y45863711D01*
X10016289Y46065679D01*
X10160000Y46280758D01*
X10303711Y46065679D01*
X10505679Y45863711D01*
X10743167Y45705027D01*
X11007051Y45595723D01*
X11287187Y45540000D01*
X11572813Y45540000D01*
X11852949Y45595723D01*
X12116833Y45705027D01*
X12354321Y45863711D01*
X12556289Y46065679D01*
X12700000Y46280758D01*
X12843711Y46065679D01*
X13045679Y45863711D01*
X13283167Y45705027D01*
X13547051Y45595723D01*
X13827187Y45540000D01*
X14112813Y45540000D01*
X14392949Y45595723D01*
X14656833Y45705027D01*
X14894321Y45863711D01*
X15096289Y46065679D01*
X15240000Y46280758D01*
X15264803Y46243637D01*
X15298537Y46180526D01*
X15343934Y46125210D01*
X15383711Y46065679D01*
X15434340Y46015050D01*
X15479736Y45959735D01*
X15535051Y45914339D01*
X15585679Y45863711D01*
X15645209Y45823934D01*
X15700527Y45778536D01*
X15763641Y45744801D01*
X15823167Y45705027D01*
X15889309Y45677630D01*
X15952425Y45643894D01*
X16020912Y45623119D01*
X16087051Y45595723D01*
X16157262Y45581757D01*
X16225751Y45560981D01*
X16296976Y45553966D01*
X16367187Y45540000D01*
X16438775Y45540000D01*
X16510000Y45532985D01*
X16581225Y45540000D01*
X16652813Y45540000D01*
X16723023Y45553966D01*
X16794250Y45560981D01*
X16862741Y45581758D01*
X16932949Y45595723D01*
X16999085Y45623117D01*
X17067576Y45643894D01*
X17130696Y45677632D01*
X17196833Y45705027D01*
X17256355Y45744798D01*
X17319474Y45778536D01*
X17374796Y45823938D01*
X17434321Y45863711D01*
X17484945Y45914335D01*
X17540265Y45959735D01*
X17585665Y46015055D01*
X17636289Y46065679D01*
X17676062Y46125204D01*
X17721464Y46180526D01*
X17755202Y46243645D01*
X17794973Y46303167D01*
X17822368Y46369304D01*
X17856106Y46432424D01*
X17876883Y46500915D01*
X17904277Y46567051D01*
X17918242Y46637259D01*
X17939019Y46705750D01*
X17946034Y46776977D01*
X17960000Y46847187D01*
X17960000Y51469391D01*
X20024944Y53534334D01*
X20080265Y53579735D01*
X20125669Y53635059D01*
X20261463Y53800525D01*
X20261465Y53800527D01*
X20320000Y53910040D01*
X20378536Y53800527D01*
X20559735Y53579736D01*
X20615057Y53534334D01*
X22680001Y51469389D01*
X22680000Y47950610D01*
X22514321Y48116289D01*
X22276833Y48274973D01*
X22012949Y48384277D01*
X21732813Y48440000D01*
X21447187Y48440000D01*
X21167051Y48384277D01*
X20903167Y48274973D01*
X20665679Y48116289D01*
X20463711Y47914321D01*
X20305027Y47676833D01*
X20195723Y47412949D01*
X20140000Y47132813D01*
X20140000Y46847187D01*
X20195723Y46567051D01*
X20305027Y46303167D01*
X20463711Y46065679D01*
X20665679Y45863711D01*
X20903167Y45705027D01*
X21167051Y45595723D01*
X21447187Y45540000D01*
X21732813Y45540000D01*
X22012949Y45595723D01*
X22276833Y45705027D01*
X22514321Y45863711D01*
X22716289Y46065679D01*
X22860000Y46280758D01*
X22884801Y46243641D01*
X22918536Y46180527D01*
X22963934Y46125209D01*
X23003711Y46065679D01*
X23054339Y46015051D01*
X23099735Y45959736D01*
X23155051Y45914339D01*
X23205679Y45863711D01*
X23265205Y45823937D01*
X23320526Y45778536D01*
X23383645Y45744798D01*
X23443167Y45705027D01*
X23509304Y45677632D01*
X23572424Y45643894D01*
X23640915Y45623117D01*
X23707051Y45595723D01*
X23777259Y45581758D01*
X23845750Y45560981D01*
X23916977Y45553966D01*
X23987187Y45540000D01*
X24058775Y45540000D01*
X24130000Y45532985D01*
X24201225Y45540000D01*
X24272813Y45540000D01*
X24343024Y45553966D01*
X24414249Y45560981D01*
X24482738Y45581757D01*
X24552949Y45595723D01*
X24619088Y45623119D01*
X24687575Y45643894D01*
X24750691Y45677630D01*
X24816833Y45705027D01*
X24876359Y45744801D01*
X24939473Y45778536D01*
X24994791Y45823934D01*
X25054321Y45863711D01*
X25104949Y45914339D01*
X25160264Y45959735D01*
X25205661Y46015051D01*
X25256289Y46065679D01*
X25296063Y46125205D01*
X25341464Y46180526D01*
X25375202Y46243645D01*
X25400000Y46280758D01*
X25424801Y46243641D01*
X25458536Y46180527D01*
X25503934Y46125209D01*
X25543711Y46065679D01*
X25594339Y46015051D01*
X25639735Y45959736D01*
X25695051Y45914339D01*
X25745679Y45863711D01*
X25805205Y45823937D01*
X25860526Y45778536D01*
X25923645Y45744798D01*
X25983167Y45705027D01*
X26049304Y45677632D01*
X26112424Y45643894D01*
X26180915Y45623117D01*
X26247051Y45595723D01*
X26317259Y45581758D01*
X26385750Y45560981D01*
X26456977Y45553966D01*
X26527187Y45540000D01*
X26598775Y45540000D01*
X26670000Y45532985D01*
X26741225Y45540000D01*
X26812813Y45540000D01*
X26883024Y45553966D01*
X26954249Y45560981D01*
X27022738Y45581757D01*
X27092949Y45595723D01*
X27159088Y45623119D01*
X27227575Y45643894D01*
X27290691Y45677630D01*
X27356833Y45705027D01*
X27416359Y45744801D01*
X27479473Y45778536D01*
X27534791Y45823934D01*
X27594321Y45863711D01*
X27644949Y45914339D01*
X27700264Y45959735D01*
X27745661Y46015051D01*
X27796289Y46065679D01*
X27836063Y46125205D01*
X27881464Y46180526D01*
X27915202Y46243645D01*
X27940000Y46280758D01*
X27964803Y46243637D01*
X27998537Y46180526D01*
X28043934Y46125210D01*
X28083711Y46065679D01*
X28134340Y46015050D01*
X28179736Y45959735D01*
X28235051Y45914339D01*
X28285679Y45863711D01*
X28345209Y45823934D01*
X28400527Y45778536D01*
X28463641Y45744801D01*
X28523167Y45705027D01*
X28589309Y45677630D01*
X28652425Y45643894D01*
X28720912Y45623119D01*
X28787051Y45595723D01*
X28857262Y45581757D01*
X28925751Y45560981D01*
X28996976Y45553966D01*
X29067187Y45540000D01*
X29138775Y45540000D01*
X29210000Y45532985D01*
X29281225Y45540000D01*
X29352813Y45540000D01*
X29423023Y45553966D01*
X29494250Y45560981D01*
X29562741Y45581758D01*
X29632949Y45595723D01*
X29699085Y45623117D01*
X29767576Y45643894D01*
X29830696Y45677632D01*
X29896833Y45705027D01*
X29956355Y45744798D01*
X30019474Y45778536D01*
X30074796Y45823938D01*
X30134321Y45863711D01*
X30184945Y45914335D01*
X30240265Y45959735D01*
X30285665Y46015055D01*
X30336289Y46065679D01*
X30376062Y46125204D01*
X30421464Y46180526D01*
X30455202Y46243645D01*
X30480000Y46280758D01*
X30504801Y46243641D01*
X30538536Y46180527D01*
X30583934Y46125209D01*
X30623711Y46065679D01*
X30674339Y46015051D01*
X30719735Y45959736D01*
X30775051Y45914339D01*
X30825679Y45863711D01*
X30885205Y45823937D01*
X30940526Y45778536D01*
X31003645Y45744798D01*
X31063167Y45705027D01*
X31129304Y45677632D01*
X31192424Y45643894D01*
X31260915Y45623117D01*
X31327051Y45595723D01*
X31397259Y45581758D01*
X31465750Y45560981D01*
X31536977Y45553966D01*
X31607187Y45540000D01*
X31678775Y45540000D01*
X31750000Y45532985D01*
X31821225Y45540000D01*
X31892813Y45540000D01*
X31963024Y45553966D01*
X32034249Y45560981D01*
X32100456Y45581065D01*
X29843418Y43324027D01*
X29745800Y43283592D01*
X29491932Y43113964D01*
X29276036Y42898068D01*
X29106408Y42644200D01*
X28989565Y42362118D01*
X28930000Y42062662D01*
X28930000Y41757338D01*
X28989565Y41457882D01*
X29106408Y41175800D01*
X29276036Y40921932D01*
X29491932Y40706036D01*
X29745800Y40536408D01*
X30027882Y40419565D01*
X30327338Y40360000D01*
X30632662Y40360000D01*
X30932118Y40419565D01*
X31214200Y40536408D01*
X31468068Y40706036D01*
X31683964Y40921932D01*
X31853592Y41175800D01*
X31894027Y41273418D01*
X35264939Y44644330D01*
X35320265Y44689735D01*
X35501464Y44910526D01*
X35636106Y45162424D01*
X35719019Y45435750D01*
X35740000Y45648775D01*
X35740000Y45648783D01*
X35747014Y45720000D01*
X35740000Y45791217D01*
X35740000Y47132813D01*
X35726034Y47203023D01*
X35719019Y47274250D01*
X35698242Y47342741D01*
X35684277Y47412949D01*
X35656883Y47479085D01*
X35636106Y47547576D01*
X35602368Y47610696D01*
X35574973Y47676833D01*
X35535202Y47736355D01*
X35501464Y47799474D01*
X35456063Y47854795D01*
X35416289Y47914321D01*
X35365661Y47964949D01*
X35320264Y48020265D01*
X35264949Y48065661D01*
X35214321Y48116289D01*
X35154791Y48156066D01*
X35099473Y48201464D01*
X35036359Y48235199D01*
X34976833Y48274973D01*
X34910691Y48302370D01*
X34847575Y48336106D01*
X34779088Y48356881D01*
X34712949Y48384277D01*
X34642738Y48398243D01*
X34574249Y48419019D01*
X34503024Y48426034D01*
X34432813Y48440000D01*
X34361225Y48440000D01*
X34290000Y48447015D01*
X34218775Y48440000D01*
X34147187Y48440000D01*
X34076977Y48426034D01*
X34005750Y48419019D01*
X33937259Y48398242D01*
X33867051Y48384277D01*
X33800915Y48356883D01*
X33732536Y48336140D01*
X41096396Y55700000D01*
X44378775Y55700000D01*
X44450000Y55692985D01*
X44521225Y55700000D01*
X44734250Y55720981D01*
X44800455Y55741064D01*
X43475056Y54415665D01*
X43419736Y54370265D01*
X43374336Y54314945D01*
X43374332Y54314941D01*
X43245437Y54157882D01*
X43238537Y54149474D01*
X43103895Y53897576D01*
X43020982Y53624250D01*
X43016598Y53579736D01*
X42992986Y53340000D01*
X43000001Y53268776D01*
X43000000Y47132813D01*
X43000000Y46847187D01*
X43013966Y46776976D01*
X43020981Y46705751D01*
X43041757Y46637262D01*
X43055723Y46567051D01*
X43083119Y46500912D01*
X43103894Y46432425D01*
X43137630Y46369309D01*
X43165027Y46303167D01*
X43204801Y46243641D01*
X43238536Y46180527D01*
X43283934Y46125209D01*
X43323711Y46065679D01*
X43374339Y46015051D01*
X43419735Y45959736D01*
X43475051Y45914339D01*
X43525679Y45863711D01*
X43585205Y45823937D01*
X43640526Y45778536D01*
X43703645Y45744798D01*
X43763167Y45705027D01*
X43829304Y45677632D01*
X43892424Y45643894D01*
X43960915Y45623117D01*
X44027051Y45595723D01*
X44097259Y45581758D01*
X44165750Y45560981D01*
X44236977Y45553966D01*
X44307187Y45540000D01*
X44378775Y45540000D01*
X44450000Y45532985D01*
X44521225Y45540000D01*
X44592813Y45540000D01*
X44663024Y45553966D01*
X44734249Y45560981D01*
X44802738Y45581757D01*
X44872949Y45595723D01*
X44939088Y45623119D01*
X45007575Y45643894D01*
X45070691Y45677630D01*
X45136833Y45705027D01*
X45196359Y45744801D01*
X45259473Y45778536D01*
X45314791Y45823934D01*
X45374321Y45863711D01*
X45424949Y45914339D01*
X45480264Y45959735D01*
X45525661Y46015051D01*
X45576289Y46065679D01*
X45616063Y46125205D01*
X45661464Y46180526D01*
X45695202Y46243645D01*
X45720000Y46280758D01*
X45744801Y46243641D01*
X45778536Y46180527D01*
X45823934Y46125209D01*
X45863711Y46065679D01*
X45914339Y46015051D01*
X45959735Y45959736D01*
X46015051Y45914339D01*
X46065679Y45863711D01*
X46125205Y45823937D01*
X46180526Y45778536D01*
X46243645Y45744798D01*
X46303167Y45705027D01*
X46369304Y45677632D01*
X46432424Y45643894D01*
X46500915Y45623117D01*
X46567051Y45595723D01*
X46637259Y45581758D01*
X46705750Y45560981D01*
X46776977Y45553966D01*
X46847187Y45540000D01*
X46918775Y45540000D01*
X46990000Y45532985D01*
X47061225Y45540000D01*
X47132813Y45540000D01*
X47203024Y45553966D01*
X47274249Y45560981D01*
X47342738Y45581757D01*
X47412949Y45595723D01*
X47479088Y45623119D01*
X47547575Y45643894D01*
X47610691Y45677630D01*
X47676833Y45705027D01*
X47736359Y45744801D01*
X47799473Y45778536D01*
X47854791Y45823934D01*
X47914321Y45863711D01*
X47964949Y45914339D01*
X48020264Y45959735D01*
X48065661Y46015051D01*
X48116289Y46065679D01*
X48156063Y46125205D01*
X48201464Y46180526D01*
X48235202Y46243645D01*
X48260000Y46280758D01*
X48284801Y46243641D01*
X48318536Y46180527D01*
X48363934Y46125209D01*
X48403711Y46065679D01*
X48454339Y46015051D01*
X48499735Y45959736D01*
X48555051Y45914339D01*
X48605679Y45863711D01*
X48665205Y45823937D01*
X48720526Y45778536D01*
X48783645Y45744798D01*
X48843167Y45705027D01*
X48909304Y45677632D01*
X48972424Y45643894D01*
X49040915Y45623117D01*
X49107051Y45595723D01*
X49177259Y45581758D01*
X49245750Y45560981D01*
X49316977Y45553966D01*
X49387187Y45540000D01*
X49458775Y45540000D01*
X49530000Y45532985D01*
X49601225Y45540000D01*
X49672813Y45540000D01*
X49743024Y45553966D01*
X49814249Y45560981D01*
X49882738Y45581757D01*
X49952949Y45595723D01*
X50019088Y45623119D01*
X50087575Y45643894D01*
X50150691Y45677630D01*
X50216833Y45705027D01*
X50276359Y45744801D01*
X50339473Y45778536D01*
X50394791Y45823934D01*
X50454321Y45863711D01*
X50504949Y45914339D01*
X50560264Y45959735D01*
X50605661Y46015051D01*
X50620000Y46029390D01*
X50620001Y45050610D01*
X50199391Y44630000D01*
X45791214Y44630000D01*
X45719999Y44637014D01*
X45648784Y44630000D01*
X45648775Y44630000D01*
X45435750Y44609019D01*
X45162424Y44526106D01*
X44910526Y44391464D01*
X44889117Y44373894D01*
X44745058Y44255668D01*
X44745055Y44255665D01*
X44689735Y44210265D01*
X44644334Y44154944D01*
X42205057Y41715666D01*
X42149735Y41670264D01*
X41968536Y41449473D01*
X41833894Y41197575D01*
X41750981Y40924249D01*
X41730000Y40711224D01*
X41730000Y40711215D01*
X41722986Y40640000D01*
X41730000Y40568785D01*
X41730001Y36109738D01*
X41689565Y36012118D01*
X41630000Y35712662D01*
X41630000Y35407338D01*
X41689565Y35107882D01*
X41806408Y34825800D01*
X41976036Y34571932D01*
X42191932Y34356036D01*
X42445800Y34186408D01*
X42727882Y34069565D01*
X43027338Y34010000D01*
X43332662Y34010000D01*
X43632118Y34069565D01*
X43914200Y34186408D01*
X44168068Y34356036D01*
X44383964Y34571932D01*
X44553592Y34825800D01*
X44670435Y35107882D01*
X44730000Y35407338D01*
X44730000Y35712662D01*
X44670435Y36012118D01*
X44630000Y36109736D01*
X44630000Y40039391D01*
X46320610Y41730000D01*
X50728785Y41730000D01*
X50800000Y41722986D01*
X50871215Y41730000D01*
X50871225Y41730000D01*
X51084250Y41750981D01*
X51357576Y41833894D01*
X51609474Y41968536D01*
X51830265Y42149735D01*
X51875670Y42205061D01*
X53044944Y43374334D01*
X53100265Y43419735D01*
X53281464Y43640526D01*
X53416106Y43892424D01*
X53499019Y44165750D01*
X53520000Y44378775D01*
X53520000Y44378784D01*
X53527014Y44449999D01*
X53520000Y44521214D01*
X53520000Y48080000D01*
X59618775Y48080000D01*
X59690000Y48072985D01*
X59761225Y48080000D01*
X59974250Y48100981D01*
X60247576Y48183894D01*
X60499474Y48318536D01*
X60720265Y48499735D01*
X60901464Y48720526D01*
X61036106Y48972424D01*
X61119019Y49245750D01*
X61147015Y49530000D01*
X61140000Y49601225D01*
X61140000Y51520264D01*
X61180435Y51617882D01*
X61240000Y51917338D01*
X61240000Y52222662D01*
X61180435Y52522118D01*
X61063592Y52804200D01*
X60893964Y53058068D01*
X60678068Y53273964D01*
X60424200Y53443592D01*
X60142118Y53560435D01*
X59842662Y53620000D01*
X59537338Y53620000D01*
X59237882Y53560435D01*
X58955800Y53443592D01*
X58701932Y53273964D01*
X58486036Y53058068D01*
X58420000Y52959237D01*
X58353964Y53058068D01*
X58138068Y53273964D01*
X57884200Y53443592D01*
X57602118Y53560435D01*
X57302662Y53620000D01*
X56997338Y53620000D01*
X56697882Y53560435D01*
X56600264Y53520000D01*
X49791892Y53520000D01*
X49924955Y53653063D01*
X49980276Y53698464D01*
X50025679Y53753787D01*
X50161475Y53919254D01*
X50296117Y54171153D01*
X50379030Y54444479D01*
X50400011Y54657504D01*
X50400011Y54657513D01*
X50407025Y54728728D01*
X50400011Y54799943D01*
X50400011Y80734402D01*
X50765610Y81100000D01*
X52862787Y81100000D01*
X52934002Y81092986D01*
X53005217Y81100000D01*
X53005227Y81100000D01*
X53218252Y81120981D01*
X53491578Y81203894D01*
X53743476Y81338536D01*
X53964267Y81519735D01*
X54009672Y81575061D01*
X55584949Y83150337D01*
X55640264Y83195733D01*
X55685661Y83251049D01*
X55685668Y83251056D01*
X55821464Y83416524D01*
X55887463Y83540000D01*
X55956106Y83668422D01*
X56039019Y83941748D01*
X56060000Y84154773D01*
X56060000Y84154782D01*
X56067014Y84225997D01*
X56060000Y84297212D01*
X56060000Y85759391D01*
X58124949Y87824339D01*
X58152844Y87847232D01*
X58140000Y87782662D01*
X58140000Y87477338D01*
X58199565Y87177882D01*
X58316408Y86895800D01*
X58486036Y86641932D01*
X58701932Y86426036D01*
X58955800Y86256408D01*
X59237882Y86139565D01*
X59537338Y86080000D01*
X59842662Y86080000D01*
X60142118Y86139565D01*
X60424200Y86256408D01*
X60678068Y86426036D01*
X60893964Y86641932D01*
X61063592Y86895800D01*
X61180435Y87177882D01*
X61240000Y87477338D01*
X61240000Y87782662D01*
X61180435Y88082118D01*
X61140000Y88179736D01*
X61140000Y89620264D01*
X61180435Y89717882D01*
X61240000Y90017338D01*
X61240000Y90322662D01*
X61180435Y90622118D01*
X61063592Y90904200D01*
X60893964Y91158068D01*
X60678068Y91373964D01*
X60424200Y91543592D01*
X60142118Y91660435D01*
X59842662Y91720000D01*
X59537338Y91720000D01*
X59237882Y91660435D01*
X58955800Y91543592D01*
X58701932Y91373964D01*
X58486036Y91158068D01*
X58420000Y91059237D01*
X58353964Y91158068D01*
X58138068Y91373964D01*
X57884200Y91543592D01*
X57602118Y91660435D01*
X57302662Y91720000D01*
X56997338Y91720000D01*
X56697882Y91660435D01*
X56415800Y91543592D01*
X56161932Y91373964D01*
X55946036Y91158068D01*
X55776408Y90904200D01*
X55659565Y90622118D01*
X55600000Y90322662D01*
X55600000Y90017338D01*
X55659565Y89717882D01*
X55700000Y89620264D01*
X55700000Y89500610D01*
X53635056Y87435665D01*
X53607156Y87412768D01*
X53620000Y87477338D01*
X53620000Y87782662D01*
X53560435Y88082118D01*
X53520000Y88179736D01*
X53520000Y89620264D01*
X53560435Y89717882D01*
X53620000Y90017338D01*
X53620000Y90322662D01*
X53560435Y90622118D01*
X53443592Y90904200D01*
X53273964Y91158068D01*
X53058068Y91373964D01*
X52804200Y91543592D01*
X52522118Y91660435D01*
X52222662Y91720000D01*
X51917338Y91720000D01*
X51617882Y91660435D01*
X51335800Y91543592D01*
X51081932Y91373964D01*
X50866036Y91158068D01*
X50800000Y91059237D01*
X50733964Y91158068D01*
X50518068Y91373964D01*
X50264200Y91543592D01*
X49982118Y91660435D01*
X49682662Y91720000D01*
X49377338Y91720000D01*
X49077882Y91660435D01*
X48795800Y91543592D01*
X48541932Y91373964D01*
X48326036Y91158068D01*
X48260000Y91059237D01*
X48193964Y91158068D01*
X47978068Y91373964D01*
X47724200Y91543592D01*
X47442118Y91660435D01*
X47142662Y91720000D01*
X46837338Y91720000D01*
X46537882Y91660435D01*
X46255800Y91543592D01*
X46001932Y91373964D01*
X45786036Y91158068D01*
X45616408Y90904200D01*
X45499565Y90622118D01*
X45440000Y90322662D01*
X45440000Y90017338D01*
X45499565Y89717882D01*
X45616408Y89435800D01*
X45786036Y89181932D01*
X46001932Y88966036D01*
X46255800Y88796408D01*
X46537882Y88679565D01*
X46837338Y88620000D01*
X47142662Y88620000D01*
X47442118Y88679565D01*
X47724200Y88796408D01*
X47978068Y88966036D01*
X48080001Y89067969D01*
X48080000Y85690610D01*
X45775057Y83385666D01*
X45719737Y83340266D01*
X45674337Y83284946D01*
X45674333Y83284942D01*
X45538537Y83119474D01*
X45421281Y82900102D01*
X45410479Y82879892D01*
X45403895Y82867575D01*
X45320983Y82594250D01*
X45292987Y82310001D01*
X45300002Y82238776D01*
X45300001Y63526217D01*
X45184200Y63603592D01*
X44902118Y63720435D01*
X44602662Y63780000D01*
X44297338Y63780000D01*
X43997882Y63720435D01*
X43715800Y63603592D01*
X43461932Y63433964D01*
X43246036Y63218068D01*
X43180000Y63119237D01*
X43113964Y63218068D01*
X42898068Y63433964D01*
X42644200Y63603592D01*
X42362118Y63720435D01*
X42062662Y63780000D01*
X41757338Y63780000D01*
X41457882Y63720435D01*
X41175800Y63603592D01*
X40921932Y63433964D01*
X40706036Y63218068D01*
X40640000Y63119237D01*
X40573964Y63218068D01*
X40358068Y63433964D01*
X40104200Y63603592D01*
X39822118Y63720435D01*
X39522662Y63780000D01*
X39217338Y63780000D01*
X38917882Y63720435D01*
X38820264Y63680000D01*
X37379736Y63680000D01*
X37282118Y63720435D01*
X36982662Y63780000D01*
X36677338Y63780000D01*
X36377882Y63720435D01*
X36095800Y63603592D01*
X35841932Y63433964D01*
X35626036Y63218068D01*
X35456408Y62964200D01*
X35339565Y62682118D01*
X35280000Y62382662D01*
X35280000Y62077338D01*
X35339565Y61777882D01*
X35456408Y61495800D01*
X35626036Y61241932D01*
X35841932Y61026036D01*
X36095800Y60856408D01*
X36377882Y60739565D01*
X36677338Y60680000D01*
X36982662Y60680000D01*
X37282118Y60739565D01*
X37379736Y60780000D01*
X38412522Y60780000D01*
X38395058Y60765668D01*
X38395055Y60765665D01*
X38339735Y60720265D01*
X38294335Y60664945D01*
X28235057Y50605666D01*
X28179735Y50560264D01*
X28120000Y50487477D01*
X28120000Y61127968D01*
X28221932Y61026036D01*
X28475800Y60856408D01*
X28757882Y60739565D01*
X29057338Y60680000D01*
X29362662Y60680000D01*
X29662118Y60739565D01*
X29759736Y60780000D01*
X30300000Y60780000D01*
X30300001Y58969738D01*
X30259565Y58872118D01*
X30200000Y58572662D01*
X30200000Y58267338D01*
X30259565Y57967882D01*
X30376408Y57685800D01*
X30546036Y57431932D01*
X30761932Y57216036D01*
X31015800Y57046408D01*
X31297882Y56929565D01*
X31597338Y56870000D01*
X31902662Y56870000D01*
X32202118Y56929565D01*
X32484200Y57046408D01*
X32738068Y57216036D01*
X32953964Y57431932D01*
X33123592Y57685800D01*
X33240435Y57967882D01*
X33300000Y58267338D01*
X33300000Y58572662D01*
X33240435Y58872118D01*
X33200000Y58969736D01*
X33200000Y61680264D01*
X33240435Y61777882D01*
X33300000Y62077338D01*
X33300000Y62382662D01*
X33240435Y62682118D01*
X33200000Y62779736D01*
X33200000Y68400000D01*
X41838775Y68400000D01*
X41910000Y68392985D01*
X41981225Y68400000D01*
X42194250Y68420981D01*
X42467576Y68503894D01*
X42719474Y68638536D01*
X42940265Y68819735D01*
X43121464Y69040526D01*
X43256106Y69292424D01*
X43339019Y69565750D01*
X43367015Y69850000D01*
X43360000Y69921225D01*
X43360000Y74380264D01*
X43400435Y74477882D01*
X43460000Y74777338D01*
X43460000Y75082662D01*
X43400435Y75382118D01*
X43360000Y75479736D01*
X43360000Y84540264D01*
X43400435Y84637882D01*
X43460000Y84937338D01*
X43460000Y85242662D01*
X43400435Y85542118D01*
X43283592Y85824200D01*
X43113964Y86078068D01*
X42898068Y86293964D01*
X42644200Y86463592D01*
X42362118Y86580435D01*
X42062662Y86640000D01*
X41757338Y86640000D01*
X41457882Y86580435D01*
X41175800Y86463592D01*
X40921932Y86293964D01*
X40820000Y86192032D01*
X40820000Y89620264D01*
X40860435Y89717882D01*
X40920000Y90017338D01*
X40920000Y90322662D01*
X40860435Y90622118D01*
X40743592Y90904200D01*
X40573964Y91158068D01*
X40358068Y91373964D01*
X40104200Y91543592D01*
X39822118Y91660435D01*
X39522662Y91720000D01*
X39217338Y91720000D01*
X38917882Y91660435D01*
X38635800Y91543592D01*
X38381932Y91373964D01*
X38166036Y91158068D01*
X38100000Y91059237D01*
X38033964Y91158068D01*
X37818068Y91373964D01*
X37564200Y91543592D01*
X37282118Y91660435D01*
X36982662Y91720000D01*
X36677338Y91720000D01*
X36377882Y91660435D01*
X36095800Y91543592D01*
X35841932Y91373964D01*
X35626036Y91158068D01*
X35560000Y91059237D01*
X35493964Y91158068D01*
X35278068Y91373964D01*
X35024200Y91543592D01*
X34742118Y91660435D01*
X34442662Y91720000D01*
X34137338Y91720000D01*
X33837882Y91660435D01*
X33555800Y91543592D01*
X33301932Y91373964D01*
X33086036Y91158068D01*
X33020000Y91059237D01*
X32953964Y91158068D01*
X32738068Y91373964D01*
X32484200Y91543592D01*
X32202118Y91660435D01*
X31902662Y91720000D01*
X31597338Y91720000D01*
X31297882Y91660435D01*
X31015800Y91543592D01*
X30761932Y91373964D01*
X30546036Y91158068D01*
X30376408Y90904200D01*
X30259565Y90622118D01*
X30200000Y90322662D01*
X30200000Y90017338D01*
X30259565Y89717882D01*
X30300000Y89620264D01*
X30300001Y75479738D01*
X30259565Y75382118D01*
X30200000Y75082662D01*
X30200000Y74777338D01*
X30259565Y74477882D01*
X30376408Y74195800D01*
X30546036Y73941932D01*
X30761932Y73726036D01*
X31015800Y73556408D01*
X31297882Y73439565D01*
X31597338Y73380000D01*
X31902662Y73380000D01*
X32202118Y73439565D01*
X32484200Y73556408D01*
X32738068Y73726036D01*
X32953964Y73941932D01*
X33020000Y74040763D01*
X33086036Y73941932D01*
X33301932Y73726036D01*
X33555800Y73556408D01*
X33837882Y73439565D01*
X34137338Y73380000D01*
X34442662Y73380000D01*
X34742118Y73439565D01*
X35024200Y73556408D01*
X35278068Y73726036D01*
X35493964Y73941932D01*
X35560000Y74040763D01*
X35626036Y73941932D01*
X35841932Y73726036D01*
X36095800Y73556408D01*
X36377882Y73439565D01*
X36677338Y73380000D01*
X36982662Y73380000D01*
X37282118Y73439565D01*
X37564200Y73556408D01*
X37818068Y73726036D01*
X38033964Y73941932D01*
X38100000Y74040763D01*
X38166036Y73941932D01*
X38381932Y73726036D01*
X38635800Y73556408D01*
X38917882Y73439565D01*
X39217338Y73380000D01*
X39522662Y73380000D01*
X39822118Y73439565D01*
X40104200Y73556408D01*
X40358068Y73726036D01*
X40460001Y73827969D01*
X40460000Y71300000D01*
X32299736Y71300000D01*
X32202118Y71340435D01*
X31902662Y71400000D01*
X31597338Y71400000D01*
X31297882Y71340435D01*
X31015800Y71223592D01*
X30761932Y71053964D01*
X30546036Y70838068D01*
X30376408Y70584200D01*
X30259565Y70302118D01*
X30200000Y70002662D01*
X30200000Y69697338D01*
X30259565Y69397882D01*
X30300001Y69300262D01*
X30300000Y63680000D01*
X29759736Y63680000D01*
X29662118Y63720435D01*
X29362662Y63780000D01*
X29057338Y63780000D01*
X28757882Y63720435D01*
X28475800Y63603592D01*
X28221932Y63433964D01*
X28120000Y63332032D01*
X28120000Y64220264D01*
X28160435Y64317882D01*
X28220000Y64617338D01*
X28220000Y64922662D01*
X28160435Y65222118D01*
X28043592Y65504200D01*
X27873964Y65758068D01*
X27658068Y65973964D01*
X27404200Y66143592D01*
X27122118Y66260435D01*
X26822662Y66320000D01*
X26517338Y66320000D01*
X26217882Y66260435D01*
X25935800Y66143592D01*
X25681932Y65973964D01*
X25466036Y65758068D01*
X25296408Y65504200D01*
X25179565Y65222118D01*
X25120000Y64922662D01*
X25120000Y64617338D01*
X25179565Y64317882D01*
X25220001Y64220262D01*
X25220001Y62779738D01*
X25179565Y62682118D01*
X25120000Y62382662D01*
X25120000Y62077338D01*
X25179565Y61777882D01*
X25220001Y61680262D01*
X25220000Y53027478D01*
X25205668Y53044942D01*
X25205665Y53044945D01*
X25160265Y53100265D01*
X25104944Y53145666D01*
X23040000Y55210609D01*
X23040000Y61680264D01*
X23080435Y61777882D01*
X23140000Y62077338D01*
X23140000Y62382662D01*
X23080435Y62682118D01*
X22963592Y62964200D01*
X22793964Y63218068D01*
X22578068Y63433964D01*
X22324200Y63603592D01*
X22042118Y63720435D01*
X21742662Y63780000D01*
X21437338Y63780000D01*
X21137882Y63720435D01*
X20855800Y63603592D01*
X20601932Y63433964D01*
X20386036Y63218068D01*
X20320000Y63119237D01*
X20253964Y63218068D01*
X20038068Y63433964D01*
X19784200Y63603592D01*
X19502118Y63720435D01*
X19202662Y63780000D01*
X18897338Y63780000D01*
X18597882Y63720435D01*
X18315800Y63603592D01*
X18061932Y63433964D01*
X17846036Y63218068D01*
X17780000Y63119237D01*
X17713964Y63218068D01*
X17498068Y63433964D01*
X17244200Y63603592D01*
X16962118Y63720435D01*
X16662662Y63780000D01*
X16357338Y63780000D01*
X16057882Y63720435D01*
X15960264Y63680000D01*
X14519736Y63680000D01*
X14422118Y63720435D01*
X14122662Y63780000D01*
X13817338Y63780000D01*
X13517882Y63720435D01*
X13235800Y63603592D01*
X12981932Y63433964D01*
X12766036Y63218068D01*
X12596408Y62964200D01*
X12479565Y62682118D01*
X12420000Y62382662D01*
X12420000Y62077338D01*
X12479565Y61777882D01*
X12596408Y61495800D01*
X12766036Y61241932D01*
X12981932Y61026036D01*
X13235800Y60856408D01*
X13517882Y60739565D01*
X13817338Y60680000D01*
X14122662Y60680000D01*
X14422118Y60739565D01*
X14519736Y60780000D01*
X15960264Y60780000D01*
X16057882Y60739565D01*
X16357338Y60680000D01*
X16662662Y60680000D01*
X16962118Y60739565D01*
X17244200Y60856408D01*
X17498068Y61026036D01*
X17600000Y61127968D01*
X17600001Y55210611D01*
X15535057Y53145666D01*
X15479735Y53100264D01*
X15298536Y52879473D01*
X15163894Y52627575D01*
X15080981Y52354249D01*
X15060000Y52141224D01*
X15060000Y52141215D01*
X15052986Y52070000D01*
X15060000Y51998785D01*
X15060001Y47950609D01*
X14894321Y48116289D01*
X14656833Y48274973D01*
X14392949Y48384277D01*
X14112813Y48440000D01*
X13827187Y48440000D01*
X13547051Y48384277D01*
X13283167Y48274973D01*
X13045679Y48116289D01*
X12843711Y47914321D01*
X12700000Y47699242D01*
X12556289Y47914321D01*
X12354321Y48116289D01*
X12116833Y48274973D01*
X11852949Y48384277D01*
X11572813Y48440000D01*
X11287187Y48440000D01*
X11007051Y48384277D01*
X10743167Y48274973D01*
X10505679Y48116289D01*
X10303711Y47914321D01*
X10160000Y47699242D01*
X10016289Y47914321D01*
X9814321Y48116289D01*
X9576833Y48274973D01*
X9312949Y48384277D01*
X9032813Y48440000D01*
X8747187Y48440000D01*
X8467051Y48384277D01*
X8203167Y48274973D01*
X7965679Y48116289D01*
X7800000Y47950610D01*
X7800000Y53160000D01*
X10880264Y53160000D01*
X10977882Y53119565D01*
X11277338Y53060000D01*
X11582662Y53060000D01*
X11882118Y53119565D01*
X12164200Y53236408D01*
X12418068Y53406036D01*
X12633964Y53621932D01*
X12803592Y53875800D01*
X12920435Y54157882D01*
X12980000Y54457338D01*
X12980000Y54762662D01*
X12920435Y55062118D01*
X12803592Y55344200D01*
X12633964Y55598068D01*
X12418068Y55813964D01*
X12164200Y55983592D01*
X11882118Y56100435D01*
X11582662Y56160000D01*
X11277338Y56160000D01*
X10977882Y56100435D01*
X10880264Y56060000D01*
X6421225Y56060000D01*
X6350000Y56067015D01*
X6278775Y56060000D01*
X4359736Y56060000D01*
X4262118Y56100435D01*
X3962662Y56160000D01*
X3657338Y56160000D01*
X3357882Y56100435D01*
X3075800Y55983592D01*
X2821932Y55813964D01*
X2606036Y55598068D01*
X2436408Y55344200D01*
X2319565Y55062118D01*
X2260000Y54762662D01*
X150000Y54762662D01*
X150000Y64922662D01*
X2260000Y64922662D01*
X2260000Y64617338D01*
X2319565Y64317882D01*
X2360000Y64220263D01*
X2360001Y62779738D01*
X2319565Y62682118D01*
X2260000Y62382662D01*
X2260000Y62077338D01*
X2319565Y61777882D01*
X2436408Y61495800D01*
X2606036Y61241932D01*
X2821932Y61026036D01*
X3075800Y60856408D01*
X3357882Y60739565D01*
X3657338Y60680000D01*
X3962662Y60680000D01*
X4262118Y60739565D01*
X4544200Y60856408D01*
X4798068Y61026036D01*
X5013964Y61241932D01*
X5080000Y61340763D01*
X5146036Y61241932D01*
X5361932Y61026036D01*
X5615800Y60856408D01*
X5897882Y60739565D01*
X6197338Y60680000D01*
X6502662Y60680000D01*
X6802118Y60739565D01*
X6899736Y60780000D01*
X8340264Y60780000D01*
X8437882Y60739565D01*
X8737338Y60680000D01*
X9042662Y60680000D01*
X9342118Y60739565D01*
X9624200Y60856408D01*
X9878068Y61026036D01*
X10093964Y61241932D01*
X10263592Y61495800D01*
X10380435Y61777882D01*
X10440000Y62077338D01*
X10440000Y62382662D01*
X10380435Y62682118D01*
X10340000Y62779736D01*
X10340000Y68400000D01*
X18500264Y68400000D01*
X18597882Y68359565D01*
X18897338Y68300000D01*
X19202662Y68300000D01*
X19502118Y68359565D01*
X19784200Y68476408D01*
X20038068Y68646036D01*
X20253964Y68861932D01*
X20423592Y69115800D01*
X20540435Y69397882D01*
X20600000Y69697338D01*
X20600000Y70002662D01*
X20540435Y70302118D01*
X20500000Y70399736D01*
X20500000Y74380264D01*
X20540435Y74477882D01*
X20600000Y74777338D01*
X20600000Y75082662D01*
X20540435Y75382118D01*
X20423592Y75664200D01*
X20253964Y75918068D01*
X20038068Y76133964D01*
X19784200Y76303592D01*
X19502118Y76420435D01*
X19202662Y76480000D01*
X18897338Y76480000D01*
X18597882Y76420435D01*
X18315800Y76303592D01*
X18061932Y76133964D01*
X17960000Y76032032D01*
X17960000Y77622662D01*
X22580000Y77622662D01*
X22580000Y77317338D01*
X22639565Y77017882D01*
X22756408Y76735800D01*
X22926036Y76481932D01*
X23141932Y76266036D01*
X23395800Y76096408D01*
X23677882Y75979565D01*
X23977338Y75920000D01*
X24282662Y75920000D01*
X24582118Y75979565D01*
X24679736Y76020000D01*
X25220000Y76020000D01*
X25220000Y75479736D01*
X25179565Y75382118D01*
X25120000Y75082662D01*
X25120000Y74777338D01*
X25179565Y74477882D01*
X25296408Y74195800D01*
X25466036Y73941932D01*
X25681932Y73726036D01*
X25935800Y73556408D01*
X26217882Y73439565D01*
X26517338Y73380000D01*
X26822662Y73380000D01*
X27122118Y73439565D01*
X27404200Y73556408D01*
X27658068Y73726036D01*
X27873964Y73941932D01*
X28043592Y74195800D01*
X28160435Y74477882D01*
X28220000Y74777338D01*
X28220000Y75082662D01*
X28160435Y75382118D01*
X28120000Y75479736D01*
X28120000Y76920264D01*
X28160435Y77017882D01*
X28220000Y77317338D01*
X28220000Y77622662D01*
X28160435Y77922118D01*
X28120000Y78019736D01*
X28120000Y82000264D01*
X28160435Y82097882D01*
X28220000Y82397338D01*
X28220000Y82702662D01*
X28160435Y83002118D01*
X28043592Y83284200D01*
X27873964Y83538068D01*
X27658068Y83753964D01*
X27404200Y83923592D01*
X27122118Y84040435D01*
X26822662Y84100000D01*
X26517338Y84100000D01*
X26217882Y84040435D01*
X25935800Y83923592D01*
X25681932Y83753964D01*
X25466036Y83538068D01*
X25296408Y83284200D01*
X25179565Y83002118D01*
X25120000Y82702662D01*
X25120000Y82397338D01*
X25179565Y82097882D01*
X25220001Y82000262D01*
X25220001Y78920000D01*
X24679736Y78920000D01*
X24582118Y78960435D01*
X24282662Y79020000D01*
X23977338Y79020000D01*
X23677882Y78960435D01*
X23395800Y78843592D01*
X23141932Y78673964D01*
X22926036Y78458068D01*
X22756408Y78204200D01*
X22639565Y77922118D01*
X22580000Y77622662D01*
X17960000Y77622662D01*
X17960000Y89620264D01*
X18000435Y89717882D01*
X18060000Y90017338D01*
X18060000Y90322662D01*
X18000435Y90622118D01*
X17883592Y90904200D01*
X17713964Y91158068D01*
X17498068Y91373964D01*
X17244200Y91543592D01*
X16962118Y91660435D01*
X16662662Y91720000D01*
X16357338Y91720000D01*
X16057882Y91660435D01*
X15775800Y91543592D01*
X15521932Y91373964D01*
X15306036Y91158068D01*
X15240000Y91059237D01*
X15173964Y91158068D01*
X14958068Y91373964D01*
X14704200Y91543592D01*
X14422118Y91660435D01*
X14122662Y91720000D01*
X13817338Y91720000D01*
X13517882Y91660435D01*
X13235800Y91543592D01*
X12981932Y91373964D01*
X12766036Y91158068D01*
X12700000Y91059237D01*
X12633964Y91158068D01*
X12418068Y91373964D01*
X12164200Y91543592D01*
X11882118Y91660435D01*
X11582662Y91720000D01*
X11277338Y91720000D01*
X10977882Y91660435D01*
X10695800Y91543592D01*
X10441932Y91373964D01*
X10226036Y91158068D01*
X10160000Y91059237D01*
X10093964Y91158068D01*
X9878068Y91373964D01*
X9624200Y91543592D01*
X9342118Y91660435D01*
X9042662Y91720000D01*
X8737338Y91720000D01*
X8437882Y91660435D01*
X8155800Y91543592D01*
X7901932Y91373964D01*
X7686036Y91158068D01*
X7516408Y90904200D01*
X7399565Y90622118D01*
X7340000Y90322662D01*
X7340000Y90017338D01*
X7399565Y89717882D01*
X7440000Y89620264D01*
X7440001Y75479738D01*
X7399565Y75382118D01*
X7340000Y75082662D01*
X7340000Y74777338D01*
X7399565Y74477882D01*
X7516408Y74195800D01*
X7686036Y73941932D01*
X7901932Y73726036D01*
X8155800Y73556408D01*
X8437882Y73439565D01*
X8737338Y73380000D01*
X9042662Y73380000D01*
X9342118Y73439565D01*
X9624200Y73556408D01*
X9878068Y73726036D01*
X10093964Y73941932D01*
X10160000Y74040763D01*
X10226036Y73941932D01*
X10441932Y73726036D01*
X10695800Y73556408D01*
X10977882Y73439565D01*
X11277338Y73380000D01*
X11582662Y73380000D01*
X11882118Y73439565D01*
X12164200Y73556408D01*
X12418068Y73726036D01*
X12633964Y73941932D01*
X12700000Y74040763D01*
X12766036Y73941932D01*
X12981932Y73726036D01*
X13235800Y73556408D01*
X13517882Y73439565D01*
X13817338Y73380000D01*
X14122662Y73380000D01*
X14422118Y73439565D01*
X14704200Y73556408D01*
X14958068Y73726036D01*
X15173964Y73941932D01*
X15240000Y74040763D01*
X15306036Y73941932D01*
X15521932Y73726036D01*
X15775800Y73556408D01*
X16057882Y73439565D01*
X16357338Y73380000D01*
X16662662Y73380000D01*
X16962118Y73439565D01*
X17244200Y73556408D01*
X17498068Y73726036D01*
X17600001Y73827969D01*
X17600000Y71300000D01*
X8961225Y71300000D01*
X8890000Y71307015D01*
X8818775Y71300000D01*
X8605750Y71279019D01*
X8332424Y71196106D01*
X8080526Y71061464D01*
X7859735Y70880265D01*
X7678536Y70659474D01*
X7543894Y70407576D01*
X7460981Y70134250D01*
X7432985Y69850000D01*
X7440000Y69778776D01*
X7440001Y63680000D01*
X6899736Y63680000D01*
X6802118Y63720435D01*
X6502662Y63780000D01*
X6197338Y63780000D01*
X5897882Y63720435D01*
X5615800Y63603592D01*
X5361932Y63433964D01*
X5260000Y63332032D01*
X5260000Y64220264D01*
X5300435Y64317882D01*
X5360000Y64617338D01*
X5360000Y64922662D01*
X5300435Y65222118D01*
X5183592Y65504200D01*
X5013964Y65758068D01*
X4798068Y65973964D01*
X4544200Y66143592D01*
X4262118Y66260435D01*
X3962662Y66320000D01*
X3657338Y66320000D01*
X3357882Y66260435D01*
X3075800Y66143592D01*
X2821932Y65973964D01*
X2606036Y65758068D01*
X2436408Y65504200D01*
X2319565Y65222118D01*
X2260000Y64922662D01*
X150000Y64922662D01*
X150000Y82702662D01*
X2260000Y82702662D01*
X2260000Y82397338D01*
X2319565Y82097882D01*
X2360001Y82000262D01*
X2360000Y78019737D01*
X2319565Y77922118D01*
X2260000Y77622662D01*
X2260000Y77317338D01*
X2319565Y77017882D01*
X2360000Y76920263D01*
X2360000Y75479736D01*
X2319565Y75382118D01*
X2260000Y75082662D01*
X2260000Y74777338D01*
X2319565Y74477882D01*
X2436408Y74195800D01*
X2606036Y73941932D01*
X2821932Y73726036D01*
X3075800Y73556408D01*
X3357882Y73439565D01*
X3657338Y73380000D01*
X3962662Y73380000D01*
X4262118Y73439565D01*
X4544200Y73556408D01*
X4798068Y73726036D01*
X5013964Y73941932D01*
X5183592Y74195800D01*
X5300435Y74477882D01*
X5360000Y74777338D01*
X5360000Y75082662D01*
X5300435Y75382118D01*
X5260000Y75479736D01*
X5260000Y76920264D01*
X5300435Y77017882D01*
X5360000Y77317338D01*
X5360000Y77622662D01*
X5300435Y77922118D01*
X5260000Y78019736D01*
X5260000Y82000264D01*
X5300435Y82097882D01*
X5360000Y82397338D01*
X5360000Y82702662D01*
X5300435Y83002118D01*
X5183592Y83284200D01*
X5013964Y83538068D01*
X4798068Y83753964D01*
X4544200Y83923592D01*
X4262118Y84040435D01*
X3962662Y84100000D01*
X3657338Y84100000D01*
X3357882Y84040435D01*
X3075800Y83923592D01*
X2821932Y83753964D01*
X2606036Y83538068D01*
X2436408Y83284200D01*
X2319565Y83002118D01*
X2260000Y82702662D01*
X150000Y82702662D01*
X150000Y98910000D01*
X68430000Y98910000D01*
X68430000Y150000D01*
G37*
X68430000Y150000D02*
X150000Y150000D01*
X150000Y24130000D01*
X2352986Y24130000D01*
X2360000Y24058785D01*
X2360001Y20391224D01*
X2352986Y20320000D01*
X2360001Y20248775D01*
X2380564Y20040000D01*
X2380982Y20035751D01*
X2463894Y19762426D01*
X2598536Y19510527D01*
X2734332Y19345059D01*
X2734336Y19345055D01*
X2779736Y19289735D01*
X2835056Y19244335D01*
X10354335Y11725056D01*
X10399735Y11669735D01*
X10455055Y11624335D01*
X10455058Y11624332D01*
X10505833Y11582662D01*
X10620526Y11488536D01*
X10872424Y11353894D01*
X11145750Y11270981D01*
X11358775Y11250000D01*
X11358784Y11250000D01*
X11429999Y11242986D01*
X11501214Y11250000D01*
X14639391Y11250000D01*
X15060000Y10829390D01*
X15060001Y9439738D01*
X15019565Y9342118D01*
X14960000Y9042662D01*
X14960000Y8737338D01*
X15019565Y8437882D01*
X15060000Y8340263D01*
X15060001Y6421235D01*
X15052985Y6350000D01*
X15080981Y6065750D01*
X15163894Y5792424D01*
X15298536Y5540526D01*
X15479735Y5319735D01*
X15700526Y5138536D01*
X15952424Y5003894D01*
X16225750Y4920981D01*
X16438775Y4900000D01*
X16510000Y4892985D01*
X16581225Y4900000D01*
X20989391Y4900000D01*
X23054334Y2835056D01*
X23099735Y2779735D01*
X23155055Y2734335D01*
X23155058Y2734332D01*
X23274092Y2636644D01*
X23320526Y2598536D01*
X23572424Y2463894D01*
X23845750Y2380981D01*
X24058775Y2360000D01*
X24058784Y2360000D01*
X24129999Y2352986D01*
X24201214Y2360000D01*
X26120264Y2360000D01*
X26217882Y2319565D01*
X26517338Y2260000D01*
X26822662Y2260000D01*
X27122118Y2319565D01*
X27404200Y2436408D01*
X27658068Y2606036D01*
X27873964Y2821932D01*
X27940000Y2920763D01*
X28006036Y2821932D01*
X28221932Y2606036D01*
X28475800Y2436408D01*
X28757882Y2319565D01*
X29057338Y2260000D01*
X29362662Y2260000D01*
X29662118Y2319565D01*
X29944200Y2436408D01*
X30198068Y2606036D01*
X30413964Y2821932D01*
X30480000Y2920763D01*
X30546036Y2821932D01*
X30761932Y2606036D01*
X31015800Y2436408D01*
X31297882Y2319565D01*
X31597338Y2260000D01*
X31902662Y2260000D01*
X32202118Y2319565D01*
X32484200Y2436408D01*
X32738068Y2606036D01*
X32953964Y2821932D01*
X33020000Y2920763D01*
X33086036Y2821932D01*
X33301932Y2606036D01*
X33555800Y2436408D01*
X33837882Y2319565D01*
X34137338Y2260000D01*
X34442662Y2260000D01*
X34742118Y2319565D01*
X35024200Y2436408D01*
X35278068Y2606036D01*
X35493964Y2821932D01*
X35560000Y2920763D01*
X35626036Y2821932D01*
X35841932Y2606036D01*
X36095800Y2436408D01*
X36377882Y2319565D01*
X36677338Y2260000D01*
X36982662Y2260000D01*
X37282118Y2319565D01*
X37564200Y2436408D01*
X37818068Y2606036D01*
X38033964Y2821932D01*
X38100000Y2920763D01*
X38166036Y2821932D01*
X38381932Y2606036D01*
X38635800Y2436408D01*
X38917882Y2319565D01*
X39217338Y2260000D01*
X39522662Y2260000D01*
X39822118Y2319565D01*
X40104200Y2436408D01*
X40358068Y2606036D01*
X40573964Y2821932D01*
X40640000Y2920763D01*
X40706036Y2821932D01*
X40921932Y2606036D01*
X41175800Y2436408D01*
X41457882Y2319565D01*
X41757338Y2260000D01*
X42062662Y2260000D01*
X42362118Y2319565D01*
X42644200Y2436408D01*
X42898068Y2606036D01*
X43113964Y2821932D01*
X43283592Y3075800D01*
X43400435Y3357882D01*
X43460000Y3657338D01*
X43460000Y3962662D01*
X43400435Y4262118D01*
X43360000Y4359736D01*
X43360000Y7440000D01*
X48427968Y7440000D01*
X48326036Y7338068D01*
X48156408Y7084200D01*
X48039565Y6802118D01*
X47980000Y6502662D01*
X47980000Y6197338D01*
X48039565Y5897882D01*
X48156408Y5615800D01*
X48326036Y5361932D01*
X48541932Y5146036D01*
X48795800Y4976408D01*
X49077882Y4859565D01*
X49377338Y4800000D01*
X49682662Y4800000D01*
X49982118Y4859565D01*
X50079736Y4900000D01*
X53507968Y4900000D01*
X53406036Y4798068D01*
X53236408Y4544200D01*
X53119565Y4262118D01*
X53060000Y3962662D01*
X53060000Y3657338D01*
X53119565Y3357882D01*
X53236408Y3075800D01*
X53406036Y2821932D01*
X53621932Y2606036D01*
X53875800Y2436408D01*
X54157882Y2319565D01*
X54457338Y2260000D01*
X54762662Y2260000D01*
X55062118Y2319565D01*
X55159736Y2360000D01*
X56600264Y2360000D01*
X56697882Y2319565D01*
X56997338Y2260000D01*
X57302662Y2260000D01*
X57602118Y2319565D01*
X57884200Y2436408D01*
X58138068Y2606036D01*
X58353964Y2821932D01*
X58523592Y3075800D01*
X58564027Y3173418D01*
X60664949Y5274339D01*
X60720264Y5319735D01*
X60765661Y5375051D01*
X60765668Y5375058D01*
X60901463Y5540525D01*
X60901465Y5540527D01*
X61036106Y5792424D01*
X61119019Y6065750D01*
X61140000Y6278775D01*
X61140000Y6278784D01*
X61147014Y6349999D01*
X61140000Y6421214D01*
X61140000Y18978786D01*
X61147014Y19050001D01*
X61140000Y19121216D01*
X61140000Y19121225D01*
X61119019Y19334250D01*
X61036106Y19607576D01*
X60901464Y19859474D01*
X60863356Y19905908D01*
X60765668Y20024942D01*
X60765665Y20024945D01*
X60720265Y20080265D01*
X60664944Y20125666D01*
X58564027Y22226582D01*
X58523592Y22324200D01*
X58353964Y22578068D01*
X58138068Y22793964D01*
X57884200Y22963592D01*
X57602118Y23080435D01*
X57302662Y23140000D01*
X56997338Y23140000D01*
X56697882Y23080435D01*
X56415800Y22963592D01*
X56161932Y22793964D01*
X55946036Y22578068D01*
X55776408Y22324200D01*
X55659565Y22042118D01*
X55600000Y21742662D01*
X55600000Y21437338D01*
X55659565Y21137882D01*
X55776408Y20855800D01*
X55946036Y20601932D01*
X56161932Y20386036D01*
X56415800Y20216408D01*
X56513418Y20175973D01*
X58240001Y18449389D01*
X58240001Y14927477D01*
X58180265Y15000265D01*
X57959474Y15181464D01*
X57707576Y15316106D01*
X57434250Y15399019D01*
X57221225Y15420000D01*
X57150000Y15427015D01*
X57078775Y15420000D01*
X55159736Y15420000D01*
X55062118Y15460435D01*
X54762662Y15520000D01*
X54457338Y15520000D01*
X54157882Y15460435D01*
X54060264Y15420000D01*
X50079736Y15420000D01*
X49982118Y15460435D01*
X49682662Y15520000D01*
X49377338Y15520000D01*
X49077882Y15460435D01*
X48795800Y15343592D01*
X48541932Y15173964D01*
X48326036Y14958068D01*
X48156408Y14704200D01*
X48039565Y14422118D01*
X47980000Y14122662D01*
X47980000Y13817338D01*
X48039565Y13517882D01*
X48156408Y13235800D01*
X48326036Y12981932D01*
X48541932Y12766036D01*
X48640763Y12700000D01*
X48541932Y12633964D01*
X48326036Y12418068D01*
X48156408Y12164200D01*
X48039565Y11882118D01*
X47980000Y11582662D01*
X47980000Y11277338D01*
X48039565Y10977882D01*
X48156408Y10695800D01*
X48326036Y10441932D01*
X48427968Y10340000D01*
X43360000Y10340000D01*
X43360000Y14639391D01*
X43780610Y15060000D01*
X46918785Y15060000D01*
X46990000Y15052986D01*
X47061215Y15060000D01*
X47061225Y15060000D01*
X47274250Y15080981D01*
X47547576Y15163894D01*
X47799474Y15298536D01*
X48020265Y15479735D01*
X48065670Y15535061D01*
X50504949Y17974339D01*
X50560264Y18019735D01*
X50605661Y18075051D01*
X50605668Y18075058D01*
X50741463Y18240525D01*
X50741465Y18240527D01*
X50876106Y18492424D01*
X50959019Y18765750D01*
X50980000Y18978775D01*
X50980000Y18978784D01*
X50987014Y19049999D01*
X50980000Y19121214D01*
X50980000Y21732813D01*
X50966034Y21803023D01*
X50959019Y21874250D01*
X50938242Y21942741D01*
X50924277Y22012949D01*
X50896883Y22079085D01*
X50876106Y22147576D01*
X50842368Y22210696D01*
X50814973Y22276833D01*
X50775202Y22336355D01*
X50741464Y22399474D01*
X50696062Y22454796D01*
X50656289Y22514321D01*
X50605665Y22564945D01*
X50560265Y22620265D01*
X50504945Y22665665D01*
X50454321Y22716289D01*
X50394796Y22756062D01*
X50339474Y22801464D01*
X50276355Y22835202D01*
X50216833Y22874973D01*
X50150696Y22902368D01*
X50087576Y22936106D01*
X50019085Y22956883D01*
X49952949Y22984277D01*
X49882741Y22998242D01*
X49814250Y23019019D01*
X49743023Y23026034D01*
X49672813Y23040000D01*
X49601225Y23040000D01*
X49530000Y23047015D01*
X49458775Y23040000D01*
X49387187Y23040000D01*
X49316976Y23026034D01*
X49245751Y23019019D01*
X49177262Y22998243D01*
X49107051Y22984277D01*
X49040912Y22956881D01*
X48972425Y22936106D01*
X48909309Y22902370D01*
X48843167Y22874973D01*
X48783641Y22835199D01*
X48720527Y22801464D01*
X48665209Y22756066D01*
X48605679Y22716289D01*
X48555051Y22665661D01*
X48499736Y22620265D01*
X48454340Y22564950D01*
X48403711Y22514321D01*
X48363934Y22454790D01*
X48318537Y22399474D01*
X48284803Y22336363D01*
X48260000Y22299242D01*
X48235202Y22336355D01*
X48201464Y22399474D01*
X48156063Y22454795D01*
X48116289Y22514321D01*
X48065661Y22564949D01*
X48020264Y22620265D01*
X47964949Y22665661D01*
X47914321Y22716289D01*
X47854791Y22756066D01*
X47799473Y22801464D01*
X47736359Y22835199D01*
X47676833Y22874973D01*
X47610691Y22902370D01*
X47547575Y22936106D01*
X47479088Y22956881D01*
X47412949Y22984277D01*
X47342738Y22998243D01*
X47274249Y23019019D01*
X47203024Y23026034D01*
X47132813Y23040000D01*
X47061225Y23040000D01*
X46990000Y23047015D01*
X46918775Y23040000D01*
X46847187Y23040000D01*
X46776977Y23026034D01*
X46705750Y23019019D01*
X46637259Y22998242D01*
X46567051Y22984277D01*
X46500915Y22956883D01*
X46432424Y22936106D01*
X46369304Y22902368D01*
X46303167Y22874973D01*
X46243645Y22835202D01*
X46180526Y22801464D01*
X46125205Y22756063D01*
X46065679Y22716289D01*
X46015051Y22665661D01*
X45959735Y22620264D01*
X45914339Y22564949D01*
X45863711Y22514321D01*
X45823934Y22454791D01*
X45778536Y22399473D01*
X45744801Y22336359D01*
X45720000Y22299242D01*
X45576289Y22514321D01*
X45374321Y22716289D01*
X45136833Y22874973D01*
X44872949Y22984277D01*
X44592813Y23040000D01*
X44307187Y23040000D01*
X44027051Y22984277D01*
X43763167Y22874973D01*
X43525679Y22716289D01*
X43323711Y22514321D01*
X43180000Y22299242D01*
X43036289Y22514321D01*
X42834321Y22716289D01*
X42596833Y22874973D01*
X42332949Y22984277D01*
X42052813Y23040000D01*
X41767187Y23040000D01*
X41487051Y22984277D01*
X41223167Y22874973D01*
X40985679Y22716289D01*
X40783711Y22514321D01*
X40640000Y22299242D01*
X40615202Y22336355D01*
X40581464Y22399474D01*
X40536063Y22454795D01*
X40496289Y22514321D01*
X40445661Y22564949D01*
X40400264Y22620265D01*
X40344949Y22665661D01*
X40294321Y22716289D01*
X40234791Y22756066D01*
X40179473Y22801464D01*
X40116359Y22835199D01*
X40056833Y22874973D01*
X39990691Y22902370D01*
X39927575Y22936106D01*
X39859088Y22956881D01*
X39792949Y22984277D01*
X39722738Y22998243D01*
X39654249Y23019019D01*
X39583024Y23026034D01*
X39512813Y23040000D01*
X39441225Y23040000D01*
X39370000Y23047015D01*
X39298775Y23040000D01*
X39227187Y23040000D01*
X39156977Y23026034D01*
X39085750Y23019019D01*
X39017259Y22998242D01*
X38947051Y22984277D01*
X38880915Y22956883D01*
X38812424Y22936106D01*
X38749304Y22902368D01*
X38683167Y22874973D01*
X38623645Y22835202D01*
X38560526Y22801464D01*
X38505205Y22756063D01*
X38445679Y22716289D01*
X38395051Y22665661D01*
X38339735Y22620264D01*
X38294339Y22564949D01*
X38243711Y22514321D01*
X38203934Y22454791D01*
X38158536Y22399473D01*
X38124801Y22336359D01*
X38085027Y22276833D01*
X38057630Y22210691D01*
X38023894Y22147575D01*
X38003119Y22079088D01*
X37975723Y22012949D01*
X37961757Y21942738D01*
X37940981Y21874249D01*
X37933966Y21803024D01*
X37920000Y21732813D01*
X37920000Y20776397D01*
X35999270Y18855666D01*
X35943948Y18810264D01*
X35762749Y18589473D01*
X35740000Y18546913D01*
X35740000Y21732813D01*
X35726034Y21803023D01*
X35719019Y21874250D01*
X35698242Y21942741D01*
X35684277Y22012949D01*
X35656883Y22079085D01*
X35636106Y22147576D01*
X35602368Y22210696D01*
X35574973Y22276833D01*
X35535202Y22336355D01*
X35501464Y22399474D01*
X35456063Y22454795D01*
X35416289Y22514321D01*
X35365661Y22564949D01*
X35320264Y22620265D01*
X35264949Y22665661D01*
X35214321Y22716289D01*
X35154791Y22756066D01*
X35099473Y22801464D01*
X35036359Y22835199D01*
X34976833Y22874973D01*
X34910691Y22902370D01*
X34847575Y22936106D01*
X34779088Y22956881D01*
X34712949Y22984277D01*
X34642738Y22998243D01*
X34574249Y23019019D01*
X34503024Y23026034D01*
X34432813Y23040000D01*
X34361225Y23040000D01*
X34290000Y23047015D01*
X34218775Y23040000D01*
X34147187Y23040000D01*
X34076977Y23026034D01*
X34005750Y23019019D01*
X33937259Y22998242D01*
X33867051Y22984277D01*
X33800915Y22956883D01*
X33732424Y22936106D01*
X33669304Y22902368D01*
X33603167Y22874973D01*
X33543645Y22835202D01*
X33480526Y22801464D01*
X33425205Y22756063D01*
X33365679Y22716289D01*
X33315051Y22665661D01*
X33259735Y22620264D01*
X33214339Y22564949D01*
X33163711Y22514321D01*
X33123934Y22454791D01*
X33078536Y22399473D01*
X33044801Y22336359D01*
X33020000Y22299242D01*
X32995202Y22336355D01*
X32961464Y22399474D01*
X32916063Y22454795D01*
X32876289Y22514321D01*
X32825661Y22564949D01*
X32780264Y22620265D01*
X32724949Y22665661D01*
X32674321Y22716289D01*
X32614791Y22756066D01*
X32559473Y22801464D01*
X32496359Y22835199D01*
X32436833Y22874973D01*
X32370691Y22902370D01*
X32307575Y22936106D01*
X32239088Y22956881D01*
X32172949Y22984277D01*
X32102738Y22998243D01*
X32034249Y23019019D01*
X31963024Y23026034D01*
X31892813Y23040000D01*
X31821225Y23040000D01*
X31750000Y23047015D01*
X31678775Y23040000D01*
X31607187Y23040000D01*
X31536977Y23026034D01*
X31465750Y23019019D01*
X31397259Y22998242D01*
X31327051Y22984277D01*
X31260915Y22956883D01*
X31192424Y22936106D01*
X31129304Y22902368D01*
X31063167Y22874973D01*
X31003645Y22835202D01*
X30940526Y22801464D01*
X30885205Y22756063D01*
X30825679Y22716289D01*
X30775051Y22665661D01*
X30719735Y22620264D01*
X30674339Y22564949D01*
X30623711Y22514321D01*
X30583934Y22454791D01*
X30538536Y22399473D01*
X30504801Y22336359D01*
X30480000Y22299242D01*
X30455202Y22336355D01*
X30421464Y22399474D01*
X30376063Y22454795D01*
X30336289Y22514321D01*
X30285661Y22564949D01*
X30240264Y22620265D01*
X30184949Y22665661D01*
X30134321Y22716289D01*
X30074791Y22756066D01*
X30019473Y22801464D01*
X29956359Y22835199D01*
X29896833Y22874973D01*
X29830691Y22902370D01*
X29767575Y22936106D01*
X29699088Y22956881D01*
X29632949Y22984277D01*
X29562738Y22998243D01*
X29494249Y23019019D01*
X29423024Y23026034D01*
X29352813Y23040000D01*
X29281225Y23040000D01*
X29210000Y23047015D01*
X29138775Y23040000D01*
X29067187Y23040000D01*
X28996977Y23026034D01*
X28925750Y23019019D01*
X28857259Y22998242D01*
X28787051Y22984277D01*
X28720915Y22956883D01*
X28652424Y22936106D01*
X28589304Y22902368D01*
X28523167Y22874973D01*
X28463645Y22835202D01*
X28400526Y22801464D01*
X28345205Y22756063D01*
X28285679Y22716289D01*
X28235051Y22665661D01*
X28179735Y22620264D01*
X28134339Y22564949D01*
X28083711Y22514321D01*
X28043934Y22454791D01*
X27998536Y22399473D01*
X27964801Y22336359D01*
X27925027Y22276833D01*
X27897630Y22210691D01*
X27863894Y22147575D01*
X27843119Y22079088D01*
X27815723Y22012949D01*
X27801757Y21942738D01*
X27780981Y21874249D01*
X27773966Y21803024D01*
X27760000Y21732813D01*
X27760000Y20007478D01*
X27700265Y20080265D01*
X27479474Y20261464D01*
X27227576Y20396106D01*
X26954250Y20479019D01*
X26741225Y20500000D01*
X26670000Y20507015D01*
X26598775Y20500000D01*
X23316397Y20500000D01*
X23040000Y20776396D01*
X23040000Y21732813D01*
X23026034Y21803023D01*
X23019019Y21874250D01*
X22998242Y21942741D01*
X22984277Y22012949D01*
X22956883Y22079085D01*
X22936106Y22147576D01*
X22902368Y22210696D01*
X22874973Y22276833D01*
X22835202Y22336355D01*
X22801464Y22399474D01*
X22756063Y22454795D01*
X22716289Y22514321D01*
X22665661Y22564949D01*
X22620264Y22620265D01*
X22564949Y22665661D01*
X22514321Y22716289D01*
X22454791Y22756066D01*
X22399473Y22801464D01*
X22336359Y22835199D01*
X22276833Y22874973D01*
X22210691Y22902370D01*
X22147575Y22936106D01*
X22079088Y22956881D01*
X22012949Y22984277D01*
X21942738Y22998243D01*
X21874249Y23019019D01*
X21803024Y23026034D01*
X21732813Y23040000D01*
X21661225Y23040000D01*
X21590000Y23047015D01*
X21518775Y23040000D01*
X21447187Y23040000D01*
X21376977Y23026034D01*
X21305750Y23019019D01*
X21237259Y22998242D01*
X21167051Y22984277D01*
X21100915Y22956883D01*
X21032424Y22936106D01*
X20969304Y22902368D01*
X20903167Y22874973D01*
X20843645Y22835202D01*
X20780526Y22801464D01*
X20725205Y22756063D01*
X20665679Y22716289D01*
X20615051Y22665661D01*
X20559735Y22620264D01*
X20514339Y22564949D01*
X20463711Y22514321D01*
X20423934Y22454791D01*
X20378536Y22399473D01*
X20344801Y22336359D01*
X20320000Y22299242D01*
X20176289Y22514321D01*
X19974321Y22716289D01*
X19736833Y22874973D01*
X19472949Y22984277D01*
X19192813Y23040000D01*
X18907187Y23040000D01*
X18627051Y22984277D01*
X18363167Y22874973D01*
X18125679Y22716289D01*
X17923711Y22514321D01*
X17780000Y22299242D01*
X17636289Y22514321D01*
X17434321Y22716289D01*
X17196833Y22874973D01*
X16932949Y22984277D01*
X16652813Y23040000D01*
X16367187Y23040000D01*
X16087051Y22984277D01*
X15823167Y22874973D01*
X15585679Y22716289D01*
X15383711Y22514321D01*
X15240000Y22299242D01*
X15215202Y22336355D01*
X15181464Y22399474D01*
X15136063Y22454795D01*
X15096289Y22514321D01*
X15045661Y22564949D01*
X15000264Y22620265D01*
X14944949Y22665661D01*
X14894321Y22716289D01*
X14834791Y22756066D01*
X14779473Y22801464D01*
X14716359Y22835199D01*
X14656833Y22874973D01*
X14590691Y22902370D01*
X14527575Y22936106D01*
X14459088Y22956881D01*
X14392949Y22984277D01*
X14322738Y22998243D01*
X14254249Y23019019D01*
X14183024Y23026034D01*
X14112813Y23040000D01*
X14041225Y23040000D01*
X13970000Y23047015D01*
X13898775Y23040000D01*
X13827187Y23040000D01*
X13756977Y23026034D01*
X13685750Y23019019D01*
X13617259Y22998242D01*
X13547051Y22984277D01*
X13480915Y22956883D01*
X13412424Y22936106D01*
X13349304Y22902368D01*
X13283167Y22874973D01*
X13223645Y22835202D01*
X13160526Y22801464D01*
X13105205Y22756063D01*
X13045679Y22716289D01*
X12995051Y22665661D01*
X12939735Y22620264D01*
X12894339Y22564949D01*
X12843711Y22514321D01*
X12803934Y22454791D01*
X12758536Y22399473D01*
X12724801Y22336359D01*
X12700000Y22299242D01*
X12556289Y22514321D01*
X12354321Y22716289D01*
X12116833Y22874973D01*
X11852949Y22984277D01*
X11572813Y23040000D01*
X11287187Y23040000D01*
X11007051Y22984277D01*
X10743167Y22874973D01*
X10505679Y22716289D01*
X10303711Y22514321D01*
X10160000Y22299242D01*
X10016289Y22514321D01*
X9814321Y22716289D01*
X9576833Y22874973D01*
X9312949Y22984277D01*
X9032813Y23040000D01*
X8747187Y23040000D01*
X8467051Y22984277D01*
X8203167Y22874973D01*
X7965679Y22716289D01*
X7763711Y22514321D01*
X7620000Y22299242D01*
X7476289Y22514321D01*
X7274321Y22716289D01*
X7036833Y22874973D01*
X6772949Y22984277D01*
X6492813Y23040000D01*
X6207187Y23040000D01*
X5927051Y22984277D01*
X5663167Y22874973D01*
X5425679Y22716289D01*
X5260000Y22550610D01*
X5260000Y23529391D01*
X6950610Y25220000D01*
X60359391Y25220000D01*
X60815974Y24763417D01*
X60856408Y24665800D01*
X61026036Y24411932D01*
X61241932Y24196036D01*
X61495800Y24026408D01*
X61777882Y23909565D01*
X62077338Y23850000D01*
X62382662Y23850000D01*
X62682118Y23909565D01*
X62964200Y24026408D01*
X63218068Y24196036D01*
X63433964Y24411932D01*
X63500000Y24510763D01*
X63566036Y24411932D01*
X63781932Y24196036D01*
X64035800Y24026408D01*
X64317882Y23909565D01*
X64617338Y23850000D01*
X64922662Y23850000D01*
X65222118Y23909565D01*
X65504200Y24026408D01*
X65758068Y24196036D01*
X65973964Y24411932D01*
X66143592Y24665800D01*
X66260435Y24947882D01*
X66320000Y25247338D01*
X66320000Y25552662D01*
X66260435Y25852118D01*
X66220000Y25949736D01*
X66220000Y29930264D01*
X66260435Y30027882D01*
X66320000Y30327338D01*
X66320000Y30632662D01*
X66260435Y30932118D01*
X66143592Y31214200D01*
X65973964Y31468068D01*
X65758068Y31683964D01*
X65504200Y31853592D01*
X65222118Y31970435D01*
X64922662Y32030000D01*
X64617338Y32030000D01*
X64317882Y31970435D01*
X64035800Y31853592D01*
X63781932Y31683964D01*
X63566036Y31468068D01*
X63396408Y31214200D01*
X63279565Y30932118D01*
X63220000Y30632662D01*
X63220000Y30327338D01*
X63279565Y30027882D01*
X63320001Y29930262D01*
X63320000Y26502032D01*
X63218068Y26603964D01*
X62964200Y26773592D01*
X62866583Y26814026D01*
X62035670Y27644939D01*
X61990265Y27700265D01*
X61769474Y27881464D01*
X61517576Y28016106D01*
X61244250Y28099019D01*
X61031225Y28120000D01*
X61031215Y28120000D01*
X60960000Y28127014D01*
X60888785Y28120000D01*
X6899736Y28120000D01*
X6802118Y28160435D01*
X6502662Y28220000D01*
X6197338Y28220000D01*
X5897882Y28160435D01*
X5615800Y28043592D01*
X5361932Y27873964D01*
X5146036Y27658068D01*
X4976408Y27404200D01*
X4935974Y27306583D01*
X2835057Y25205666D01*
X2779735Y25160264D01*
X2598536Y24939473D01*
X2463894Y24687575D01*
X2380981Y24414249D01*
X2360000Y24201224D01*
X2360000Y24201215D01*
X2352986Y24130000D01*
X150000Y24130000D01*
X150000Y30632662D01*
X47980000Y30632662D01*
X47980000Y30327338D01*
X48039565Y30027882D01*
X48156408Y29745800D01*
X48326036Y29491932D01*
X48541932Y29276036D01*
X48795800Y29106408D01*
X49077882Y28989565D01*
X49377338Y28930000D01*
X49682662Y28930000D01*
X49982118Y28989565D01*
X50264200Y29106408D01*
X50518068Y29276036D01*
X50733964Y29491932D01*
X50903592Y29745800D01*
X50944027Y29843418D01*
X65744939Y44644330D01*
X65800265Y44689735D01*
X65981464Y44910526D01*
X66116106Y45162424D01*
X66199019Y45435750D01*
X66220000Y45648775D01*
X66220000Y45648783D01*
X66227014Y45720000D01*
X66220000Y45791217D01*
X66220000Y82478775D01*
X66227015Y82550000D01*
X66199019Y82834250D01*
X66116106Y83107576D01*
X65981464Y83359474D01*
X65800265Y83580265D01*
X65579474Y83761464D01*
X65327576Y83896106D01*
X65054250Y83979019D01*
X64841225Y84000000D01*
X64770000Y84007015D01*
X64698775Y84000000D01*
X62779736Y84000000D01*
X62682118Y84040435D01*
X62382662Y84100000D01*
X62077338Y84100000D01*
X61777882Y84040435D01*
X61680264Y84000000D01*
X57699736Y84000000D01*
X57602118Y84040435D01*
X57302662Y84100000D01*
X56997338Y84100000D01*
X56697882Y84040435D01*
X56415800Y83923592D01*
X56161932Y83753964D01*
X55946036Y83538068D01*
X55776408Y83284200D01*
X55659565Y83002118D01*
X55600000Y82702662D01*
X55600000Y82397338D01*
X55659565Y82097882D01*
X55776408Y81815800D01*
X55946036Y81561932D01*
X56161932Y81346036D01*
X56415800Y81176408D01*
X56697882Y81059565D01*
X56997338Y81000000D01*
X57302662Y81000000D01*
X57602118Y81059565D01*
X57699736Y81100000D01*
X61127968Y81100000D01*
X61026036Y80998068D01*
X60856408Y80744200D01*
X60739565Y80462118D01*
X60680000Y80162662D01*
X60680000Y79857338D01*
X60739565Y79557882D01*
X60780000Y79460263D01*
X60780000Y78920000D01*
X55951217Y78920000D01*
X55880000Y78927014D01*
X55808783Y78920000D01*
X55808775Y78920000D01*
X55595750Y78899019D01*
X55322424Y78816106D01*
X55070526Y78681464D01*
X54849735Y78500265D01*
X54804330Y78444939D01*
X51095057Y74735666D01*
X51039735Y74690264D01*
X50858536Y74469473D01*
X50723894Y74217575D01*
X50640981Y73944249D01*
X50620000Y73731224D01*
X50620000Y73731215D01*
X50612986Y73660000D01*
X50620000Y73588785D01*
X50620001Y63571225D01*
X50612986Y63500000D01*
X50620001Y63428775D01*
X50640564Y63220000D01*
X50640982Y63215751D01*
X50723894Y62942426D01*
X50858536Y62690527D01*
X50994332Y62525059D01*
X50994336Y62525055D01*
X51039736Y62469735D01*
X51095056Y62424335D01*
X51137823Y62381568D01*
X51137823Y60480000D01*
X51146511Y60391785D01*
X51172243Y60306959D01*
X51214029Y60228784D01*
X51270263Y60160263D01*
X51338784Y60104029D01*
X51416959Y60062243D01*
X51501785Y60036511D01*
X51590000Y60027823D01*
X55090000Y60027823D01*
X55178215Y60036511D01*
X55263041Y60062243D01*
X55341216Y60104029D01*
X55409737Y60160263D01*
X55465971Y60228784D01*
X55507757Y60306959D01*
X55533489Y60391785D01*
X55542177Y60480000D01*
X55542177Y63980000D01*
X55533489Y64068215D01*
X55507757Y64153041D01*
X55465971Y64231216D01*
X55409737Y64299737D01*
X55341216Y64355971D01*
X55263041Y64397757D01*
X55178215Y64423489D01*
X55090000Y64432177D01*
X53520000Y64432177D01*
X53520000Y67805000D01*
X54137823Y67805000D01*
X54137823Y66055000D01*
X54163324Y65796081D01*
X54238848Y65547111D01*
X54361493Y65317660D01*
X54526544Y65116544D01*
X54727660Y64951493D01*
X54957111Y64828848D01*
X55206081Y64753324D01*
X55465000Y64727823D01*
X57215000Y64727823D01*
X57473919Y64753324D01*
X57722889Y64828848D01*
X57952340Y64951493D01*
X58153456Y65116544D01*
X58318507Y65317660D01*
X58441152Y65547111D01*
X58516676Y65796081D01*
X58542177Y66055000D01*
X58542177Y67805000D01*
X58516676Y68063919D01*
X58441152Y68312889D01*
X58318507Y68542340D01*
X58153456Y68743456D01*
X57952340Y68908507D01*
X57722889Y69031152D01*
X57473919Y69106676D01*
X57215000Y69132177D01*
X55465000Y69132177D01*
X55206081Y69106676D01*
X54957111Y69031152D01*
X54727660Y68908507D01*
X54526544Y68743456D01*
X54361493Y68542340D01*
X54238848Y68312889D01*
X54163324Y68063919D01*
X54137823Y67805000D01*
X53520000Y67805000D01*
X53520000Y73059391D01*
X56480609Y76020000D01*
X61680264Y76020000D01*
X61777882Y75979565D01*
X62077338Y75920000D01*
X62382662Y75920000D01*
X62682118Y75979565D01*
X62964200Y76096408D01*
X63218068Y76266036D01*
X63320000Y76367968D01*
X63320001Y46320610D01*
X48893418Y31894027D01*
X48795800Y31853592D01*
X48541932Y31683964D01*
X48326036Y31468068D01*
X48156408Y31214200D01*
X48039565Y30932118D01*
X47980000Y30632662D01*
X150000Y30632662D01*
X150000Y54762662D01*
X2260000Y54762662D01*
X2260000Y54457338D01*
X2319565Y54157882D01*
X2436408Y53875800D01*
X2606036Y53621932D01*
X2821932Y53406036D01*
X2920763Y53340000D01*
X2821932Y53273964D01*
X2606036Y53058068D01*
X2436408Y52804200D01*
X2319565Y52522118D01*
X2260000Y52222662D01*
X2260000Y51917338D01*
X2319565Y51617882D01*
X2360001Y51520262D01*
X2360000Y43657213D01*
X2352986Y43585998D01*
X2360000Y43514783D01*
X2360000Y43514774D01*
X2380981Y43301749D01*
X2463894Y43028423D01*
X2533570Y42898068D01*
X2598536Y42776525D01*
X2725004Y42622424D01*
X2779735Y42555734D01*
X2835057Y42510332D01*
X4410332Y40935056D01*
X4455733Y40879735D01*
X4511053Y40834335D01*
X4511056Y40834332D01*
X4661062Y40711225D01*
X4676524Y40698536D01*
X4928422Y40563894D01*
X5201748Y40480981D01*
X5414773Y40460000D01*
X5414782Y40460000D01*
X5485997Y40452986D01*
X5557212Y40460000D01*
X13420264Y40460000D01*
X13517882Y40419565D01*
X13817338Y40360000D01*
X14122662Y40360000D01*
X14422118Y40419565D01*
X14704200Y40536408D01*
X14958068Y40706036D01*
X15173964Y40921932D01*
X15343592Y41175800D01*
X15460435Y41457882D01*
X15520000Y41757338D01*
X15520000Y42062662D01*
X15460435Y42362118D01*
X15343592Y42644200D01*
X15173964Y42898068D01*
X14958068Y43113964D01*
X14704200Y43283592D01*
X14422118Y43400435D01*
X14122662Y43460000D01*
X13817338Y43460000D01*
X13517882Y43400435D01*
X13420264Y43360000D01*
X7452032Y43360000D01*
X7553964Y43461932D01*
X7723592Y43715800D01*
X7840435Y43997882D01*
X7900000Y44297338D01*
X7900000Y44602662D01*
X7840435Y44902118D01*
X7800000Y44999736D01*
X7800000Y46029390D01*
X7965679Y45863711D01*
X8203167Y45705027D01*
X8467051Y45595723D01*
X8747187Y45540000D01*
X9032813Y45540000D01*
X9312949Y45595723D01*
X9576833Y45705027D01*
X9814321Y45863711D01*
X10016289Y46065679D01*
X10160000Y46280758D01*
X10303711Y46065679D01*
X10505679Y45863711D01*
X10743167Y45705027D01*
X11007051Y45595723D01*
X11287187Y45540000D01*
X11572813Y45540000D01*
X11852949Y45595723D01*
X12116833Y45705027D01*
X12354321Y45863711D01*
X12556289Y46065679D01*
X12700000Y46280758D01*
X12843711Y46065679D01*
X13045679Y45863711D01*
X13283167Y45705027D01*
X13547051Y45595723D01*
X13827187Y45540000D01*
X14112813Y45540000D01*
X14392949Y45595723D01*
X14656833Y45705027D01*
X14894321Y45863711D01*
X15096289Y46065679D01*
X15240000Y46280758D01*
X15264803Y46243637D01*
X15298537Y46180526D01*
X15343934Y46125210D01*
X15383711Y46065679D01*
X15434340Y46015050D01*
X15479736Y45959735D01*
X15535051Y45914339D01*
X15585679Y45863711D01*
X15645209Y45823934D01*
X15700527Y45778536D01*
X15763641Y45744801D01*
X15823167Y45705027D01*
X15889309Y45677630D01*
X15952425Y45643894D01*
X16020912Y45623119D01*
X16087051Y45595723D01*
X16157262Y45581757D01*
X16225751Y45560981D01*
X16296976Y45553966D01*
X16367187Y45540000D01*
X16438775Y45540000D01*
X16510000Y45532985D01*
X16581225Y45540000D01*
X16652813Y45540000D01*
X16723023Y45553966D01*
X16794250Y45560981D01*
X16862741Y45581758D01*
X16932949Y45595723D01*
X16999085Y45623117D01*
X17067576Y45643894D01*
X17130696Y45677632D01*
X17196833Y45705027D01*
X17256355Y45744798D01*
X17319474Y45778536D01*
X17374796Y45823938D01*
X17434321Y45863711D01*
X17484945Y45914335D01*
X17540265Y45959735D01*
X17585665Y46015055D01*
X17636289Y46065679D01*
X17676062Y46125204D01*
X17721464Y46180526D01*
X17755202Y46243645D01*
X17794973Y46303167D01*
X17822368Y46369304D01*
X17856106Y46432424D01*
X17876883Y46500915D01*
X17904277Y46567051D01*
X17918242Y46637259D01*
X17939019Y46705750D01*
X17946034Y46776977D01*
X17960000Y46847187D01*
X17960000Y51469391D01*
X20024944Y53534334D01*
X20080265Y53579735D01*
X20125669Y53635059D01*
X20261463Y53800525D01*
X20261465Y53800527D01*
X20320000Y53910040D01*
X20378536Y53800527D01*
X20559735Y53579736D01*
X20615057Y53534334D01*
X22680001Y51469389D01*
X22680000Y47950610D01*
X22514321Y48116289D01*
X22276833Y48274973D01*
X22012949Y48384277D01*
X21732813Y48440000D01*
X21447187Y48440000D01*
X21167051Y48384277D01*
X20903167Y48274973D01*
X20665679Y48116289D01*
X20463711Y47914321D01*
X20305027Y47676833D01*
X20195723Y47412949D01*
X20140000Y47132813D01*
X20140000Y46847187D01*
X20195723Y46567051D01*
X20305027Y46303167D01*
X20463711Y46065679D01*
X20665679Y45863711D01*
X20903167Y45705027D01*
X21167051Y45595723D01*
X21447187Y45540000D01*
X21732813Y45540000D01*
X22012949Y45595723D01*
X22276833Y45705027D01*
X22514321Y45863711D01*
X22716289Y46065679D01*
X22860000Y46280758D01*
X22884801Y46243641D01*
X22918536Y46180527D01*
X22963934Y46125209D01*
X23003711Y46065679D01*
X23054339Y46015051D01*
X23099735Y45959736D01*
X23155051Y45914339D01*
X23205679Y45863711D01*
X23265205Y45823937D01*
X23320526Y45778536D01*
X23383645Y45744798D01*
X23443167Y45705027D01*
X23509304Y45677632D01*
X23572424Y45643894D01*
X23640915Y45623117D01*
X23707051Y45595723D01*
X23777259Y45581758D01*
X23845750Y45560981D01*
X23916977Y45553966D01*
X23987187Y45540000D01*
X24058775Y45540000D01*
X24130000Y45532985D01*
X24201225Y45540000D01*
X24272813Y45540000D01*
X24343024Y45553966D01*
X24414249Y45560981D01*
X24482738Y45581757D01*
X24552949Y45595723D01*
X24619088Y45623119D01*
X24687575Y45643894D01*
X24750691Y45677630D01*
X24816833Y45705027D01*
X24876359Y45744801D01*
X24939473Y45778536D01*
X24994791Y45823934D01*
X25054321Y45863711D01*
X25104949Y45914339D01*
X25160264Y45959735D01*
X25205661Y46015051D01*
X25256289Y46065679D01*
X25296063Y46125205D01*
X25341464Y46180526D01*
X25375202Y46243645D01*
X25400000Y46280758D01*
X25424801Y46243641D01*
X25458536Y46180527D01*
X25503934Y46125209D01*
X25543711Y46065679D01*
X25594339Y46015051D01*
X25639735Y45959736D01*
X25695051Y45914339D01*
X25745679Y45863711D01*
X25805205Y45823937D01*
X25860526Y45778536D01*
X25923645Y45744798D01*
X25983167Y45705027D01*
X26049304Y45677632D01*
X26112424Y45643894D01*
X26180915Y45623117D01*
X26247051Y45595723D01*
X26317259Y45581758D01*
X26385750Y45560981D01*
X26456977Y45553966D01*
X26527187Y45540000D01*
X26598775Y45540000D01*
X26670000Y45532985D01*
X26741225Y45540000D01*
X26812813Y45540000D01*
X26883024Y45553966D01*
X26954249Y45560981D01*
X27022738Y45581757D01*
X27092949Y45595723D01*
X27159088Y45623119D01*
X27227575Y45643894D01*
X27290691Y45677630D01*
X27356833Y45705027D01*
X27416359Y45744801D01*
X27479473Y45778536D01*
X27534791Y45823934D01*
X27594321Y45863711D01*
X27644949Y45914339D01*
X27700264Y45959735D01*
X27745661Y46015051D01*
X27796289Y46065679D01*
X27836063Y46125205D01*
X27881464Y46180526D01*
X27915202Y46243645D01*
X27940000Y46280758D01*
X27964803Y46243637D01*
X27998537Y46180526D01*
X28043934Y46125210D01*
X28083711Y46065679D01*
X28134340Y46015050D01*
X28179736Y45959735D01*
X28235051Y45914339D01*
X28285679Y45863711D01*
X28345209Y45823934D01*
X28400527Y45778536D01*
X28463641Y45744801D01*
X28523167Y45705027D01*
X28589309Y45677630D01*
X28652425Y45643894D01*
X28720912Y45623119D01*
X28787051Y45595723D01*
X28857262Y45581757D01*
X28925751Y45560981D01*
X28996976Y45553966D01*
X29067187Y45540000D01*
X29138775Y45540000D01*
X29210000Y45532985D01*
X29281225Y45540000D01*
X29352813Y45540000D01*
X29423023Y45553966D01*
X29494250Y45560981D01*
X29562741Y45581758D01*
X29632949Y45595723D01*
X29699085Y45623117D01*
X29767576Y45643894D01*
X29830696Y45677632D01*
X29896833Y45705027D01*
X29956355Y45744798D01*
X30019474Y45778536D01*
X30074796Y45823938D01*
X30134321Y45863711D01*
X30184945Y45914335D01*
X30240265Y45959735D01*
X30285665Y46015055D01*
X30336289Y46065679D01*
X30376062Y46125204D01*
X30421464Y46180526D01*
X30455202Y46243645D01*
X30480000Y46280758D01*
X30504801Y46243641D01*
X30538536Y46180527D01*
X30583934Y46125209D01*
X30623711Y46065679D01*
X30674339Y46015051D01*
X30719735Y45959736D01*
X30775051Y45914339D01*
X30825679Y45863711D01*
X30885205Y45823937D01*
X30940526Y45778536D01*
X31003645Y45744798D01*
X31063167Y45705027D01*
X31129304Y45677632D01*
X31192424Y45643894D01*
X31260915Y45623117D01*
X31327051Y45595723D01*
X31397259Y45581758D01*
X31465750Y45560981D01*
X31536977Y45553966D01*
X31607187Y45540000D01*
X31678775Y45540000D01*
X31750000Y45532985D01*
X31821225Y45540000D01*
X31892813Y45540000D01*
X31963024Y45553966D01*
X32034249Y45560981D01*
X32100456Y45581065D01*
X29843418Y43324027D01*
X29745800Y43283592D01*
X29491932Y43113964D01*
X29276036Y42898068D01*
X29106408Y42644200D01*
X28989565Y42362118D01*
X28930000Y42062662D01*
X28930000Y41757338D01*
X28989565Y41457882D01*
X29106408Y41175800D01*
X29276036Y40921932D01*
X29491932Y40706036D01*
X29745800Y40536408D01*
X30027882Y40419565D01*
X30327338Y40360000D01*
X30632662Y40360000D01*
X30932118Y40419565D01*
X31214200Y40536408D01*
X31468068Y40706036D01*
X31683964Y40921932D01*
X31853592Y41175800D01*
X31894027Y41273418D01*
X35264939Y44644330D01*
X35320265Y44689735D01*
X35501464Y44910526D01*
X35636106Y45162424D01*
X35719019Y45435750D01*
X35740000Y45648775D01*
X35740000Y45648783D01*
X35747014Y45720000D01*
X35740000Y45791217D01*
X35740000Y47132813D01*
X35726034Y47203023D01*
X35719019Y47274250D01*
X35698242Y47342741D01*
X35684277Y47412949D01*
X35656883Y47479085D01*
X35636106Y47547576D01*
X35602368Y47610696D01*
X35574973Y47676833D01*
X35535202Y47736355D01*
X35501464Y47799474D01*
X35456063Y47854795D01*
X35416289Y47914321D01*
X35365661Y47964949D01*
X35320264Y48020265D01*
X35264949Y48065661D01*
X35214321Y48116289D01*
X35154791Y48156066D01*
X35099473Y48201464D01*
X35036359Y48235199D01*
X34976833Y48274973D01*
X34910691Y48302370D01*
X34847575Y48336106D01*
X34779088Y48356881D01*
X34712949Y48384277D01*
X34642738Y48398243D01*
X34574249Y48419019D01*
X34503024Y48426034D01*
X34432813Y48440000D01*
X34361225Y48440000D01*
X34290000Y48447015D01*
X34218775Y48440000D01*
X34147187Y48440000D01*
X34076977Y48426034D01*
X34005750Y48419019D01*
X33937259Y48398242D01*
X33867051Y48384277D01*
X33800915Y48356883D01*
X33732536Y48336140D01*
X41096396Y55700000D01*
X44378775Y55700000D01*
X44450000Y55692985D01*
X44521225Y55700000D01*
X44734250Y55720981D01*
X44800455Y55741064D01*
X43475056Y54415665D01*
X43419736Y54370265D01*
X43374336Y54314945D01*
X43374332Y54314941D01*
X43245437Y54157882D01*
X43238537Y54149474D01*
X43103895Y53897576D01*
X43020982Y53624250D01*
X43016598Y53579736D01*
X42992986Y53340000D01*
X43000001Y53268776D01*
X43000000Y47132813D01*
X43000000Y46847187D01*
X43013966Y46776976D01*
X43020981Y46705751D01*
X43041757Y46637262D01*
X43055723Y46567051D01*
X43083119Y46500912D01*
X43103894Y46432425D01*
X43137630Y46369309D01*
X43165027Y46303167D01*
X43204801Y46243641D01*
X43238536Y46180527D01*
X43283934Y46125209D01*
X43323711Y46065679D01*
X43374339Y46015051D01*
X43419735Y45959736D01*
X43475051Y45914339D01*
X43525679Y45863711D01*
X43585205Y45823937D01*
X43640526Y45778536D01*
X43703645Y45744798D01*
X43763167Y45705027D01*
X43829304Y45677632D01*
X43892424Y45643894D01*
X43960915Y45623117D01*
X44027051Y45595723D01*
X44097259Y45581758D01*
X44165750Y45560981D01*
X44236977Y45553966D01*
X44307187Y45540000D01*
X44378775Y45540000D01*
X44450000Y45532985D01*
X44521225Y45540000D01*
X44592813Y45540000D01*
X44663024Y45553966D01*
X44734249Y45560981D01*
X44802738Y45581757D01*
X44872949Y45595723D01*
X44939088Y45623119D01*
X45007575Y45643894D01*
X45070691Y45677630D01*
X45136833Y45705027D01*
X45196359Y45744801D01*
X45259473Y45778536D01*
X45314791Y45823934D01*
X45374321Y45863711D01*
X45424949Y45914339D01*
X45480264Y45959735D01*
X45525661Y46015051D01*
X45576289Y46065679D01*
X45616063Y46125205D01*
X45661464Y46180526D01*
X45695202Y46243645D01*
X45720000Y46280758D01*
X45744801Y46243641D01*
X45778536Y46180527D01*
X45823934Y46125209D01*
X45863711Y46065679D01*
X45914339Y46015051D01*
X45959735Y45959736D01*
X46015051Y45914339D01*
X46065679Y45863711D01*
X46125205Y45823937D01*
X46180526Y45778536D01*
X46243645Y45744798D01*
X46303167Y45705027D01*
X46369304Y45677632D01*
X46432424Y45643894D01*
X46500915Y45623117D01*
X46567051Y45595723D01*
X46637259Y45581758D01*
X46705750Y45560981D01*
X46776977Y45553966D01*
X46847187Y45540000D01*
X46918775Y45540000D01*
X46990000Y45532985D01*
X47061225Y45540000D01*
X47132813Y45540000D01*
X47203024Y45553966D01*
X47274249Y45560981D01*
X47342738Y45581757D01*
X47412949Y45595723D01*
X47479088Y45623119D01*
X47547575Y45643894D01*
X47610691Y45677630D01*
X47676833Y45705027D01*
X47736359Y45744801D01*
X47799473Y45778536D01*
X47854791Y45823934D01*
X47914321Y45863711D01*
X47964949Y45914339D01*
X48020264Y45959735D01*
X48065661Y46015051D01*
X48116289Y46065679D01*
X48156063Y46125205D01*
X48201464Y46180526D01*
X48235202Y46243645D01*
X48260000Y46280758D01*
X48284801Y46243641D01*
X48318536Y46180527D01*
X48363934Y46125209D01*
X48403711Y46065679D01*
X48454339Y46015051D01*
X48499735Y45959736D01*
X48555051Y45914339D01*
X48605679Y45863711D01*
X48665205Y45823937D01*
X48720526Y45778536D01*
X48783645Y45744798D01*
X48843167Y45705027D01*
X48909304Y45677632D01*
X48972424Y45643894D01*
X49040915Y45623117D01*
X49107051Y45595723D01*
X49177259Y45581758D01*
X49245750Y45560981D01*
X49316977Y45553966D01*
X49387187Y45540000D01*
X49458775Y45540000D01*
X49530000Y45532985D01*
X49601225Y45540000D01*
X49672813Y45540000D01*
X49743024Y45553966D01*
X49814249Y45560981D01*
X49882738Y45581757D01*
X49952949Y45595723D01*
X50019088Y45623119D01*
X50087575Y45643894D01*
X50150691Y45677630D01*
X50216833Y45705027D01*
X50276359Y45744801D01*
X50339473Y45778536D01*
X50394791Y45823934D01*
X50454321Y45863711D01*
X50504949Y45914339D01*
X50560264Y45959735D01*
X50605661Y46015051D01*
X50620000Y46029390D01*
X50620001Y45050610D01*
X50199391Y44630000D01*
X45791214Y44630000D01*
X45719999Y44637014D01*
X45648784Y44630000D01*
X45648775Y44630000D01*
X45435750Y44609019D01*
X45162424Y44526106D01*
X44910526Y44391464D01*
X44889117Y44373894D01*
X44745058Y44255668D01*
X44745055Y44255665D01*
X44689735Y44210265D01*
X44644334Y44154944D01*
X42205057Y41715666D01*
X42149735Y41670264D01*
X41968536Y41449473D01*
X41833894Y41197575D01*
X41750981Y40924249D01*
X41730000Y40711224D01*
X41730000Y40711215D01*
X41722986Y40640000D01*
X41730000Y40568785D01*
X41730001Y36109738D01*
X41689565Y36012118D01*
X41630000Y35712662D01*
X41630000Y35407338D01*
X41689565Y35107882D01*
X41806408Y34825800D01*
X41976036Y34571932D01*
X42191932Y34356036D01*
X42445800Y34186408D01*
X42727882Y34069565D01*
X43027338Y34010000D01*
X43332662Y34010000D01*
X43632118Y34069565D01*
X43914200Y34186408D01*
X44168068Y34356036D01*
X44383964Y34571932D01*
X44553592Y34825800D01*
X44670435Y35107882D01*
X44730000Y35407338D01*
X44730000Y35712662D01*
X44670435Y36012118D01*
X44630000Y36109736D01*
X44630000Y40039391D01*
X46320610Y41730000D01*
X50728785Y41730000D01*
X50800000Y41722986D01*
X50871215Y41730000D01*
X50871225Y41730000D01*
X51084250Y41750981D01*
X51357576Y41833894D01*
X51609474Y41968536D01*
X51830265Y42149735D01*
X51875670Y42205061D01*
X53044944Y43374334D01*
X53100265Y43419735D01*
X53281464Y43640526D01*
X53416106Y43892424D01*
X53499019Y44165750D01*
X53520000Y44378775D01*
X53520000Y44378784D01*
X53527014Y44449999D01*
X53520000Y44521214D01*
X53520000Y48080000D01*
X59618775Y48080000D01*
X59690000Y48072985D01*
X59761225Y48080000D01*
X59974250Y48100981D01*
X60247576Y48183894D01*
X60499474Y48318536D01*
X60720265Y48499735D01*
X60901464Y48720526D01*
X61036106Y48972424D01*
X61119019Y49245750D01*
X61147015Y49530000D01*
X61140000Y49601225D01*
X61140000Y51520264D01*
X61180435Y51617882D01*
X61240000Y51917338D01*
X61240000Y52222662D01*
X61180435Y52522118D01*
X61063592Y52804200D01*
X60893964Y53058068D01*
X60678068Y53273964D01*
X60424200Y53443592D01*
X60142118Y53560435D01*
X59842662Y53620000D01*
X59537338Y53620000D01*
X59237882Y53560435D01*
X58955800Y53443592D01*
X58701932Y53273964D01*
X58486036Y53058068D01*
X58420000Y52959237D01*
X58353964Y53058068D01*
X58138068Y53273964D01*
X57884200Y53443592D01*
X57602118Y53560435D01*
X57302662Y53620000D01*
X56997338Y53620000D01*
X56697882Y53560435D01*
X56600264Y53520000D01*
X49791892Y53520000D01*
X49924955Y53653063D01*
X49980276Y53698464D01*
X50025679Y53753787D01*
X50161475Y53919254D01*
X50296117Y54171153D01*
X50379030Y54444479D01*
X50400011Y54657504D01*
X50400011Y54657513D01*
X50407025Y54728728D01*
X50400011Y54799943D01*
X50400011Y80734402D01*
X50765610Y81100000D01*
X52862787Y81100000D01*
X52934002Y81092986D01*
X53005217Y81100000D01*
X53005227Y81100000D01*
X53218252Y81120981D01*
X53491578Y81203894D01*
X53743476Y81338536D01*
X53964267Y81519735D01*
X54009672Y81575061D01*
X55584949Y83150337D01*
X55640264Y83195733D01*
X55685661Y83251049D01*
X55685668Y83251056D01*
X55821464Y83416524D01*
X55887463Y83540000D01*
X55956106Y83668422D01*
X56039019Y83941748D01*
X56060000Y84154773D01*
X56060000Y84154782D01*
X56067014Y84225997D01*
X56060000Y84297212D01*
X56060000Y85759391D01*
X58124949Y87824339D01*
X58152844Y87847232D01*
X58140000Y87782662D01*
X58140000Y87477338D01*
X58199565Y87177882D01*
X58316408Y86895800D01*
X58486036Y86641932D01*
X58701932Y86426036D01*
X58955800Y86256408D01*
X59237882Y86139565D01*
X59537338Y86080000D01*
X59842662Y86080000D01*
X60142118Y86139565D01*
X60424200Y86256408D01*
X60678068Y86426036D01*
X60893964Y86641932D01*
X61063592Y86895800D01*
X61180435Y87177882D01*
X61240000Y87477338D01*
X61240000Y87782662D01*
X61180435Y88082118D01*
X61140000Y88179736D01*
X61140000Y89620264D01*
X61180435Y89717882D01*
X61240000Y90017338D01*
X61240000Y90322662D01*
X61180435Y90622118D01*
X61063592Y90904200D01*
X60893964Y91158068D01*
X60678068Y91373964D01*
X60424200Y91543592D01*
X60142118Y91660435D01*
X59842662Y91720000D01*
X59537338Y91720000D01*
X59237882Y91660435D01*
X58955800Y91543592D01*
X58701932Y91373964D01*
X58486036Y91158068D01*
X58420000Y91059237D01*
X58353964Y91158068D01*
X58138068Y91373964D01*
X57884200Y91543592D01*
X57602118Y91660435D01*
X57302662Y91720000D01*
X56997338Y91720000D01*
X56697882Y91660435D01*
X56415800Y91543592D01*
X56161932Y91373964D01*
X55946036Y91158068D01*
X55776408Y90904200D01*
X55659565Y90622118D01*
X55600000Y90322662D01*
X55600000Y90017338D01*
X55659565Y89717882D01*
X55700000Y89620264D01*
X55700000Y89500610D01*
X53635056Y87435665D01*
X53607156Y87412768D01*
X53620000Y87477338D01*
X53620000Y87782662D01*
X53560435Y88082118D01*
X53520000Y88179736D01*
X53520000Y89620264D01*
X53560435Y89717882D01*
X53620000Y90017338D01*
X53620000Y90322662D01*
X53560435Y90622118D01*
X53443592Y90904200D01*
X53273964Y91158068D01*
X53058068Y91373964D01*
X52804200Y91543592D01*
X52522118Y91660435D01*
X52222662Y91720000D01*
X51917338Y91720000D01*
X51617882Y91660435D01*
X51335800Y91543592D01*
X51081932Y91373964D01*
X50866036Y91158068D01*
X50800000Y91059237D01*
X50733964Y91158068D01*
X50518068Y91373964D01*
X50264200Y91543592D01*
X49982118Y91660435D01*
X49682662Y91720000D01*
X49377338Y91720000D01*
X49077882Y91660435D01*
X48795800Y91543592D01*
X48541932Y91373964D01*
X48326036Y91158068D01*
X48260000Y91059237D01*
X48193964Y91158068D01*
X47978068Y91373964D01*
X47724200Y91543592D01*
X47442118Y91660435D01*
X47142662Y91720000D01*
X46837338Y91720000D01*
X46537882Y91660435D01*
X46255800Y91543592D01*
X46001932Y91373964D01*
X45786036Y91158068D01*
X45616408Y90904200D01*
X45499565Y90622118D01*
X45440000Y90322662D01*
X45440000Y90017338D01*
X45499565Y89717882D01*
X45616408Y89435800D01*
X45786036Y89181932D01*
X46001932Y88966036D01*
X46255800Y88796408D01*
X46537882Y88679565D01*
X46837338Y88620000D01*
X47142662Y88620000D01*
X47442118Y88679565D01*
X47724200Y88796408D01*
X47978068Y88966036D01*
X48080001Y89067969D01*
X48080000Y85690610D01*
X45775057Y83385666D01*
X45719737Y83340266D01*
X45674337Y83284946D01*
X45674333Y83284942D01*
X45538537Y83119474D01*
X45421281Y82900102D01*
X45410479Y82879892D01*
X45403895Y82867575D01*
X45320983Y82594250D01*
X45292987Y82310001D01*
X45300002Y82238776D01*
X45300001Y63526217D01*
X45184200Y63603592D01*
X44902118Y63720435D01*
X44602662Y63780000D01*
X44297338Y63780000D01*
X43997882Y63720435D01*
X43715800Y63603592D01*
X43461932Y63433964D01*
X43246036Y63218068D01*
X43180000Y63119237D01*
X43113964Y63218068D01*
X42898068Y63433964D01*
X42644200Y63603592D01*
X42362118Y63720435D01*
X42062662Y63780000D01*
X41757338Y63780000D01*
X41457882Y63720435D01*
X41175800Y63603592D01*
X40921932Y63433964D01*
X40706036Y63218068D01*
X40640000Y63119237D01*
X40573964Y63218068D01*
X40358068Y63433964D01*
X40104200Y63603592D01*
X39822118Y63720435D01*
X39522662Y63780000D01*
X39217338Y63780000D01*
X38917882Y63720435D01*
X38820264Y63680000D01*
X37379736Y63680000D01*
X37282118Y63720435D01*
X36982662Y63780000D01*
X36677338Y63780000D01*
X36377882Y63720435D01*
X36095800Y63603592D01*
X35841932Y63433964D01*
X35626036Y63218068D01*
X35456408Y62964200D01*
X35339565Y62682118D01*
X35280000Y62382662D01*
X35280000Y62077338D01*
X35339565Y61777882D01*
X35456408Y61495800D01*
X35626036Y61241932D01*
X35841932Y61026036D01*
X36095800Y60856408D01*
X36377882Y60739565D01*
X36677338Y60680000D01*
X36982662Y60680000D01*
X37282118Y60739565D01*
X37379736Y60780000D01*
X38412522Y60780000D01*
X38395058Y60765668D01*
X38395055Y60765665D01*
X38339735Y60720265D01*
X38294335Y60664945D01*
X28235057Y50605666D01*
X28179735Y50560264D01*
X28120000Y50487477D01*
X28120000Y61127968D01*
X28221932Y61026036D01*
X28475800Y60856408D01*
X28757882Y60739565D01*
X29057338Y60680000D01*
X29362662Y60680000D01*
X29662118Y60739565D01*
X29759736Y60780000D01*
X30300000Y60780000D01*
X30300001Y58969738D01*
X30259565Y58872118D01*
X30200000Y58572662D01*
X30200000Y58267338D01*
X30259565Y57967882D01*
X30376408Y57685800D01*
X30546036Y57431932D01*
X30761932Y57216036D01*
X31015800Y57046408D01*
X31297882Y56929565D01*
X31597338Y56870000D01*
X31902662Y56870000D01*
X32202118Y56929565D01*
X32484200Y57046408D01*
X32738068Y57216036D01*
X32953964Y57431932D01*
X33123592Y57685800D01*
X33240435Y57967882D01*
X33300000Y58267338D01*
X33300000Y58572662D01*
X33240435Y58872118D01*
X33200000Y58969736D01*
X33200000Y61680264D01*
X33240435Y61777882D01*
X33300000Y62077338D01*
X33300000Y62382662D01*
X33240435Y62682118D01*
X33200000Y62779736D01*
X33200000Y68400000D01*
X41838775Y68400000D01*
X41910000Y68392985D01*
X41981225Y68400000D01*
X42194250Y68420981D01*
X42467576Y68503894D01*
X42719474Y68638536D01*
X42940265Y68819735D01*
X43121464Y69040526D01*
X43256106Y69292424D01*
X43339019Y69565750D01*
X43367015Y69850000D01*
X43360000Y69921225D01*
X43360000Y74380264D01*
X43400435Y74477882D01*
X43460000Y74777338D01*
X43460000Y75082662D01*
X43400435Y75382118D01*
X43360000Y75479736D01*
X43360000Y84540264D01*
X43400435Y84637882D01*
X43460000Y84937338D01*
X43460000Y85242662D01*
X43400435Y85542118D01*
X43283592Y85824200D01*
X43113964Y86078068D01*
X42898068Y86293964D01*
X42644200Y86463592D01*
X42362118Y86580435D01*
X42062662Y86640000D01*
X41757338Y86640000D01*
X41457882Y86580435D01*
X41175800Y86463592D01*
X40921932Y86293964D01*
X40820000Y86192032D01*
X40820000Y89620264D01*
X40860435Y89717882D01*
X40920000Y90017338D01*
X40920000Y90322662D01*
X40860435Y90622118D01*
X40743592Y90904200D01*
X40573964Y91158068D01*
X40358068Y91373964D01*
X40104200Y91543592D01*
X39822118Y91660435D01*
X39522662Y91720000D01*
X39217338Y91720000D01*
X38917882Y91660435D01*
X38635800Y91543592D01*
X38381932Y91373964D01*
X38166036Y91158068D01*
X38100000Y91059237D01*
X38033964Y91158068D01*
X37818068Y91373964D01*
X37564200Y91543592D01*
X37282118Y91660435D01*
X36982662Y91720000D01*
X36677338Y91720000D01*
X36377882Y91660435D01*
X36095800Y91543592D01*
X35841932Y91373964D01*
X35626036Y91158068D01*
X35560000Y91059237D01*
X35493964Y91158068D01*
X35278068Y91373964D01*
X35024200Y91543592D01*
X34742118Y91660435D01*
X34442662Y91720000D01*
X34137338Y91720000D01*
X33837882Y91660435D01*
X33555800Y91543592D01*
X33301932Y91373964D01*
X33086036Y91158068D01*
X33020000Y91059237D01*
X32953964Y91158068D01*
X32738068Y91373964D01*
X32484200Y91543592D01*
X32202118Y91660435D01*
X31902662Y91720000D01*
X31597338Y91720000D01*
X31297882Y91660435D01*
X31015800Y91543592D01*
X30761932Y91373964D01*
X30546036Y91158068D01*
X30376408Y90904200D01*
X30259565Y90622118D01*
X30200000Y90322662D01*
X30200000Y90017338D01*
X30259565Y89717882D01*
X30300000Y89620264D01*
X30300001Y75479738D01*
X30259565Y75382118D01*
X30200000Y75082662D01*
X30200000Y74777338D01*
X30259565Y74477882D01*
X30376408Y74195800D01*
X30546036Y73941932D01*
X30761932Y73726036D01*
X31015800Y73556408D01*
X31297882Y73439565D01*
X31597338Y73380000D01*
X31902662Y73380000D01*
X32202118Y73439565D01*
X32484200Y73556408D01*
X32738068Y73726036D01*
X32953964Y73941932D01*
X33020000Y74040763D01*
X33086036Y73941932D01*
X33301932Y73726036D01*
X33555800Y73556408D01*
X33837882Y73439565D01*
X34137338Y73380000D01*
X34442662Y73380000D01*
X34742118Y73439565D01*
X35024200Y73556408D01*
X35278068Y73726036D01*
X35493964Y73941932D01*
X35560000Y74040763D01*
X35626036Y73941932D01*
X35841932Y73726036D01*
X36095800Y73556408D01*
X36377882Y73439565D01*
X36677338Y73380000D01*
X36982662Y73380000D01*
X37282118Y73439565D01*
X37564200Y73556408D01*
X37818068Y73726036D01*
X38033964Y73941932D01*
X38100000Y74040763D01*
X38166036Y73941932D01*
X38381932Y73726036D01*
X38635800Y73556408D01*
X38917882Y73439565D01*
X39217338Y73380000D01*
X39522662Y73380000D01*
X39822118Y73439565D01*
X40104200Y73556408D01*
X40358068Y73726036D01*
X40460001Y73827969D01*
X40460000Y71300000D01*
X32299736Y71300000D01*
X32202118Y71340435D01*
X31902662Y71400000D01*
X31597338Y71400000D01*
X31297882Y71340435D01*
X31015800Y71223592D01*
X30761932Y71053964D01*
X30546036Y70838068D01*
X30376408Y70584200D01*
X30259565Y70302118D01*
X30200000Y70002662D01*
X30200000Y69697338D01*
X30259565Y69397882D01*
X30300001Y69300262D01*
X30300000Y63680000D01*
X29759736Y63680000D01*
X29662118Y63720435D01*
X29362662Y63780000D01*
X29057338Y63780000D01*
X28757882Y63720435D01*
X28475800Y63603592D01*
X28221932Y63433964D01*
X28120000Y63332032D01*
X28120000Y64220264D01*
X28160435Y64317882D01*
X28220000Y64617338D01*
X28220000Y64922662D01*
X28160435Y65222118D01*
X28043592Y65504200D01*
X27873964Y65758068D01*
X27658068Y65973964D01*
X27404200Y66143592D01*
X27122118Y66260435D01*
X26822662Y66320000D01*
X26517338Y66320000D01*
X26217882Y66260435D01*
X25935800Y66143592D01*
X25681932Y65973964D01*
X25466036Y65758068D01*
X25296408Y65504200D01*
X25179565Y65222118D01*
X25120000Y64922662D01*
X25120000Y64617338D01*
X25179565Y64317882D01*
X25220001Y64220262D01*
X25220001Y62779738D01*
X25179565Y62682118D01*
X25120000Y62382662D01*
X25120000Y62077338D01*
X25179565Y61777882D01*
X25220001Y61680262D01*
X25220000Y53027478D01*
X25205668Y53044942D01*
X25205665Y53044945D01*
X25160265Y53100265D01*
X25104944Y53145666D01*
X23040000Y55210609D01*
X23040000Y61680264D01*
X23080435Y61777882D01*
X23140000Y62077338D01*
X23140000Y62382662D01*
X23080435Y62682118D01*
X22963592Y62964200D01*
X22793964Y63218068D01*
X22578068Y63433964D01*
X22324200Y63603592D01*
X22042118Y63720435D01*
X21742662Y63780000D01*
X21437338Y63780000D01*
X21137882Y63720435D01*
X20855800Y63603592D01*
X20601932Y63433964D01*
X20386036Y63218068D01*
X20320000Y63119237D01*
X20253964Y63218068D01*
X20038068Y63433964D01*
X19784200Y63603592D01*
X19502118Y63720435D01*
X19202662Y63780000D01*
X18897338Y63780000D01*
X18597882Y63720435D01*
X18315800Y63603592D01*
X18061932Y63433964D01*
X17846036Y63218068D01*
X17780000Y63119237D01*
X17713964Y63218068D01*
X17498068Y63433964D01*
X17244200Y63603592D01*
X16962118Y63720435D01*
X16662662Y63780000D01*
X16357338Y63780000D01*
X16057882Y63720435D01*
X15960264Y63680000D01*
X14519736Y63680000D01*
X14422118Y63720435D01*
X14122662Y63780000D01*
X13817338Y63780000D01*
X13517882Y63720435D01*
X13235800Y63603592D01*
X12981932Y63433964D01*
X12766036Y63218068D01*
X12596408Y62964200D01*
X12479565Y62682118D01*
X12420000Y62382662D01*
X12420000Y62077338D01*
X12479565Y61777882D01*
X12596408Y61495800D01*
X12766036Y61241932D01*
X12981932Y61026036D01*
X13235800Y60856408D01*
X13517882Y60739565D01*
X13817338Y60680000D01*
X14122662Y60680000D01*
X14422118Y60739565D01*
X14519736Y60780000D01*
X15960264Y60780000D01*
X16057882Y60739565D01*
X16357338Y60680000D01*
X16662662Y60680000D01*
X16962118Y60739565D01*
X17244200Y60856408D01*
X17498068Y61026036D01*
X17600000Y61127968D01*
X17600001Y55210611D01*
X15535057Y53145666D01*
X15479735Y53100264D01*
X15298536Y52879473D01*
X15163894Y52627575D01*
X15080981Y52354249D01*
X15060000Y52141224D01*
X15060000Y52141215D01*
X15052986Y52070000D01*
X15060000Y51998785D01*
X15060001Y47950609D01*
X14894321Y48116289D01*
X14656833Y48274973D01*
X14392949Y48384277D01*
X14112813Y48440000D01*
X13827187Y48440000D01*
X13547051Y48384277D01*
X13283167Y48274973D01*
X13045679Y48116289D01*
X12843711Y47914321D01*
X12700000Y47699242D01*
X12556289Y47914321D01*
X12354321Y48116289D01*
X12116833Y48274973D01*
X11852949Y48384277D01*
X11572813Y48440000D01*
X11287187Y48440000D01*
X11007051Y48384277D01*
X10743167Y48274973D01*
X10505679Y48116289D01*
X10303711Y47914321D01*
X10160000Y47699242D01*
X10016289Y47914321D01*
X9814321Y48116289D01*
X9576833Y48274973D01*
X9312949Y48384277D01*
X9032813Y48440000D01*
X8747187Y48440000D01*
X8467051Y48384277D01*
X8203167Y48274973D01*
X7965679Y48116289D01*
X7800000Y47950610D01*
X7800000Y53160000D01*
X10880264Y53160000D01*
X10977882Y53119565D01*
X11277338Y53060000D01*
X11582662Y53060000D01*
X11882118Y53119565D01*
X12164200Y53236408D01*
X12418068Y53406036D01*
X12633964Y53621932D01*
X12803592Y53875800D01*
X12920435Y54157882D01*
X12980000Y54457338D01*
X12980000Y54762662D01*
X12920435Y55062118D01*
X12803592Y55344200D01*
X12633964Y55598068D01*
X12418068Y55813964D01*
X12164200Y55983592D01*
X11882118Y56100435D01*
X11582662Y56160000D01*
X11277338Y56160000D01*
X10977882Y56100435D01*
X10880264Y56060000D01*
X6421225Y56060000D01*
X6350000Y56067015D01*
X6278775Y56060000D01*
X4359736Y56060000D01*
X4262118Y56100435D01*
X3962662Y56160000D01*
X3657338Y56160000D01*
X3357882Y56100435D01*
X3075800Y55983592D01*
X2821932Y55813964D01*
X2606036Y55598068D01*
X2436408Y55344200D01*
X2319565Y55062118D01*
X2260000Y54762662D01*
X150000Y54762662D01*
X150000Y64922662D01*
X2260000Y64922662D01*
X2260000Y64617338D01*
X2319565Y64317882D01*
X2360000Y64220263D01*
X2360001Y62779738D01*
X2319565Y62682118D01*
X2260000Y62382662D01*
X2260000Y62077338D01*
X2319565Y61777882D01*
X2436408Y61495800D01*
X2606036Y61241932D01*
X2821932Y61026036D01*
X3075800Y60856408D01*
X3357882Y60739565D01*
X3657338Y60680000D01*
X3962662Y60680000D01*
X4262118Y60739565D01*
X4544200Y60856408D01*
X4798068Y61026036D01*
X5013964Y61241932D01*
X5080000Y61340763D01*
X5146036Y61241932D01*
X5361932Y61026036D01*
X5615800Y60856408D01*
X5897882Y60739565D01*
X6197338Y60680000D01*
X6502662Y60680000D01*
X6802118Y60739565D01*
X6899736Y60780000D01*
X8340264Y60780000D01*
X8437882Y60739565D01*
X8737338Y60680000D01*
X9042662Y60680000D01*
X9342118Y60739565D01*
X9624200Y60856408D01*
X9878068Y61026036D01*
X10093964Y61241932D01*
X10263592Y61495800D01*
X10380435Y61777882D01*
X10440000Y62077338D01*
X10440000Y62382662D01*
X10380435Y62682118D01*
X10340000Y62779736D01*
X10340000Y68400000D01*
X18500264Y68400000D01*
X18597882Y68359565D01*
X18897338Y68300000D01*
X19202662Y68300000D01*
X19502118Y68359565D01*
X19784200Y68476408D01*
X20038068Y68646036D01*
X20253964Y68861932D01*
X20423592Y69115800D01*
X20540435Y69397882D01*
X20600000Y69697338D01*
X20600000Y70002662D01*
X20540435Y70302118D01*
X20500000Y70399736D01*
X20500000Y74380264D01*
X20540435Y74477882D01*
X20600000Y74777338D01*
X20600000Y75082662D01*
X20540435Y75382118D01*
X20423592Y75664200D01*
X20253964Y75918068D01*
X20038068Y76133964D01*
X19784200Y76303592D01*
X19502118Y76420435D01*
X19202662Y76480000D01*
X18897338Y76480000D01*
X18597882Y76420435D01*
X18315800Y76303592D01*
X18061932Y76133964D01*
X17960000Y76032032D01*
X17960000Y77622662D01*
X22580000Y77622662D01*
X22580000Y77317338D01*
X22639565Y77017882D01*
X22756408Y76735800D01*
X22926036Y76481932D01*
X23141932Y76266036D01*
X23395800Y76096408D01*
X23677882Y75979565D01*
X23977338Y75920000D01*
X24282662Y75920000D01*
X24582118Y75979565D01*
X24679736Y76020000D01*
X25220000Y76020000D01*
X25220000Y75479736D01*
X25179565Y75382118D01*
X25120000Y75082662D01*
X25120000Y74777338D01*
X25179565Y74477882D01*
X25296408Y74195800D01*
X25466036Y73941932D01*
X25681932Y73726036D01*
X25935800Y73556408D01*
X26217882Y73439565D01*
X26517338Y73380000D01*
X26822662Y73380000D01*
X27122118Y73439565D01*
X27404200Y73556408D01*
X27658068Y73726036D01*
X27873964Y73941932D01*
X28043592Y74195800D01*
X28160435Y74477882D01*
X28220000Y74777338D01*
X28220000Y75082662D01*
X28160435Y75382118D01*
X28120000Y75479736D01*
X28120000Y76920264D01*
X28160435Y77017882D01*
X28220000Y77317338D01*
X28220000Y77622662D01*
X28160435Y77922118D01*
X28120000Y78019736D01*
X28120000Y82000264D01*
X28160435Y82097882D01*
X28220000Y82397338D01*
X28220000Y82702662D01*
X28160435Y83002118D01*
X28043592Y83284200D01*
X27873964Y83538068D01*
X27658068Y83753964D01*
X27404200Y83923592D01*
X27122118Y84040435D01*
X26822662Y84100000D01*
X26517338Y84100000D01*
X26217882Y84040435D01*
X25935800Y83923592D01*
X25681932Y83753964D01*
X25466036Y83538068D01*
X25296408Y83284200D01*
X25179565Y83002118D01*
X25120000Y82702662D01*
X25120000Y82397338D01*
X25179565Y82097882D01*
X25220001Y82000262D01*
X25220001Y78920000D01*
X24679736Y78920000D01*
X24582118Y78960435D01*
X24282662Y79020000D01*
X23977338Y79020000D01*
X23677882Y78960435D01*
X23395800Y78843592D01*
X23141932Y78673964D01*
X22926036Y78458068D01*
X22756408Y78204200D01*
X22639565Y77922118D01*
X22580000Y77622662D01*
X17960000Y77622662D01*
X17960000Y89620264D01*
X18000435Y89717882D01*
X18060000Y90017338D01*
X18060000Y90322662D01*
X18000435Y90622118D01*
X17883592Y90904200D01*
X17713964Y91158068D01*
X17498068Y91373964D01*
X17244200Y91543592D01*
X16962118Y91660435D01*
X16662662Y91720000D01*
X16357338Y91720000D01*
X16057882Y91660435D01*
X15775800Y91543592D01*
X15521932Y91373964D01*
X15306036Y91158068D01*
X15240000Y91059237D01*
X15173964Y91158068D01*
X14958068Y91373964D01*
X14704200Y91543592D01*
X14422118Y91660435D01*
X14122662Y91720000D01*
X13817338Y91720000D01*
X13517882Y91660435D01*
X13235800Y91543592D01*
X12981932Y91373964D01*
X12766036Y91158068D01*
X12700000Y91059237D01*
X12633964Y91158068D01*
X12418068Y91373964D01*
X12164200Y91543592D01*
X11882118Y91660435D01*
X11582662Y91720000D01*
X11277338Y91720000D01*
X10977882Y91660435D01*
X10695800Y91543592D01*
X10441932Y91373964D01*
X10226036Y91158068D01*
X10160000Y91059237D01*
X10093964Y91158068D01*
X9878068Y91373964D01*
X9624200Y91543592D01*
X9342118Y91660435D01*
X9042662Y91720000D01*
X8737338Y91720000D01*
X8437882Y91660435D01*
X8155800Y91543592D01*
X7901932Y91373964D01*
X7686036Y91158068D01*
X7516408Y90904200D01*
X7399565Y90622118D01*
X7340000Y90322662D01*
X7340000Y90017338D01*
X7399565Y89717882D01*
X7440000Y89620264D01*
X7440001Y75479738D01*
X7399565Y75382118D01*
X7340000Y75082662D01*
X7340000Y74777338D01*
X7399565Y74477882D01*
X7516408Y74195800D01*
X7686036Y73941932D01*
X7901932Y73726036D01*
X8155800Y73556408D01*
X8437882Y73439565D01*
X8737338Y73380000D01*
X9042662Y73380000D01*
X9342118Y73439565D01*
X9624200Y73556408D01*
X9878068Y73726036D01*
X10093964Y73941932D01*
X10160000Y74040763D01*
X10226036Y73941932D01*
X10441932Y73726036D01*
X10695800Y73556408D01*
X10977882Y73439565D01*
X11277338Y73380000D01*
X11582662Y73380000D01*
X11882118Y73439565D01*
X12164200Y73556408D01*
X12418068Y73726036D01*
X12633964Y73941932D01*
X12700000Y74040763D01*
X12766036Y73941932D01*
X12981932Y73726036D01*
X13235800Y73556408D01*
X13517882Y73439565D01*
X13817338Y73380000D01*
X14122662Y73380000D01*
X14422118Y73439565D01*
X14704200Y73556408D01*
X14958068Y73726036D01*
X15173964Y73941932D01*
X15240000Y74040763D01*
X15306036Y73941932D01*
X15521932Y73726036D01*
X15775800Y73556408D01*
X16057882Y73439565D01*
X16357338Y73380000D01*
X16662662Y73380000D01*
X16962118Y73439565D01*
X17244200Y73556408D01*
X17498068Y73726036D01*
X17600001Y73827969D01*
X17600000Y71300000D01*
X8961225Y71300000D01*
X8890000Y71307015D01*
X8818775Y71300000D01*
X8605750Y71279019D01*
X8332424Y71196106D01*
X8080526Y71061464D01*
X7859735Y70880265D01*
X7678536Y70659474D01*
X7543894Y70407576D01*
X7460981Y70134250D01*
X7432985Y69850000D01*
X7440000Y69778776D01*
X7440001Y63680000D01*
X6899736Y63680000D01*
X6802118Y63720435D01*
X6502662Y63780000D01*
X6197338Y63780000D01*
X5897882Y63720435D01*
X5615800Y63603592D01*
X5361932Y63433964D01*
X5260000Y63332032D01*
X5260000Y64220264D01*
X5300435Y64317882D01*
X5360000Y64617338D01*
X5360000Y64922662D01*
X5300435Y65222118D01*
X5183592Y65504200D01*
X5013964Y65758068D01*
X4798068Y65973964D01*
X4544200Y66143592D01*
X4262118Y66260435D01*
X3962662Y66320000D01*
X3657338Y66320000D01*
X3357882Y66260435D01*
X3075800Y66143592D01*
X2821932Y65973964D01*
X2606036Y65758068D01*
X2436408Y65504200D01*
X2319565Y65222118D01*
X2260000Y64922662D01*
X150000Y64922662D01*
X150000Y82702662D01*
X2260000Y82702662D01*
X2260000Y82397338D01*
X2319565Y82097882D01*
X2360001Y82000262D01*
X2360000Y78019737D01*
X2319565Y77922118D01*
X2260000Y77622662D01*
X2260000Y77317338D01*
X2319565Y77017882D01*
X2360000Y76920263D01*
X2360000Y75479736D01*
X2319565Y75382118D01*
X2260000Y75082662D01*
X2260000Y74777338D01*
X2319565Y74477882D01*
X2436408Y74195800D01*
X2606036Y73941932D01*
X2821932Y73726036D01*
X3075800Y73556408D01*
X3357882Y73439565D01*
X3657338Y73380000D01*
X3962662Y73380000D01*
X4262118Y73439565D01*
X4544200Y73556408D01*
X4798068Y73726036D01*
X5013964Y73941932D01*
X5183592Y74195800D01*
X5300435Y74477882D01*
X5360000Y74777338D01*
X5360000Y75082662D01*
X5300435Y75382118D01*
X5260000Y75479736D01*
X5260000Y76920264D01*
X5300435Y77017882D01*
X5360000Y77317338D01*
X5360000Y77622662D01*
X5300435Y77922118D01*
X5260000Y78019736D01*
X5260000Y82000264D01*
X5300435Y82097882D01*
X5360000Y82397338D01*
X5360000Y82702662D01*
X5300435Y83002118D01*
X5183592Y83284200D01*
X5013964Y83538068D01*
X4798068Y83753964D01*
X4544200Y83923592D01*
X4262118Y84040435D01*
X3962662Y84100000D01*
X3657338Y84100000D01*
X3357882Y84040435D01*
X3075800Y83923592D01*
X2821932Y83753964D01*
X2606036Y83538068D01*
X2436408Y83284200D01*
X2319565Y83002118D01*
X2260000Y82702662D01*
X150000Y82702662D01*
X150000Y98910000D01*
X68430000Y98910000D01*
X68430000Y150000D01*
%TD*%
M02*
